<svg xmlns="http://www.w3.org/2000/svg" viewBox="0 0 300 300"><defs><style>.cls-1{fill:#05063c;}.cls-2{fill:#fff;}</style></defs><title>agri_icon</title><g id="Layer_2" data-name="Layer 2"><g id="Layer_1-2" data-name="Layer 1"><circle class="cls-1" cx="150" cy="150" r="150"/><path class="cls-2" d="M79.73,205.79c-7.15,15.09-22.88,17.93-33.5,11.89A23,23,0,0,1,34.44,201c-1.3-7.29.78-13.71,5.36-19.51-5-.58-5.74-1.41-5.74-6.21,0-4.18,0-8.35,0-12.53,0-3.71,1.33-5,5-5,1.3,0,2.6,0,4.32,0-1.4-2.8-2.83-5.27-3.86-7.89a22.87,22.87,0,0,1-1.49-6.3,86.86,86.86,0,0,1,0-8.84c0-2.94,1.47-4.46,4.34-4.48q11.42-.06,22.84,0c2.73,0,4.2,1.54,4.24,4.32a101.77,101.77,0,0,1-.09,11.05c-.18,1.93-1.29,3.81-2.11,5.66-.93,2.07-2,4.07-3.17,6.46,5.06,0,9.77.07,14.48-.06.71,0,1.53-.8,2.06-1.43,5.49-6.5,11-13,16.36-19.62a6.15,6.15,0,0,1,5.25-2.51c9.49.09,19,0,28.49,0,4.38,0,5.57,1.17,5.57,5.48q0,11.67,0,23.34v2.63h14.4c4,0,5.24,1.27,5.25,5.31,0,4.66,0,9.32,0,14.34h2.69c7.86,0,15.72,0,23.58,0,4.5,0,6.1,2.34,4.45,6.5-2.32,5.85-4.75,11.66-7,17.54a4.89,4.89,0,0,1-5.21,3.51c-11.38-.08-22.76,0-34.14-.07a3.76,3.76,0,0,0-3.43,1.7,15.48,15.48,0,0,1-24.76,0,3.92,3.92,0,0,0-3.66-1.72c-7,.06-14.09,0-21.13,0-4.6,0-4.95-.26-6.6-4.6C80.46,207.51,80.17,206.85,79.73,205.79ZM148,173.47c-11,0-21.7,0-32.41,0a3.68,3.68,0,0,0-2.29,1.07c-4.56,4.46-9,9-13.59,13.48a2.48,2.48,0,0,0-.6,3c1.14,3.23,2.2,6.49,3.28,9.75,1.43,4.28,1.42,4.28,5.84,4,.14,0,.28-.14.45-.23.66-6.93,3.87-12.12,10.62-14.48,7.07-2.49,13-.21,18,5.42A30.93,30.93,0,0,0,139,191.4c1.13-4.5,3.6-7,8.55-6.21.11,0,.25-.16.43-.28Zm-74.6,23.46a15.72,15.72,0,1,0-15.67,15.85A15.76,15.76,0,0,0,73.36,196.93ZM42,173.47H71.54c4.07,0,4.74.45,6.15,4.21,3.15,8.42,6.28,16.85,9.49,25.25.29.77,1.07,1.82,1.72,1.9a56.47,56.47,0,0,0,6.41.09c-.17-.73-.25-1.12-.37-1.5-4-12-8.06-24-12-36.08-.5-1.53-1.29-1.76-2.67-1.76-12.12,0-24.24,0-36.36,0-.62,0-1.25.1-1.89.16Zm100.06,31.45c10.09,0,19.74,0,29.38,0,.56,0,1.46-.24,1.62-.62,1.55-3.61,3-7.27,4.52-11.14-10.09,0-19.73,0-29.37,0a2.39,2.39,0,0,0-1.82,1.06C144.93,197.65,143.6,201.15,142.09,204.92Zm-29.41-62.81c0,4.77.19,9.35-.07,13.89-.17,3,.59,5.22,3,6.95,1.15.84,2.17,2.38,3.38,2.52a77.55,77.55,0,0,0,9.29.13V142.11Zm-17.2,38.06L108.73,167c-.71-.42-1.56-1.34-2.44-1.36-5.11-.14-10.23-.07-15.66-.07Zm21.14,24.55a7.85,7.85,0,1,0,8-7.65A7.89,7.89,0,0,0,116.62,204.72Zm-12-47.05v-16.3a15.24,15.24,0,0,0-3,2c-3.63,4.22-7.17,8.52-10.72,12.8a11.69,11.69,0,0,0-.92,1.49ZM61.53,138.23H46v3.58h15.5ZM59.07,150H48.36c1.22,2.45,2.26,4.74,3.46,6.92a2.34,2.34,0,0,0,3.83-.09C56.81,154.67,57.84,152.46,59.07,150Z"/><path class="cls-2" d="M179.78,117.79c3.62-3.9,6.72-7.27,9.85-10.61,10.1-10.82,23.71-11.3,34.56-1.27q21.18,19.59,42.41,39.16c.6.55,1.18,1.12,2,1.93l-5.28,5.76-26.16-24.12q-9.48-8.74-19-17.49c-6.93-6.36-15.83-6.09-22.24.79q-21.63,23.18-43.15,46.43c-.55.59-1.12,1.18-1.87,2l-5.79-5.25,29.51-31.81c-.53-.6-1-1.15-1.47-1.65Q150.81,99.21,128.4,76.81c-7.67-7.67-16.07-7.54-23.45.39Q83.6,100.12,62.32,123.1c-.54.59-1,1.25-1.65,2l-5.91-5.44c5.8-6.25,11.48-12.36,17.15-18.48C81.38,91,90.79,80.75,100.35,70.63c7.14-7.56,17.56-9.45,26.49-4.78A29,29,0,0,1,133.65,71Q156,93.12,178.14,115.44A16.32,16.32,0,0,1,179.78,117.79Z"/><path class="cls-2" d="M201.12,189.2c-3.42-8.63-1.82-15.91,4.39-20.47a16.15,16.15,0,0,1,9.87-3.13c8.84,0,17.69,0,26.53,0,12.11.08,19.45,11.35,14.67,22.45-.12.29-.24.58-.44,1,.68.21,1.27.42,1.88.57a15.78,15.78,0,0,1,11.82,17,15.62,15.62,0,0,1-15.28,13.94q-25.91.15-51.82,0a15.69,15.69,0,0,1-3.46-30.92Zm27.62-15.72c-5,0-9.67-.11-14.31,0a7.75,7.75,0,0,0-7.38,7.2c-.3,4,2.44,7.95,6.41,8.27,5,.39,10,.09,15.22.09A16.31,16.31,0,0,1,228.74,173.48ZM217,212.77c-2.82-5.34-2.65-10.45-.08-15.71h-2.46c-4,0-8-.12-12,.06a7.83,7.83,0,0,0,.36,15.63C207.37,212.87,211.94,212.77,217,212.77Zm37.2-15.7a7.85,7.85,0,1,0,7.86,7.78A7.89,7.89,0,0,0,254.19,197.07Zm-3.93-15.76a7.85,7.85,0,1,0-7.77,7.87A7.92,7.92,0,0,0,250.26,181.31Zm-11.8,23.56a7.85,7.85,0,1,0-7.73,7.9A7.89,7.89,0,0,0,238.46,204.87Z"/><path class="cls-2" d="M116.52,87.16v7.52H105V87.16Z"/><path class="cls-2" d="M81.34,126.15v-7.56H92.87v7.56Z"/><path class="cls-2" d="M203.2,126.11v-7.55h11.49v7.55Z"/><path class="cls-2" d="M171.7,165.45v-7.51h11.56v7.51Z"/><path class="cls-2" d="M100.73,110.51H93.22v-7.64h7.51Z"/><path class="cls-2" d="M120.63,118.23v-7.52h7.64v7.52Z"/><path class="cls-2" d="M148,114.68v7.52h-7.64v-7.52Z"/><path class="cls-2" d="M218.87,141.86v-7.52h7.64v7.52Z"/><path class="cls-2" d="M187.49,145.8v-7.53h7.58v7.53Z"/><path class="cls-2" d="M246.2,153.69h-7.54v-7.58h7.54Z"/><path class="cls-2" d="M214.74,157.7h-7.52v-7.65h7.52Z"/><path class="cls-2" d="M61.55,197.12a3.91,3.91,0,1,1-3.84-4A4,4,0,0,1,61.55,197.12Z"/><path class="cls-2" d="M124.57,201a3.91,3.91,0,1,1-4,3.81A3.94,3.94,0,0,1,124.57,201Z"/></g></g></svg>