<svg xmlns="http://www.w3.org/2000/svg" viewBox="0 0 100 100"><defs><style>.cls-1{fill:#bd0324;}.cls-2{fill:#fff;}</style></defs><title>agricultural_Natural_resources_1</title><g id="Layer_2" data-name="Layer 2"><g id="Layer_1-2" data-name="Layer 1"><circle class="cls-1" cx="50" cy="50" r="50"/><path class="cls-2" d="M26.58,68.6c-2.39,5-7.63,6-11.17,4A7.64,7.64,0,0,1,11.48,67a7.87,7.87,0,0,1,1.79-6.5c-1.67-.19-1.92-.47-1.92-2.07V54.26c0-1.23.45-1.67,1.68-1.68h1.44c-.47-.93-1-1.76-1.29-2.63a7.66,7.66,0,0,1-.5-2.1,29,29,0,0,1,0-3,1.31,1.31,0,0,1,1.44-1.49h7.62a1.3,1.3,0,0,1,1.41,1.44,34.92,34.92,0,0,1,0,3.69,6.51,6.51,0,0,1-.7,1.88c-.31.69-.67,1.36-1.06,2.16,1.69,0,3.26,0,4.83,0a1.2,1.2,0,0,0,.68-.48c1.83-2.17,3.66-4.34,5.46-6.54a2.06,2.06,0,0,1,1.75-.84c3.16,0,6.33,0,9.49,0,1.46,0,1.86.39,1.86,1.82V55.2h4.8c1.33,0,1.75.43,1.75,1.77,0,1.56,0,3.11,0,4.78h8.76c1.5,0,2,.78,1.48,2.16-.77,2-1.58,3.89-2.33,5.85a1.62,1.62,0,0,1-1.73,1.17c-3.8,0-7.59,0-11.38,0a1.24,1.24,0,0,0-1.15.56,5.16,5.16,0,0,1-8.25,0,1.3,1.3,0,0,0-1.22-.57c-2.35,0-4.7,0-7,0-1.54,0-1.65-.09-2.2-1.53C26.82,69.17,26.72,69,26.58,68.6ZM49.32,57.82c-3.66,0-7.23,0-10.8,0a1.22,1.22,0,0,0-.77.35c-1.52,1.49-3,3-4.53,4.5a.84.84,0,0,0-.2,1c.38,1.08.74,2.17,1.1,3.25.47,1.43.47,1.43,1.94,1.35,0,0,.1-.05.15-.08a5.17,5.17,0,0,1,3.54-4.82c2.36-.83,4.32-.07,6,1.8a12.63,12.63,0,0,0,.56-1.39c.37-1.5,1.2-2.34,2.85-2.07,0,0,.08,0,.14-.09ZM24.45,65.64a5.24,5.24,0,1,0-5.22,5.29A5.25,5.25,0,0,0,24.45,65.64ZM14,57.82h9.84c1.35,0,1.58.15,2,1.41C27,62,28,64.84,29.06,67.64c.1.26.36.61.57.64a18.9,18.9,0,0,0,2.14,0c-.06-.25-.08-.38-.12-.5-1.34-4-2.69-8-4-12-.17-.51-.43-.59-.89-.59-4,0-8.08,0-12.12,0-.21,0-.42,0-.63.06ZM47.36,68.31h9.8c.18,0,.48-.08.54-.21.51-1.2,1-2.42,1.5-3.71-3.36,0-6.57,0-9.79,0a.78.78,0,0,0-.6.35C48.31,65.88,47.87,67.05,47.36,68.31Zm-9.8-20.94c0,1.59.06,3.12,0,4.63a2.41,2.41,0,0,0,1,2.32c.38.28.72.79,1.13.84a26.46,26.46,0,0,0,3.09,0V47.37ZM31.83,60.06l4.41-4.38c-.23-.14-.52-.45-.81-.45-1.7,0-3.41,0-5.22,0Zm7,8.18a2.62,2.62,0,1,0,2.67-2.55A2.63,2.63,0,0,0,38.87,68.24Zm-4-15.68V47.12a5,5,0,0,0-1,.67c-1.21,1.41-2.39,2.84-3.58,4.27a3.45,3.45,0,0,0-.3.5ZM20.51,46.08H15.34v1.19h5.17ZM19.69,50H16.12c.41.82.75,1.58,1.15,2.31a.78.78,0,0,0,1.28,0C18.94,51.56,19.28,50.82,19.69,50Z"/><path class="cls-2" d="M59.93,39.26l3.28-3.53c3.37-3.61,7.9-3.77,11.52-.43L88.87,48.36c.2.18.39.37.67.64l-1.76,1.92-8.72-8Q75.91,40,72.74,37.05a5,5,0,0,0-7.41.26Q58.12,45,51,52.79l-.63.66L48.39,51.7l9.84-10.61-.49-.55L42.8,25.6c-2.56-2.55-5.36-2.51-7.82.13L20.77,41c-.18.2-.34.42-.55.68l-2-1.81L24,33.74c3.16-3.4,6.29-6.82,9.48-10.2A7.28,7.28,0,0,1,42.28,22a9.67,9.67,0,0,1,2.27,1.71Q52,31,59.38,38.48A5.59,5.59,0,0,1,59.93,39.26Z"/><path class="cls-2" d="M67,63.07c-1.14-2.88-.61-5.31,1.46-6.83a5.46,5.46,0,0,1,3.29-1c2.95,0,5.9,0,8.85,0a5.22,5.22,0,0,1,4.89,7.48l-.15.35c.23.07.42.14.63.19a5.23,5.23,0,0,1-1.16,10.31q-8.62,0-17.27,0a5.23,5.23,0,0,1-1.15-10.31Zm9.21-5.24c-1.68,0-3.23,0-4.77,0A2.57,2.57,0,0,0,69,60.24,2.51,2.51,0,0,0,71.15,63c1.66.13,3.33,0,5.08,0A5.4,5.4,0,0,1,76.25,57.83ZM72.33,70.92a5.43,5.43,0,0,1,0-5.23h-.82c-1.33,0-2.66,0-4,0a2.57,2.57,0,0,0-2.4,2.61,2.61,2.61,0,0,0,2.52,2.6C69.12,71,70.65,70.92,72.33,70.92Zm12.4-5.23a2.62,2.62,0,1,0,2.62,2.59A2.62,2.62,0,0,0,84.73,65.69Zm-1.31-5.25a2.62,2.62,0,1,0-2.59,2.62A2.64,2.64,0,0,0,83.42,60.44Zm-3.93,7.85a2.62,2.62,0,1,0-2.58,2.63A2.63,2.63,0,0,0,79.49,68.29Z"/><path class="cls-2" d="M38.84,29.05v2.51H35V29.05Z"/><path class="cls-2" d="M27.11,42.05V39.53H31v2.52Z"/><path class="cls-2" d="M67.73,42V39.52h3.83V42Z"/><path class="cls-2" d="M57.23,55.15v-2.5h3.86v2.5Z"/><path class="cls-2" d="M33.58,36.84H31.07V34.29h2.51Z"/><path class="cls-2" d="M40.21,39.41V36.9h2.55v2.51Z"/><path class="cls-2" d="M49.32,38.23v2.5H46.78v-2.5Z"/><path class="cls-2" d="M73,47.29V44.78H75.5v2.51Z"/><path class="cls-2" d="M62.5,48.6V46.09H65V48.6Z"/><path class="cls-2" d="M82.07,51.23H79.55V48.7h2.52Z"/><path class="cls-2" d="M71.58,52.57H69.07V50h2.51Z"/><path class="cls-2" d="M20.52,65.71a1.31,1.31,0,1,1-1.28-1.33A1.33,1.33,0,0,1,20.52,65.71Z"/><path class="cls-2" d="M41.52,67a1.31,1.31,0,1,1-1.33,1.27A1.32,1.32,0,0,1,41.52,67Z"/></g></g></svg>