<svg xmlns="http://www.w3.org/2000/svg" viewBox="0 0 158.3 158.3"><defs><style>.cls-1{fill:#11123c;}.cls-2{fill:#fff;}</style></defs><title>climate_change_ico_1</title><g id="Layer_2" data-name="Layer 2"><g id="Layer_1-2" data-name="Layer 1"><rect class="cls-1" width="158.3" height="158.3" rx="79.15"/><path class="cls-2" d="M112.59,86.6h-5.06A4.41,4.41,0,0,1,103,82.33a1.59,1.59,0,0,0-1.78-1.69c-1.4,0-2.8,0-4.19,0a4.47,4.47,0,0,1,0-8.93c4.81,0,9.63,0,14.44,0h1.14c-.3-1-.53-2-.85-2.94a.92.92,0,0,0-.75-.39c-1.76.08-3.52.31-5.28.32-8.85,0-17.7,0-26.55,0a4.47,4.47,0,0,1-.88-8.86,13.91,13.91,0,0,1,2-.07c1.08,0,1.78-.61,1.79-1.48s-.69-1.5-1.77-1.5c-1.86,0-3.72,0-5.59,0a4.47,4.47,0,1,1,0-8.93H89c.43,0,.87.11,1-.55s-.27-.72-.71-.85a34.09,34.09,0,0,0-19.88-.08,1.08,1.08,0,0,0-.66.68c-.69,5.1-4.24,8.24-9.35,8.25H58.3v5.9h-3V55.36h-3V61.2h-3V55.35h-3v5.84h-3v-5.9H40.59a7.47,7.47,0,0,1-1.88-14.74,1.4,1.4,0,0,0,.78-.75,10.49,10.49,0,0,1,18.18-2.75,1.11,1.11,0,0,0,.78.43,9,9,0,0,1,9.71,5.74,1.34,1.34,0,0,0,.17.27,37.49,37.49,0,0,1,22.6.31,18.15,18.15,0,0,1,19.58-10.64c7.1,1.21,13.15,6.84,14.42,13.84,1.7,9.33-2.18,16-10.42,20.42a36.68,36.68,0,0,1,0,23.49,18.12,18.12,0,0,1,10.59,19.76c-1.49,7.51-7,13.26-14.51,14.39-9,1.37-15.45-2.57-19.69-10.56a36.69,36.69,0,0,1-23.56,0,18,18,0,0,1-9.84,9.6,17.59,17.59,0,0,1-10.58.88,18,18,0,0,1-3.11-34,37,37,0,0,1-.75-21.1l2.88.74-.52,2.63H56.67a4.41,4.41,0,0,1,4.59,4.29c.09,1.18.65,1.67,2,1.67q9.45,0,18.91,0a4.41,4.41,0,0,1,4.27,3.25,4.29,4.29,0,0,1-1.86,4.93,5.24,5.24,0,0,1-2.44.72c-2.88.09-5.77,0-8.66,0-.71,0-1.37.19-1.57.9a1.83,1.83,0,0,0,.17,1.44,2.11,2.11,0,0,0,1.35.62c.93.09,1.86,0,2.8,0a4.47,4.47,0,0,1,0,8.93c-3,0-6,0-9.06,0,.08.29.13.51.21.72a17.31,17.31,0,0,1,1,10.13c-.12.57,0,.81.62,1a34.48,34.48,0,0,0,20.34,0c.58-.17.71-.42.6-1a17.75,17.75,0,0,1,14.42-21,30.26,30.26,0,0,1,6.38,0c.61,0,1,.07,1.13-.65S112.31,87.6,112.59,86.6ZM65.74,107.47a14.91,14.91,0,1,0-15,14.91A15,15,0,0,0,65.74,107.47Zm41.75-71.56a14.91,14.91,0,1,0,14.89,15A15,15,0,0,0,107.49,35.91Zm0,56.65a14.91,14.91,0,1,0,14.93,14.93A15,15,0,0,0,107.45,92.56ZM45,76.17A33.3,33.3,0,0,0,46.48,89.4c.2.66.55.55,1,.52a32.23,32.23,0,0,1,5.37-.19A17.4,17.4,0,0,1,65,96.58a1.32,1.32,0,0,0,.92.44q5,0,10,0a1.55,1.55,0,0,0,1.75-1.52,1.58,1.58,0,0,0-1.73-1.46c-.93,0-1.86,0-2.79,0a4.47,4.47,0,0,1,0-8.93c1.4,0,2.8,0,4.19,0,1.59,0,3.17,0,4.75,0a1.51,1.51,0,0,0,1.56-1.52,1.55,1.55,0,0,0-1.54-1.45c-.24,0-.49,0-.74,0H63.26c-3,0-4.63-1.44-5-4.45a1.5,1.5,0,0,0-1.5-1.49C52.91,76.15,49,76.17,45,76.17Zm-3.23-32.8H40.6a4.51,4.51,0,0,0-4.68,4.41,4.45,4.45,0,0,0,4.39,4.51c6.54.06,13.09.08,19.64,0a5.93,5.93,0,1,0-1.47-11.7c-.62.14-1.23.38-1.95.6a8.28,8.28,0,0,0-3.46-4.24,7.12,7.12,0,0,0-5.38-.82C44,37.07,42.24,39.64,41.81,43.37Zm47.73,7.45H75.12c-1.21,0-2,.61-1.92,1.53s.74,1.45,1.92,1.46c1.86,0,3.72,0,5.58,0a4.47,4.47,0,0,1,0,8.93,15.47,15.47,0,0,0-1.67,0,1.46,1.46,0,0,0-1.36,1.42A1.5,1.5,0,0,0,79,65.71a4.75,4.75,0,0,0,.65,0H96.54c.25,0,.51,0,.89-.07A18.23,18.23,0,0,1,89.54,50.82Zm23.7,23.85c-5.56,0-10.83,0-16.1,0a1.52,1.52,0,0,0-1.58,1.5,1.53,1.53,0,0,0,1.61,1.47c1.3,0,2.61,0,3.91,0,2.93,0,4.59,1.5,4.91,4.43a1.48,1.48,0,0,0,1.47,1.51c1.86.05,3.72,0,5.78,0Z"/><path class="cls-2" d="M43.42,67.15V64.29h2.86v2.86Z"/><path class="cls-2" d="M49.39,64.29h2.85v2.86H49.39Z"/><path class="cls-2" d="M55.35,64.28h2.86v2.88H55.35Z"/><path class="cls-2" d="M43.13,112.78l-2.48-1.66L42,109H39v-3H42l-1.39-2.2,2.47-1.66c.75,1.12,1.46,2.19,2.19,3.26.58.86,1,.77,1.63-.06a8.4,8.4,0,0,1,1.82-1.8c.77-.56.84-1,0-1.58-1.07-.73-2.15-1.45-3.27-2.2l1.65-2.49,2.15,1.38V95.59h3v3.1l2.2-1.4,1.65,2.48L52.85,102c-.78.52-.69,1,.06,1.57a9.57,9.57,0,0,1,1.87,1.89c.52.69,1,.77,1.52,0,.74-1.07,1.45-2.15,2.23-3.31L61,103.81,59.64,106h3v3H59.63l1.37,2.2-2.47,1.67-2.13-3.21c-.62-.92-1.06-.86-1.69,0a8.35,8.35,0,0,1-1.82,1.79c-.77.57-.83,1,0,1.58,1.07.73,2.15,1.45,3.27,2.2l-1.65,2.48-2.15-1.37v3.06h-3v-3.09l-2.2,1.41-1.65-2.48L48.81,113c.79-.53.7-1-.07-1.58a8.4,8.4,0,0,1-1.81-1.81c-.6-.82-1-.89-1.64,0C44.58,110.6,43.88,111.65,43.13,112.78Zm9.18-5.34a1.48,1.48,0,1,0-3,.06,1.54,1.54,0,0,0,1.5,1.45A1.55,1.55,0,0,0,52.31,107.44Z"/><path class="cls-2" d="M113.37,52.28a1.13,1.13,0,0,0-.11.16c-.65,1.38-.65,1.39.43,2.46L117,58.13l-2.25,2.1c-1.2-1.21-2.48-2.47-3.73-3.77a.78.78,0,0,0-1.11-.22c-.46.26-1,.29-1,1.11.1,1.76,0,3.52,0,5.34h-3v-3.1a14,14,0,0,1,0-2.05c.11-.8-.33-1-.94-1.32s-.9,0-1.24.38l-3.68,3.75L98,58.14l3.28-3.24c1.08-1.08,1.08-1.08.35-2.59h-6V49.37h6a.85.85,0,0,0,.11-.16c.65-1.39.65-1.4-.42-2.46S99.1,44.61,98,43.51l2.24-2.09c1.2,1.21,2.48,2.47,3.73,3.76.35.36.63.49,1.11.22s1-.29,1-1.11c-.1-1.76,0-3.52,0-5.34h3v3.11c0,.68,0,1.36,0,2,0,.53,0,1,.67,1.2s1,.29,1.51-.25c1.17-1.28,2.43-2.49,3.68-3.76L117,43.53c-1.09,1.06-2.2,2.13-3.29,3.21s-1.09,1.09-.35,2.59h6v3Zm-2.92-1.48a3,3,0,1,0-3,3A3.05,3.05,0,0,0,110.45,50.8Z"/><path class="cls-2" d="M101.52,111.79a6.06,6.06,0,0,1-4.29-4.32,5.35,5.35,0,0,1,.67-4.56c1.61-2.31,3.34-4.54,5.09-6.91l4.64,6.17,1.41-1.59c2.22,2.88,4.42,5.67,6.54,8.52a5.44,5.44,0,0,1,.74,2.09,7,7,0,0,1-6.49,8.2,8.38,8.38,0,0,1-4.44-.73,6.89,6.89,0,0,1-3.87-6.12C101.51,112.29,101.52,112.05,101.52,111.79Zm7.53-6.29c-.36,3.28-1.42,5-3.72,5.91a1.15,1.15,0,0,0-.8,1.49c.45,2.63,2.86,4.06,5.73,3.39a3.94,3.94,0,0,0,2.45-6.12C111.62,108.6,110.35,107.15,109.05,105.5Zm-6-4.45c-.86,1.14-1.67,2.15-2.41,3.21a3,3,0,1,0,4.78,0C104.66,103.19,103.86,102.19,103,101.05Z"/></g></g></svg>