<svg xmlns="http://www.w3.org/2000/svg" viewBox="0 0 100 100"><defs><style>.cls-1{fill:#bd0324;}.cls-2{fill:#fff;}</style></defs><title>environmental_solutions</title><g id="Layer_2" data-name="Layer 2"><g id="Layer_1-2" data-name="Layer 1"><g id="Layer_2-2" data-name="Layer 2"><g id="Layer_1-2-2" data-name="Layer 1-2"><path class="cls-1" d="M50,0h0a50,50,0,0,1,50,50h0a50,50,0,0,1-50,50h0A50,50,0,0,1,0,50H0A50,50,0,0,1,50,0Z"/><path class="cls-2" d="M46.33,83.58a12.46,12.46,0,0,1-1.56-.64,4.76,4.76,0,0,1-2.53-4.49,1.39,1.39,0,0,0-.58-1.32,4.77,4.77,0,0,1-1.9-3.85c0-1.9-.11-3.76-.08-5.64a6.54,6.54,0,0,0-1.6-4.47c-1.13-1.35-2.4-2.6-3.47-4a19.26,19.26,0,0,1-4-13.42c.05-.76.16-1.52.27-2.28s.55-1.09,1.11-1,.91.54.85,1.31c-.09,1.33-.29,2.65-.26,4a17.23,17.23,0,0,0,4.61,11.37,33.24,33.24,0,0,1,2.64,3,18.47,18.47,0,0,1,1.62,3.16c.14.32.22.48.63.48H58.24c.19,0,.53-.18.56-.33a10.42,10.42,0,0,1,2.78-4.9A23.62,23.62,0,0,0,65.7,55a17.86,17.86,0,0,0-8.2-23.89,17.19,17.19,0,0,0-23.1,8c-.06.11-.11.24-.17.35a1,1,0,0,1-1.31.59l-.11-.05a1,1,0,0,1-.41-1.33.3.3,0,0,1,0-.08,19.07,19.07,0,0,1,13.67-10.8A19.39,19.39,0,0,1,69,42.83c0,.11,0,.22.07.33A19.56,19.56,0,0,1,64,60.85a32.05,32.05,0,0,0-2.18,2.61,6.08,6.08,0,0,0-1.19,3.84c0,1.82,0,3.63,0,5.45a5.41,5.41,0,0,1-2.2,4.65,1.26,1.26,0,0,0-.29.91,4.87,4.87,0,0,1-2.29,4.44,10.39,10.39,0,0,1-1.84.81ZM41.76,71.09h9.53c.94,0,1.41.33,1.42,1s-.49,1-1.4,1H41.76a3.11,3.11,0,0,0,3,3.24h.12q5.34.09,10.68,0a3.08,3.08,0,0,0,3.09-3.07v-.19H56.47a1,1,0,0,1-1.13-.9.28.28,0,0,1,0-.09c0-.64.42-1,1.15-1s1.42,0,2.16,0V67.86H41.76Zm2.49,7.24a2.94,2.94,0,0,0,2.59,3.23h.24c2.07.05,4.15.05,6.22,0a2.86,2.86,0,0,0,2.83-2.89,2.07,2.07,0,0,0,0-.35Z"/><path class="cls-2" d="M49,20.73V17.65c0-.78.36-1.21,1-1.23s1,.43,1,1.24v6.15c0,.77-.44,1.26-1,1.26s-1-.49-1-1.26Z"/><path class="cls-2" d="M21.62,50.09h-3c-.82,0-1.26-.37-1.26-1s.43-1,1.26-1h6.09c.79,0,1.27.41,1.27,1s-.5,1-1.27,1Z"/><path class="cls-2" d="M78.33,48.07h3.08c.79,0,1.21.36,1.22,1s-.42,1-1.26,1H75.22a1.12,1.12,0,0,1-1.27-1c0-.58.48-1,1.27-1Z"/><path class="cls-2" d="M28,25.8a4.56,4.56,0,0,1,.39.27l.08.07q2.22,2.19,4.39,4.38c.55.56.58,1.1.13,1.55s-1,.4-1.55-.16c-1.48-1.47-3-3-4.42-4.42a1,1,0,0,1-.26-1.26,1.67,1.67,0,0,1,.48-.42A.72.72,0,0,1,28,25.8Z"/><path class="cls-2" d="M67.64,32.52c-.31-.26-.72-.45-.8-.74A1.32,1.32,0,0,1,67,30.72a15.89,15.89,0,0,1,1.46-1.5l3.06-3c.55-.55,1.17-.64,1.59-.16s.35,1-.19,1.55C71.46,29,70,30.5,68.5,32A5.34,5.34,0,0,1,67.64,32.52Z"/><path class="cls-2" d="M27.54,72.58a3.49,3.49,0,0,1-.81-.68A.94.94,0,0,1,27,70.71q1.56-1.54,3.1-3.1c.5-.49,1-1,1.49-1.48A1,1,0,0,1,32.9,66l.1.09a1,1,0,0,1,0,1.35.52.52,0,0,1-.11.1q-2.26,2.31-4.58,4.58A3.71,3.71,0,0,1,27.54,72.58Z"/><path class="cls-2" d="M73.5,71.56a3.69,3.69,0,0,1-.7.8.94.94,0,0,1-1.18-.26l-4-4-.51-.51c-.54-.56-.58-1.1-.12-1.55s1-.39,1.51.14l3.56,3.55c.33.33.64.64,1,1A5.07,5.07,0,0,1,73.5,71.56Z"/><path class="cls-2" d="M36.2,40.43c.24-.53.74-.59,1.24-.63a12.54,12.54,0,0,1,13.63,9.29c0,.2.09.39.14.63.33-.42.63-.83.93-1.2a10.91,10.91,0,0,1,7-3.79,11.1,11.1,0,0,1,4.62.32.84.84,0,0,1,.68,1,.81.81,0,0,1-.38.57,8.54,8.54,0,0,0-2.43,3c-.47.91-.93,1.84-1.39,2.75A8.71,8.71,0,0,1,54,57.08c-.81.18-1.65.27-2.47.41l-.4,0V60.7a.82.82,0,0,1-.82.81h0a.8.8,0,0,1-.82-.78V55.41l-2.43-.63a12.49,12.49,0,0,1-4-2A10.22,10.22,0,0,1,39.89,48c-.46-1.27-.89-2.53-1.39-3.74a8.5,8.5,0,0,0-2-2.94,2.28,2.28,0,0,1-.3-.38ZM49.65,53.7a10.85,10.85,0,0,0-6.54-11.51,10.15,10.15,0,0,0-4.32-.8,14.11,14.11,0,0,1,1.85,3.9c.26.76.53,1.53.81,2.28a8.39,8.39,0,0,0,4.47,5A16.32,16.32,0,0,0,49.65,53.7Zm1.52,2.18c.89-.16,1.77-.27,2.62-.48a7.32,7.32,0,0,0,4.13-2.53,14.76,14.76,0,0,0,1.62-2.77,18,18,0,0,1,1.89-3.27l.36-.46A9.4,9.4,0,0,0,51.17,55.88Z"/></g></g></g></g></svg>