<svg xmlns="http://www.w3.org/2000/svg" viewBox="0 0 158.3 158.3"><defs><style>.cls-1{fill:#11123c;}.cls-2{fill:#fff;}</style></defs><title>enviromental_solutions_1</title><g id="Layer_2" data-name="Layer 2"><g id="Layer_1-2" data-name="Layer 1"><rect class="cls-1" width="158.3" height="158.3" rx="79.15"/><path class="cls-2" d="M73.34,132.3a20,20,0,0,1-2.47-1,7.52,7.52,0,0,1-4-7.12,2.19,2.19,0,0,0-.93-2.08,7.58,7.58,0,0,1-3-6.1c0-3-.17-5.95-.12-8.92A10.41,10.41,0,0,0,60.28,100c-1.79-2.14-3.8-4.12-5.5-6.34a30.47,30.47,0,0,1-6.37-21.24c.08-1.2.25-2.4.43-3.6s.87-1.73,1.76-1.62,1.44.85,1.34,2.07c-.15,2.1-.46,4.2-.41,6.3a27.3,27.3,0,0,0,7.29,18A53.48,53.48,0,0,1,63,98.38a29.46,29.46,0,0,1,2.56,5c.23.51.36.77,1,.77,8.55,0,17.09,0,25.64,0,.3,0,.83-.29.88-.53a16.54,16.54,0,0,1,4.4-7.75A37.11,37.11,0,0,0,104,87,28.27,28.27,0,0,0,86.06,47.31a27.63,27.63,0,0,0-31.61,14.5c-.09.18-.17.38-.27.56a1.6,1.6,0,0,1-2.24.85A1.56,1.56,0,0,1,51.35,61C55.88,51.87,63,46,73,43.9a30.69,30.69,0,0,1,36.33,24.42c2.08,10.59-.72,20-8,28a52.51,52.51,0,0,0-3.46,4.13A9.71,9.71,0,0,0,96,106.54c.05,2.87,0,5.75.05,8.62a8.55,8.55,0,0,1-3.48,7.37,2,2,0,0,0-.46,1.43A7.7,7.7,0,0,1,88.49,131a18.58,18.58,0,0,1-2.91,1.28Zm-7.23-19.77H81.19c1.49,0,2.24.52,2.25,1.54s-.78,1.6-2.22,1.6H66.11A4.92,4.92,0,0,0,71,120.81q8.44.15,16.91,0a4.87,4.87,0,0,0,4.88-5.15c-1.13,0-2.26,0-3.4,0a1.62,1.62,0,0,1-1.8-1.58c0-1,.67-1.53,1.81-1.55s2.26,0,3.42,0v-5.11H66.11ZM70.05,124a4.63,4.63,0,0,0,4.48,5.13q4.92.12,9.84,0A4.53,4.53,0,0,0,88.81,124Z"/><path class="cls-2" d="M77.54,32.82c0-1.63,0-3.25,0-4.88,0-1.23.57-1.91,1.55-1.94s1.64.67,1.65,1.95q0,4.86,0,9.74c0,1.22-.7,2-1.65,2s-1.54-.78-1.55-2C77.53,36.07,77.54,34.44,77.54,32.82Z"/><path class="cls-2" d="M34.22,79.3c-1.59,0-3.18,0-4.77,0-1.3,0-2-.59-2-1.6s.68-1.59,2-1.6h9.64c1.25,0,2,.64,2,1.6s-.78,1.59-2,1.6C37.47,79.31,35.84,79.3,34.22,79.3Z"/><path class="cls-2" d="M124,76.1c1.62,0,3.25,0,4.87,0,1.25,0,1.91.56,1.94,1.54s-.67,1.64-2,1.65q-4.87,0-9.74,0c-1.19,0-1.94-.63-2-1.56s.75-1.62,2-1.64Z"/><path class="cls-2" d="M43.64,40.48a8.55,8.55,0,0,1,1.34.84q3.54,3.49,7,7c.87.88.93,1.74.21,2.45s-1.56.63-2.45-.25c-2.35-2.34-4.68-4.7-7-7a1.52,1.52,0,0,1-.41-2C42.59,41.12,43.16,40.86,43.64,40.48Z"/><path class="cls-2" d="M107.07,51.48c-.49-.42-1.13-.72-1.27-1.17a2.11,2.11,0,0,1,.26-1.68,24.57,24.57,0,0,1,2.31-2.37l4.84-4.84c.88-.87,1.86-1,2.53-.25s.54,1.61-.3,2.46c-2.32,2.33-4.63,4.65-7,6.95A8.1,8.1,0,0,1,107.07,51.48Z"/><path class="cls-2" d="M43.6,114.9a5.33,5.33,0,0,1-1.28-1.08,1.47,1.47,0,0,1,.36-1.88c1.64-1.63,3.27-3.27,4.91-4.91.78-.78,1.55-1.58,2.35-2.34a1.52,1.52,0,0,1,2.3-.08,1.51,1.51,0,0,1-.09,2.29q-3.6,3.66-7.26,7.25A6.29,6.29,0,0,1,43.6,114.9Z"/><path class="cls-2" d="M116.35,113.28c-.38.45-.66,1-1.11,1.26a1.5,1.5,0,0,1-1.87-.4l-6.3-6.31c-.27-.26-.55-.53-.81-.8-.85-.89-.91-1.75-.18-2.45s1.54-.62,2.38.21c1.89,1.87,3.76,3.75,5.65,5.63.51.52,1,1,1.52,1.56A8.55,8.55,0,0,1,116.35,113.28Z"/><path class="cls-2" d="M57.31,64c.38-.84,1.16-.94,1.95-1a19.36,19.36,0,0,1,12.22,2.48,19.16,19.16,0,0,1,9.36,12.23c.08.31.14.61.23,1,.51-.67,1-1.32,1.47-1.91a17.34,17.34,0,0,1,11.09-6,17.69,17.69,0,0,1,7.31.52,1.34,1.34,0,0,1,.49,2.45,13.48,13.48,0,0,0-3.85,4.79c-.75,1.44-1.47,2.91-2.21,4.35a13.78,13.78,0,0,1-9.84,7.45c-1.29.28-2.61.43-3.91.64l-.63.09v4c0,.34,0,.67,0,1a1.29,1.29,0,0,1-1.32,1.28,1.26,1.26,0,0,1-1.29-1.3q0-3.93,0-7.87v-.49c-1.31-.35-2.59-.66-3.85-1a19.61,19.61,0,0,1-6.39-3.21,16.06,16.06,0,0,1-5-7.46c-.73-2-1.41-4-2.19-5.92a13.41,13.41,0,0,0-3.13-4.64,4.06,4.06,0,0,1-.46-.61ZM78.6,85A17.22,17.22,0,0,0,68.25,66.78a16.32,16.32,0,0,0-6.84-1.26,22.46,22.46,0,0,1,2.92,6.17c.41,1.21.84,2.42,1.28,3.62a13.34,13.34,0,0,0,7.08,7.85A26.44,26.44,0,0,0,78.6,85ZM81,88.46c1.41-.25,2.8-.43,4.15-.76a11.55,11.55,0,0,0,6.53-4,22.72,22.72,0,0,0,2.57-4.39,27.92,27.92,0,0,1,3-5.18l.56-.72C89.6,72,80.66,79,81,88.46Z"/></g></g></svg>