<svg xmlns="http://www.w3.org/2000/svg" viewBox="0 0 158.3 158.3"><defs><style>.cls-1{fill:#11123c;}.cls-2{fill:#fff;stroke:#12133c;stroke-miterlimit:10;stroke-width:2px;}</style></defs><title>geospatial_1</title><g id="Layer_2" data-name="Layer 2"><g id="Layer_1-2" data-name="Layer 1"><rect class="cls-1" width="158.3" height="158.3" rx="79.15"/><path class="cls-2" d="M33.4,95.94,44.68,88.8,33.39,81.65,56.32,67.13a24.67,24.67,0,0,1,0-18.24,24.12,24.12,0,0,1,9.23-11.4,24.78,24.78,0,0,1,27.78.38c7.18,5,13.5,16,8.68,29.28l22.91,14.5L113.62,88.8l11.24,7.12c-.3.22-.51.39-.75.54L80,124.35c-.24.16-.46.35-.69.53H79a7.26,7.26,0,0,0-.61-.49L34.27,96.51a8.53,8.53,0,0,0-.87-.39Zm45.72-3.21C72.36,85.68,65.25,79.2,58.76,72L43.5,81.63c.32.22.53.38.75.51Q61.32,93,78.39,103.76a1.19,1.19,0,0,0,1.5,0Q97,92.93,114.11,82.1c.21-.13.4-.3.66-.49L99.64,72c-3.46,3.52-6.83,7-10.22,10.38S82.62,89.23,79.12,92.73Zm.18-8-.14.23a.77.77,0,0,0,.16-.07c4.66-4.68,9.44-9.26,14-14.07A18.17,18.17,0,0,0,98,54.75,19,19,0,0,0,75.76,39.13,18.12,18.12,0,0,0,61.15,51.45c-2.46,6.84-1.46,13.44,3.44,18.85C69.2,75.38,74.37,80,79.3,84.75ZM43.49,95.94l.85.56q17,10.75,34,21.52A1.31,1.31,0,0,0,80,118q15-9.49,29.93-19L114.82,96c-1.91-1.21-3.73-2.33-5.5-3.5a1.15,1.15,0,0,0-1.49,0c-9.31,5.92-18.64,11.8-27.95,17.72a1.16,1.16,0,0,1-1.48,0c-4.89-3.13-9.8-6.22-14.7-9.32L49.73,92Z"/><path class="cls-2" d="M79.15,71.81A13.85,13.85,0,1,1,93,58,13.93,13.93,0,0,1,79.15,71.81ZM87.57,58a8.43,8.43,0,1,0-8.5,8.41A8.43,8.43,0,0,0,87.57,58Z"/></g></g></svg>