<svg xmlns="http://www.w3.org/2000/svg" viewBox="0 0 100 100"><defs><style>.cls-1{fill:#bd0324;}.cls-2{fill:#fff;}</style></defs><title>water_resource_1</title><g id="Layer_2" data-name="Layer 2"><g id="Layer_1-2" data-name="Layer 1"><g id="Layer_2-2" data-name="Layer 2"><g id="Layer_1-2-2" data-name="Layer 1-2"><path class="cls-1" d="M50,0h0a50,50,0,0,1,50,50h0a50,50,0,0,1-50,50h0A50,50,0,0,1,0,50H0A50,50,0,0,1,50,0Z"/><path class="cls-2" d="M32.41,80.63l-13-16.88,1.9-1.26L36.92,51.93A2.24,2.24,0,0,1,38,51.6H57a5.47,5.47,0,0,1,5.3,3.27.7.7,0,0,0,.47.32A2.37,2.37,0,0,0,65,54.33c2-2.12,4.11-4.12,6.15-6.21a5.33,5.33,0,0,1,5.61-1.54,5.12,5.12,0,0,1,3.79,4.22.56.56,0,0,0,.1.15v1.56A8.19,8.19,0,0,1,78,56.69q-6.27,6.2-12.46,12.47a1.43,1.43,0,0,1-1.1.44H45.27a1.47,1.47,0,0,0-1.06.41l-8.68,7.87c-1,.91-2,1.84-3,2.76ZM46.58,58.75H57.16a1.8,1.8,0,0,0,1.93-1.64,1,1,0,0,0,0-.17,1.82,1.82,0,0,0-1.85-1.79H38.93a1.15,1.15,0,0,0-.63.15L32.85,59a.67.67,0,0,0-.27.47q0,.63.06,1.26c1.15.3,2.27.63,3.41.88a.53.53,0,0,1,.5.57.13.13,0,0,1,0,.06c0,1,.1,2,.12,3a.56.56,0,0,0,.47.64c1,.22,2,.53,3,.75a.52.52,0,0,1,.47.56h0c0,.34,0,.69.07,1.12.73-.67,1.4-1.26,2-1.85A1.66,1.66,0,0,1,44,66H62.91a1.26,1.26,0,0,0,1-.4L76.2,53.28a2.81,2.81,0,0,0,.38-.39,1.78,1.78,0,0,0,.18-2A1.56,1.56,0,0,0,75,50a2.72,2.72,0,0,0-1.32.69c-2.59,2.52-5.14,5.13-7.72,7.67a1.6,1.6,0,0,1-.93.38c-.75.06-1.51,0-2.27,0a.72.72,0,0,0-.53.31,5.51,5.51,0,0,1-5.41,3.3H46.56ZM32.9,75.35c1.11-1,2.11-2,3.23-2.88a2.29,2.29,0,0,0,1-2.49c-.07-.33-.16-.46-.48-.54-1-.24-2-.53-2.94-.74a.57.57,0,0,1-.53-.61v0c0-1-.11-2-.11-3,0-.44-.19-.58-.57-.63-.85-.2-1.69-.48-2.53-.63-.67-.12-.91-.43-.85-1.07,0-.35,0-.7,0-1.18l-4.52,3.05Z"/><path class="cls-2" d="M46.59,30.93c.76.94,1.52,1.81,2.24,2.74A29.75,29.75,0,0,1,52,38.75a5.94,5.94,0,1,1-11,.26,29,29,0,0,1,3.58-5.69C45.25,32.52,45.9,31.77,46.59,30.93ZM46.3,35.5c-1,1.7-1.89,3.22-2.76,4.79A2.9,2.9,0,0,0,44.47,44a3.15,3.15,0,0,0,3.74.07,2.93,2.93,0,0,0,1.26-3.15A21.45,21.45,0,0,0,46.3,35.5Z"/><path class="cls-2" d="M61.75,21.45c.76.94,1.52,1.82,2.24,2.74a31.27,31.27,0,0,1,3.21,5.08,5.95,5.95,0,1,1-11,.26,29,29,0,0,1,3.58-5.69C60.41,23.05,61.06,22.29,61.75,21.45ZM61.47,26c-1,1.7-1.9,3.22-2.77,4.78a2.9,2.9,0,0,0,.93,3.66,3.17,3.17,0,0,0,3.74.08,3,3,0,0,0,1.26-3.16A21.66,21.66,0,0,0,61.47,26Z"/></g></g></g></g></svg>