<svg xmlns="http://www.w3.org/2000/svg" viewBox="0 0 300 300"><defs><style>.cls-1,.cls-2{fill:none;}.cls-1{stroke:#fff;stroke-miterlimit:10;stroke-width:8px;}</style></defs><title>wildlife_1</title><g id="Layer_2" data-name="Layer 2"><g id="Layer_1-2" data-name="Layer 1"><path class="cls-1" d="M96.08,273.38V219.32a3.57,3.57,0,0,0-3.58-3.57H43.31A3.57,3.57,0,0,1,41,209.44c29.22-24.68,41-42.16,45.48-50.36a3.57,3.57,0,0,0-3.15-5.26H58.1a3.57,3.57,0,0,1-2.66-6c25.63-28.59,32.51-42.2,34.13-48.3a3.57,3.57,0,0,0-3.45-4.49H70.94a3.57,3.57,0,0,1-3-5.52C87.79,59,97.79,36.77,102.33,25.07a3.57,3.57,0,0,1,6.66,0c10.9,28.69,25.54,53.87,32.09,64.55A3.57,3.57,0,0,1,138,95.07H126.38a3.57,3.57,0,0,0-3.28,5c9.46,22.19,23.21,39,31,47.37a3.57,3.57,0,0,1-2.62,6H128.69a3.57,3.57,0,0,0-3.09,5.36,163.81,163.81,0,0,0,41.21,47.55,3.58,3.58,0,0,1-2,6.4l-45.12,2.44a3.56,3.56,0,0,0-3.38,3.56v54.9a3.57,3.57,0,0,1-3.64,3.57L99.58,277A3.57,3.57,0,0,1,96.08,273.38Z"/><path class="cls-1" d="M208.6,195c4.27,4.63,7.07,10.38,10.65,15.56,5.36,7.78,12.45,14.26,17.69,22.12a58.14,58.14,0,0,1,9,23.09c.47,2.91.68,6-.59,8.69a13.37,13.37,0,0,1-4.64,4.93A32,32,0,0,1,213,273.47c-4.11-1.34-7.95-3.53-12.19-4.32-7.26-1.35-14.53,1.55-21.56,3.81s-15.09,3.82-21.48.14c-5.53-3.19-8.4-9.56-9.93-15.75-1.92-7.76-2.13-16.48,2.17-23.22,2.29-3.58,5.67-6.32,8.29-9.67s4.35-7.13,6.6-10.66a92.86,92.86,0,0,1,6.64-8.79l7.2-8.8C187.16,185.89,199.18,184.78,208.6,195Z"/><path class="cls-1" d="M234.55,191.53a162.47,162.47,0,0,1,5.81-17.29,11,11,0,0,1,2.55-4.1c1.59-1.4,3.78-1.84,5.86-2.23a10.54,10.54,0,0,1,3.06-.25c2.22.28,4,2,5.38,3.7a13.09,13.09,0,0,1,2.38,4,16.13,16.13,0,0,1,.6,4.8c.2,8.86.24,18-3,26.22a14,14,0,0,1-4.15,6.17c-2.33,1.79-5.38,2.29-8.31,2.52-4.69.36-11.69-.64-13.33-6-.64-2.09,0-4.49.34-6.56C232.43,198.78,233.48,195.15,234.55,191.53Z"/><path class="cls-1" d="M153.46,192.26a184.47,184.47,0,0,0-6.57-19.54,12.41,12.41,0,0,0-2.88-4.63c-1.79-1.59-4.27-2.09-6.62-2.52a11.58,11.58,0,0,0-3.46-.28c-2.5.31-4.5,2.22-6.08,4.18a14.87,14.87,0,0,0-2.69,4.5,18.34,18.34,0,0,0-.67,5.43c-.23,10-.28,20.32,3.41,29.63a15.84,15.84,0,0,0,4.69,7c2.63,2,6.08,2.59,9.39,2.85,5.3.41,13.21-.72,15.06-6.78.72-2.36.06-5.07-.38-7.42C155.85,200.46,154.67,196.35,153.46,192.26Z"/><path class="cls-1" d="M167.43,129a44.07,44.07,0,0,0-2.58,6.93,63.1,63.1,0,0,0-1.6,10.06l-.8,7.56c-.52,5-1,10.07-.16,15s3.4,9.83,7.69,12.43a7.2,7.2,0,0,0,4.8,1.2,9.32,9.32,0,0,0,4.15-2.31,13.91,13.91,0,0,0,4.31-4.95,14.59,14.59,0,0,0,.9-4.15,115.78,115.78,0,0,0,1-12.47c.08-8.33-1.57-16.57-3.2-24.73-.72-3.56-1.31-10.68-5.27-12.41C172.3,119.27,168.82,126,167.43,129Z"/><path class="cls-1" d="M217.64,128.19a45.63,45.63,0,0,1,2.59,6.94,65.52,65.52,0,0,1,1.6,10.05l.79,7.57c.53,5,1,10.07.16,15s-3.39,9.83-7.69,12.44a7.17,7.17,0,0,1-4.79,1.2,9.3,9.3,0,0,1-4.16-2.31,14,14,0,0,1-4.31-5,15,15,0,0,1-.9-4.15,115.78,115.78,0,0,1-1-12.47c-.08-8.33,1.57-16.57,3.21-24.74.71-3.56,1.3-10.67,5.27-12.4C212.77,118.47,216.26,125.16,217.64,128.19Z"/><rect class="cls-2" width="300" height="300"/></g></g></svg>