<svg xmlns="http://www.w3.org/2000/svg" viewBox="0 0 300 300"><defs><style>.cls-1{fill:none;}.cls-2{fill:#fff;}</style></defs><title>agriculture</title><g id="Layer_2" data-name="Layer 2"><g id="Layer_1-2" data-name="Layer 1"><rect class="cls-1" width="300" height="300"/><path class="cls-2" d="M174.64,83.63c-2.1.66-2.64-.5-3.06-2.33a9.6,9.6,0,0,0-8.19-7.7c-3.3-.6-1.42-2.93-1.57-4.37-.2-1.93,1.61-1,2.42-.85a14.37,14.37,0,0,1,9.3,5.27c.89,1.07,1.22,1.16,2.18,0a15.14,15.14,0,0,1,10.05-5.43c1.49-.18,1.78.32,1.91,1.75.22,2.38-.33,3.46-2.94,4a8.83,8.83,0,0,0-7.07,7.51C177.31,83.49,176.49,84.09,174.64,83.63Z"/><path class="cls-2" d="M148.8,42.16c-1.8.42-2.66-.1-3.07-2.1-.56-2.7-2.65-4.2-5.32-4.88-2.94-.75-1.11-3.08-1.27-4.6s1.35-.68,2.13-.59a9.89,9.89,0,0,1,6.23,3.14c1.14,1.25,1.72,1,2.73-.07a11.78,11.78,0,0,1,6.5-3.19c1.45-.26,2,0,2,1.58,0,2.1.15,3.81-2.72,4.25a5.06,5.06,0,0,0-4,4.2C151.6,42,150.71,42.62,148.8,42.16Z"/><path class="cls-2" d="M185.1,42.39A14.14,14.14,0,0,1,193,37.84c1.41-.27,2.1-.12,2.09,1.67,0,2.18,0,3.71-2.82,4.23-2.38.43-3.79,2.6-4.19,5s-2.2,1.14-3.36,1.36c-1,.18-2.12.42-2.42-1.33-.52-3-2.56-4.72-5.55-5.58-2.73-.77-1.07-3.17-1.14-4.75-.06-1.25,1.43-.59,2.22-.44A12.11,12.11,0,0,1,185.1,42.39Z"/><path class="cls-2" d="M215,57.43l-9-1.54c-.85-.14-1.44-.41-1.14-1.48a25.56,25.56,0,0,0,.5-2.75c.13-.93.55-1.31,1.54-1.12,3.08.6,6.18,1.08,9.26,1.72,2.59.54.5,2.3.69,3.44C216.94,56.48,217,58,215,57.43Z"/><path class="cls-2" d="M249.79,80.38c.81-.37.81.35,1,.76,1.12,3,2.22,6,3.33,9,.3.81.23,1.29-.73,1.74-3.52,1.68-3.73,1.65-5.06-2-.72-2-1.36-4-2.21-5.92-.69-1.57-.44-2.45,1.3-2.83A20.41,20.41,0,0,0,249.79,80.38Z"/><path class="cls-2" d="M210.86,79.07c-1.15-1.06-1.64-2.51-2.41-3.78-.66-1.1.51-1.22,1.06-1.55,2.46-1.48,5-2.84,7.42-4.36,1.11-.69,1.64-.62,2.34.56,1.9,3.18,2,3.14-1.29,5l-5.7,3.29Z"/><path class="cls-2" d="M274.9,54.5c.38,1.21-.43,1.27-1.07,1.39-3.09.58-6.18,1.11-9.26,1.69-1,.17-1.33-.19-1.59-1.1-1.06-3.84-1.05-3.89,2.91-4.57a50.19,50.19,0,0,0,5.75-1.06c2.05-.6,3-.18,3,2.06A8,8,0,0,0,274.9,54.5Z"/><path class="cls-2" d="M261.62,68.7c.57.31.95.5,1.32.71,2.48,1.44,4.93,3,7.46,4.3,1.19.63,1.42,1.23.6,2.31a12.88,12.88,0,0,0-1.27,2.19c-.39.8-.8.86-1.57.4q-4.12-2.46-8.35-4.79c-.83-.47-1.09-.93-.47-1.73C260.17,71,260.47,69.52,261.62,68.7Z"/><path class="cls-2" d="M219.26,30.53c2.26,2.69,4.45,5.38,6.74,8,.82.93.69,1.43-.2,2.22-2.86,2.52-2.83,2.56-5.25-.35a36.22,36.22,0,0,0-3.44-4c-2.07-1.86-1.72-3.21.48-4.51A16.21,16.21,0,0,0,219.26,30.53Z"/><path class="cls-2" d="M256.83,43A22,22,0,0,1,253.38,40c-.7-.94.66-1.54,1.17-2.19,1.61-2.06,3.4-4,5-6,.81-1.06,1.42-1.16,2.33-.21a15.91,15.91,0,0,0,1.92,1.65c.67.5.81.93.2,1.63-2.15,2.49-4.25,5-6.38,7.54A6.48,6.48,0,0,1,256.83,43Z"/><path class="cls-2" d="M234.31,82.42c-.43,1.22-.78,2.26-1.16,3.29-.54,1.5-1.1,3-1.65,4.49-1.17,3.18-2.31,3.48-5.35,1.67-1-.56-.54-1.1-.34-1.66.92-2.62,2-5.18,2.8-7.84.55-1.91,1.43-2.24,3-1.32C232.52,81.55,233.78,81.42,234.31,82.42Z"/><path class="cls-2" d="M242.54,29.87a26.09,26.09,0,0,0,0,3.31c.28,2.13-.31,2.94-2.69,2.87-2.1-.06-2.79-.54-2.63-2.67a64.74,64.74,0,0,0,0-7.63c-.06-1.41.32-1.88,1.8-1.86,3.49,0,3.49-.06,3.49,3.44Z"/><path class="cls-2" d="M240.12,42.2A17.06,17.06,0,1,0,240,76.32a17.06,17.06,0,0,0,.16-34.12Zm-.21,28.73a11.74,11.74,0,1,1,11.73-11.59A11.71,11.71,0,0,1,239.91,70.93Z"/><path class="cls-2" d="M195.43,229.84c-.64-.43-1.12-.81-2-.24-10.7,7.06-12.26,18.81-4.79,26.75,2.36,2.5,3.29,4.86,2.93,8-.06.51,0,1,0,1.53-.26,2.14.17,3.57,2.84,2.78,2.22.72,2.78-.34,2.61-2.41-.15-1.77,0-3.57-.05-5.35a3.17,3.17,0,0,1,1.11-2.64C207.48,249.24,206.32,237.05,195.43,229.84Zm-.23,24c-.68.71-1.09.67-1.83,0a11.62,11.62,0,0,1,0-17.34c.73-.63,1.14-.69,1.81,0,2.39,2.46,4,5.24,4,8.78S197.5,251.42,195.2,253.82Z"/><path class="cls-2" d="M147.74,229.75c-.59-.37-1-.69-1.78-.2-10.6,6.93-12.59,18.76-4.63,27.11,2,2.14,3.3,4.14,2.7,6.49,0,1.86,0,3.14,0,4.41,0,.48-.16,1.16.56,1.2,1.44.06,3,.34,4.29-.12s.43-1.95.5-3a37,37,0,0,0,0-4.59,3.36,3.36,0,0,1,1.25-2.85C160,249.33,158.64,236.56,147.74,229.75Zm-.23,24.18c-.66.67-1,.45-1.66,0-5.26-4.27-5.21-13.29.08-17.49.66-.52,1-.58,1.63,0a11.37,11.37,0,0,1-.05,17.48Z"/><path class="cls-2" d="M245.3,235.39c-.56-.35-1-.74-1.77-.21-5.48,3.84-9.34,8.62-9.42,15.68,0,4.2,1.26,8.11,4.28,10.83s3.55,5.48,3.18,9c0,.34.05.69,0,1-.37,2.17.35,2.91,2.69,2.85,2.15-.06,3.08-.43,2.77-2.77-.22-1.67,0-3.4-.07-5.09a3.34,3.34,0,0,1,1.23-2.85C257.52,255,256.2,242.2,245.3,235.39Zm-.15,24.11c-.73.76-1.17.51-1.84-.08a11.56,11.56,0,0,1-.1-17.15c.72-.67,1.2-1,2-.09,2.28,2.42,3.88,5.11,3.91,8.54S247.52,257,245.15,259.5Z"/><path class="cls-2" d="M265.88,188.07c-.64-.42-1.12-.83-2-.26-11,7.23-12.18,19.18-4.52,27.13,2.08,2.15,3.24,4.19,2.66,6.51,0,1.79,0,3,0,4.17,0,.91.2,1.31,1.25,1.41,4,.39,4.13.34,4.13-3.57,0-1.45.07-2.89,0-4.33a3.07,3.07,0,0,1,1.14-2.62C277.93,207.54,276.77,195.23,265.88,188.07Zm-.24,24c-.68.72-1.12.63-1.85,0a11.61,11.61,0,0,1,0-17.32c.75-.66,1.17-.65,1.83,0a12.45,12.45,0,0,1,3.94,9.06C269.64,206.8,268,209.57,265.64,212Z"/><path class="cls-2" d="M168.26,180.64a1.78,1.78,0,0,0-2.25-.16c-10.18,6.06-12.28,18.79-4.15,27.12,2.07,2.12,3,4.12,2.53,6.31a22.27,22.27,0,0,1,0,3.13c-.38,2.21.61,2.54,2.63,2.6,2.31.07,3-.64,2.72-2.84-.18-1.59,0-3.23-.06-4.83a3.57,3.57,0,0,1,1.35-3.06C180.26,200.11,179,187.59,168.26,180.64ZM168,204.53c-.92.83-1.38.51-2.08-.14a12.15,12.15,0,0,1-3.73-8.39c-.08-3.46,1.49-6.18,3.77-8.62.73-.79,1.23-.8,2.07,0A11.62,11.62,0,0,1,168,204.53Z"/><path class="cls-2" d="M237.9,134.71c-.64-.42-1.13-.84-2-.26-10.89,7.14-12.21,19.16-4.5,27.1,2.07,2.13,3.29,4.15,2.7,6.49,0,1.87,0,3.14,0,4.42,0,.67.16,1,.94,1.19,3.4.72,4.36,0,4.36-3.32,0-1.52.07-3.06,0-4.58a3,3,0,0,1,1.18-2.6C250,154.33,248.78,141.83,237.9,134.71Zm-.16,23.84c-.73.77-1.23.78-2.05,0a11.57,11.57,0,0,1,0-17.11c.77-.71,1.27-.86,2,0,2.25,2.43,3.86,5.12,3.82,8.55S240,156.14,237.74,158.55Z"/><path class="cls-2" d="M215.41,180.35a1.24,1.24,0,0,0-1.61,0c-10.55,6.9-12.38,18.54-5,26.45a10.67,10.67,0,0,1,3.12,9c0,.42.05.85,0,1.27-.3,1.94.4,2.52,2.45,2.59,2.48.08,3.36-.64,3-3.1-.18-1.25.06-2.55-.05-3.81a4.81,4.81,0,0,1,1.8-4.38c3.51-3.2,5.57-7.21,5.7-13.63C224.81,189.11,221,184.23,215.41,180.35Zm.13,24.23c-.76.64-1.16.6-1.87,0a12.66,12.66,0,0,1-3.91-8.53c0-3.53,1.57-6.3,3.93-8.77.68-.71,1.14-.62,1.87,0A11.63,11.63,0,0,1,215.54,204.58Z"/><path class="cls-2" d="M190.34,134.73c-.64-.43-1.12-.89-2-.3-11.16,7.35-12.07,19.36-4.55,27.08,2.08,2.15,3.27,4.16,2.66,6.49a20.2,20.2,0,0,1,0,2.89c-.36,2.24.49,2.82,2.75,2.84s3-.67,2.72-2.86c-.18-1.68,0-3.39,0-5.09a3.12,3.12,0,0,1,1.1-2.63C202.35,154.3,201.19,141.93,190.34,134.73Zm-.31,24c-.72.75-1.16.55-1.85,0a11.66,11.66,0,0,1,.06-17.33c.77-.65,1.21-.6,1.86.08,2.3,2.4,3.87,5.12,3.93,8.28A12.58,12.58,0,0,1,190,158.7Z"/><path class="cls-2" d="M104.68,97.45c-2.29,0-4.6-.11-6.88,0-2.1.12-1.64-1.34-1.51-2.37s-1.07-3,1.47-2.93c4.68,0,9.35,0,14,0,2.34,0,1.32,1.75,1.37,2.76s.84,2.57-1.34,2.52C109.44,97.4,107.06,97.45,104.68,97.45Z"/><path class="cls-2" d="M55.37,88.2a13.23,13.23,0,1,0,13.19,13.27A13.25,13.25,0,0,0,55.37,88.2Zm-.12,21a7.79,7.79,0,0,1-7.72-8,8,8,0,0,1,7.85-7.73,8.1,8.1,0,0,1,7.92,8A7.91,7.91,0,0,1,55.25,109.25Z"/><path class="cls-2" d="M139.32,98.31a10.79,10.79,0,1,0,10.69,11A10.8,10.8,0,0,0,139.32,98.31Zm-.12,16.31a5.53,5.53,0,1,1,5.39-5.58A5.49,5.49,0,0,1,139.2,114.62Z"/><path class="cls-2" d="M274.11,126.15c.08-1.69-1.7-.87-2.6-.87q-57.51-.07-115-.06c-.88,0-1.84.33-2.78-.34.49-.54.94-1,1.38-1.53,7-7.88,7.79-19.79.57-27.41-3.79-4-4.39-7.92-4.13-12.68a21.87,21.87,0,0,0,0-2.29A14.52,14.52,0,0,0,139.24,66.8c-1.5-.28-3-.53-4.5-.82-4.34-.85-4.36-.86-4.33-5.27,0-2.05-.42-4.1,1.63-5.78,2.68-2.21,2.45-2.31.13-4.86-1.13-1.25-1.64-.85-2.78,0-3.39,2.56-5,5.68-4.31,10a26.58,26.58,0,0,1,0,4.2c-5.69-1-11.19-2.08-16.7-3-1.19-.19-1.46-.81-1.75-1.78-1.53-5.11-3.13-10.21-4.71-15.31-1.32-4.27-2.63-8.54-4-13,3.27,0,6.25-.11,9.21,0,1.91.1,2.91-.11,2.76-2.48-.12-1.95-.16-2.88-2.65-2.86-18.79.14-37.58.07-56.37.07-6.64,0-9.88,3.21-9.88,9.79,0,12.75,0,25.5,0,38.26a3.33,3.33,0,0,1-1.71,3.25,28.92,28.92,0,0,0-2.73,46.4c.46.4,1.26.57,1.26,1.6-3.65,0-7.28,0-10.9,0-.61,0-1.63-.41-1.76.48a10.15,10.15,0,0,0,.06,4.29c.33,1.08,1.79.49,2.72.49q71.28,0,142.56,0h3.17c-6.1,14.18-12.06,28-18,41.86a1.77,1.77,0,0,1-1.85,1.33c-9.61,0-19.21,0-28.82,0-.55,0-1.18.19-1.54-.54-.63-1.28.18-6.42,1.21-7.4,9.28-8.76,7.89-21.87-3-28.5a1.42,1.42,0,0,0-1.79-.09c-10.58,7-12.51,18.75-4.63,26.9,2.48,2.57,2.87,5,2.79,8.12,0,1.27-.47,1.55-1.64,1.54-9.35,0-18.71,0-28.06,0-.48,0-1,.14-1.39-.36-.65-.9.14-6.58,1-7.43,9.39-9.1,8.27-21.24-2.64-28.49-.63-.41-1.08-.86-2-.26C72.51,144.3,71,156.35,78.91,164.25c2.4,2.41,2.72,4.75,2.66,7.66,0,1.23-.25,1.83-1.67,1.82-9.36,0-18.71,0-28.06,0-.5,0-1.05.08-1.41-.38-.7-.89.11-6.53,1-7.42,9.41-9,8.26-21.34-2.64-28.49-.63-.41-1.11-.84-2-.25-10.83,7.26-12.37,19.05-4.44,27.1,2.27,2.3,2.75,4.5,2.7,7.38,0,1.72-.53,2.12-2.16,2.1-5.27-.1-10.54-.05-15.81,0-.62,0-1.69-.38-1.81.35a11.11,11.11,0,0,0-.05,4.52c.24,1,1.66.41,2.53.41q61.08,0,122.16,0h2.88c-6.11,14.21-12.08,28-18,41.89a1.75,1.75,0,0,1-1.89,1.27c-2.63-.07-5.27,0-7.9,0-.56,0-1.18.17-1.53-.57-.66-1.42.25-6.43,1.43-7.55,9.09-8.63,7.58-21.76-3.23-28.34a1.39,1.39,0,0,0-1.79-.08c-10.64,7.06-12.45,18.79-4.61,26.9,2.48,2.57,2.85,5,2.78,8.12,0,1.28-.48,1.55-1.64,1.55-9.35,0-18.71,0-28.06,0-.48,0-1,.15-1.39-.35-.72-1,.19-6.65,1.2-7.62,9.28-8.86,7.91-21.78-3-28.46-.63-.39-1-.6-1.79-.12-10.7,7-12.49,19-4.48,27.08,2.49,2.5,2.71,4.94,2.67,7.91,0,1.25-.47,1.59-1.65,1.58-9.35,0-18.7,0-28.05,0-.56,0-1.18.15-1.52-.59-.63-1.37.2-6.36,1.28-7.36,9.32-8.75,7.95-21.74-3-28.48-.62-.38-1-.63-1.79-.13-10.66,7.05-12.52,18.83-4.52,27.09a8.8,8.8,0,0,1,2.75,7.11c-.07,1.84-.39,2.48-2.37,2.42-5.18-.15-10.37-.07-15.56,0-.63,0-1.7-.37-1.83.31a11.3,11.3,0,0,0-.09,4.52c.24,1,1.64.45,2.49.45q50.63,0,101.25,0h3c-6.13,14.24-12.12,28.15-18.08,42.08a1.78,1.78,0,0,1-2,1.13c-7.82,0-15.64,0-23.46,0-.5,0-1.06.14-1.44-.31-.65-.79.08-6.69,1-7.46,9.39-8.28,8.51-20.72-2.28-28.36a2.19,2.19,0,0,0-3.06.08c-11.31,8.1-11,21-2,28.38.85.7,1.42,6.41.82,7.26-.36.51-.9.41-1.39.41H51.7c-.5,0-1,0-1.32-.51-.65-1.14.17-6.46,1.15-7.4,9.38-8.89,8.12-21.64-2.8-28.47-.68-.43-1.17-.7-2-.14-10.91,7.4-12.12,19.2-4.28,27.13a8.77,8.77,0,0,1,2.64,7.15c0,1.71-.39,2.33-2.23,2.29-5.27-.13-10.54-.06-15.81,0-.63,0-1.67-.39-1.8.41a10.17,10.17,0,0,0,0,4.29c.32,1.18,1.75.54,2.66.54,28.74,0,57.47,0,86.2.08,2,0,3.06-.53,3.91-2.5q30.25-70.53,60.62-141c.71-1.65,1.58-2,3.21-2,11.13.07,22.27,0,33.41,0h2.7l-.9,2.12q-19.81,46-39.61,92-10,23.22-20,46.45c-.32.74-1.44,1.71-.41,2.45a8.57,8.57,0,0,0,3.91,1.69c1.06.1,1.1-1.5,1.47-2.37q30.28-70.11,60.47-140.26A2.82,2.82,0,0,1,226,130.5c12.92.08,25.84,0,38.76.06.62,0,1.32-.27,2,.33L266,132.5q-15,34.89-30,69.79-14.83,34.44-29.64,68.87c-.3.7-1.31,1.64-.48,2.25a9.78,9.78,0,0,0,4.13,1.83c.81.12,1-1.41,1.33-2.23q30.24-70.12,60.46-140.27c.32-.74.34-1.8,1.22-2.11C275.63,129.7,274,127.59,274.11,126.15ZM46.41,35.65c0-3.56.93-4.45,4.57-4.47.85,0,1.7.05,2.55,0,1.21-.1,2,.13,1.79,1.61-.38,2.37,1.35,1.84,2.6,1.8s3.17.74,2.82-1.84c-.17-1.23.36-1.58,1.58-1.58q14.28.08,28.56,0c1,0,1.54.17,1.85,1.2q4.2,13.86,8.46,27.71c0,.14,0,.33-.11.64-3.11,0-6.25.12-9.38,0-2-.11-1.84,1.16-1.62,2.27s-1.23,3.19,1.49,3.17a2.09,2.09,0,0,0,.25,0c14.11-1,27.62,2.83,41.33,5a61.84,61.84,0,0,1,6.48,1.28,8.62,8.62,0,0,1,6.43,8c.12,2.29,0,4.58.07,6.88,0,.95.06,1.47-1.35,1.2-12-2.35-20.16,1.81-25.62,13.05a1.76,1.76,0,0,1-1.94,1.13c-10.37,0-20.74,0-31.1,0-1.7,0-1.63-.86-1.69-2-.71-14.41-10.18-25.35-24.32-28a25.5,25.5,0,0,0-11.87.54c-1.56.45-1.85.08-1.87-1.44-.1-5.64-.15-5.64,5.42-5.64,9.69,0,19.38-.1,29.07.07,2.56,0,2.29-1.25,2.38-2.94.1-1.89-.3-2.65-2.45-2.59-6,.17-12.06,0-18.1.1-1.52,0-2-.3-2-1.94.12-5.26-.1-10.54.11-15.8.1-2.37-.71-2.68-2.83-2.78-2.46-.11-2.75.83-2.69,2.9.13,5.19,0,10.37.07,15.56,0,1.4-.1,2.22-1.86,2.06-2.26-.21-5.25.69-6.63-.45s-.41-4.29-.44-6.55C46.36,47.72,46.39,41.68,46.41,35.65Zm8.89,89.52a23.8,23.8,0,1,1,.28-47.59,23.94,23.94,0,0,1,23.6,24.34C79.07,114.62,68.14,125.27,55.3,125.17ZM72.19,125a45.51,45.51,0,0,0,6.08-6.12,24.66,24.66,0,0,0,4.51-8.75c.49-2,1.45-2.23,3.18-2.22q14.51.09,29,0c1.8,0,2.63.2,2.66,2.39.07,5.69,2.62,10.41,7,14.7Zm67,.2a16.12,16.12,0,1,1,16-16A16.09,16.09,0,0,1,139.19,125.18ZM46.68,161.34c-2.28-2.42-3.87-5.12-3.85-8.51s1.5-6.21,3.78-8.63c.71-.76,1.18-.85,2-.07a11.59,11.59,0,0,1,.06,17.15C47.94,162,47.46,162.17,46.68,161.34Zm36.43-.09a11.56,11.56,0,0,1-.06-17c.84-.81,1.35-1,2.21,0,2.26,2.45,3.84,5.15,3.76,8.6s-1.61,6.13-3.9,8.55C84.3,162.25,83.83,161.94,83.11,161.25Zm36.75.19c-2.39-2.46-4-5.23-4-8.91,0-3.31,1.6-6,3.91-8.41.6-.63,1-.8,1.82-.09a11.59,11.59,0,0,1,.07,17.33C121,162,120.58,162.19,119.86,161.44ZM46.63,209.7a12,12,0,0,1-3.81-8.77c0-3.24,1.58-5.93,3.86-8.35.78-.84,1.27-.65,2,.07a11.59,11.59,0,0,1-.06,17.15C47.77,210.61,47.32,210.42,46.63,209.7Zm37.41.47c-2,0-3.37-3.26-4.19-5.63a11.69,11.69,0,0,1,3.42-12c.75-.67,1.19-.64,1.83,0,2.31,2.39,3.93,5.08,3.93,8.53a11,11,0,0,1-.54,3.49C87.56,207,86.3,210.2,84,210.17Zm35.7-.4c-2.31-2.42-3.87-5.13-3.87-8.57s1.56-6.15,3.83-8.57c.73-.78,1.19-.79,2,0a11.56,11.56,0,0,1,0,17.15C121,210.5,120.5,210.56,119.74,209.77Zm-73,48.6A11.62,11.62,0,0,1,46.69,241c.68-.59,1.1-.83,1.86-.07a11.37,11.37,0,0,1,.07,17.32C48,259,47.55,259,46.77,258.37Zm36.57,0c-5.26-4.39-5.25-13.24,0-17.51.7-.56,1.07-.55,1.65,0,2.4,2.44,4,5.2,4,8.75s-1.63,6.31-4,8.73C84.39,259,84,259,83.34,258.41Z"/></g></g></svg>