<svg xmlns="http://www.w3.org/2000/svg" viewBox="0 0 300 300"><defs><style>.cls-1{fill:none;}.cls-2{fill:#fff;}</style></defs><title>chemical</title><g id="Layer_2" data-name="Layer 2"><g id="Layer_1-2" data-name="Layer 1"><rect class="cls-1" width="300" height="300"/><path class="cls-2" d="M238.39,244.43l-61.62-106a6.65,6.65,0,0,1-1.19-3.56c.08-5.64.06-11.29,0-16.94a2.18,2.18,0,0,1,1.4-2.31c7-3.61,10.17-10.38,8.37-17.7-1.72-7-7.85-11.58-15.56-11.59q-20,0-40,0a15.38,15.38,0,0,0-7,29.21,2.32,2.32,0,0,1,1.59,2.44c-.08,5.73,0,11.47,0,17.2a5,5,0,0,1-.75,2.65q-31.23,53.66-62.47,107.3c-7.92,13.52-1.23,31,13.78,35.38.94.27,2,.18,2.77,1H221.24c.18-.14.35-.4.54-.42a21.85,21.85,0,0,0,12.92-6.19C243.17,267,244.58,255.09,238.39,244.43Zm-114-142.69c0-3.12,2.31-5.15,6-5.16q19.57,0,39.16,0c3.71,0,6.05,2,6.07,5.1s-2.34,5.15-6,5.17c-6.57,0-13.14,0-19.71,0s-13,0-19.45,0C126.71,106.84,124.38,104.85,124.36,101.74Zm98.05,168.79a17.7,17.7,0,0,1-5.56.71q-33.43,0-66.87,0-33.94,0-67.9,0A13.73,13.73,0,0,1,68,256.89a13.35,13.35,0,0,1,1.9-6.31q31.6-54.3,63.23-108.61a10.82,10.82,0,0,0,1.53-5.82c-.09-5.74,0-11.47-.06-17.2,0-1.42.33-1.87,1.81-1.86,9.05.07,18.1.09,27.16,0,1.76,0,1.86.68,1.85,2.08-.07,5.56.05,11.12-.07,16.68a11.6,11.6,0,0,0,1.72,6.29Q198.4,196,229.68,249.9C234.52,258.23,231.13,267.68,222.41,270.53Z"/><path class="cls-2" d="M182.35,20.46c-2-.91-4.21-1.13-6.22-2H170c-.32.57-.89.37-1.36.46a23,23,0,1,0,13.73,1.5Zm-9.36,34A12.84,12.84,0,1,1,185.86,41.6,12.85,12.85,0,0,1,173,54.45Z"/><path class="cls-2" d="M120.69,42.65a16.69,16.69,0,1,0,16.47,16.81A16.72,16.72,0,0,0,120.69,42.65Zm-.18,23.1a6.41,6.41,0,1,1,6.39-6.36A6.46,6.46,0,0,1,120.51,65.75Z"/><path class="cls-2" d="M206.31,250.68c-1.62-2.81-3.05-5.3-4.5-7.78-4.32-7.46-8.67-14.9-12.95-22.38-.78-1.35-1.37-1.89-3.14-1.32-8.66,2.81-17.37,1.71-26-.16-8.25-1.77-16.33-4.29-24.67-5.62-6.41-1-12.75-1.08-18.92,1.34a5.2,5.2,0,0,0-3,2.25c-6.21,10.8-12.49,21.56-18.74,32.34-.2.34-.35.72-.64,1.33h27.37c1.88,0,3.76-.05,5.63,0a5.12,5.12,0,1,1,0,10.23c-7.86.06-15.72,0-23.58,0-3.5,0-7,0-10.5,0-8.18-.08-12.47-7.32-8.43-14.44,5.69-10,11.54-19.93,17.33-29.89a12.68,12.68,0,0,0,.88-1.56c3.39-8.79,10.94-11,19.14-12.16,9.78-1.33,19.18,1,28.55,3.26,6.62,1.62,13.2,3.47,20,4.2,5.8.63,11.39.09,16.66-2.67,3.34-1.75,5.86-1,7.78,2.32,7.1,12.16,14.22,24.3,21.19,36.53,4,7-.24,14.35-8.22,14.4-11.36.06-22.72,0-34.08,0-3.28,0-5.52-2.19-5.51-5.14s2.25-5,5.55-5.12c.6,0,1.19,0,1.79,0h31Z"/><path class="cls-2" d="M155.1,255.7a5.12,5.12,0,1,1-5.11-5A5.17,5.17,0,0,1,155.1,255.7Z"/></g></g></svg>