<svg xmlns="http://www.w3.org/2000/svg" viewBox="0 0 300 300"><defs><style>.cls-1{fill:#fff;}.cls-2{fill:none;}</style></defs><title>forestry</title><g id="Layer_2" data-name="Layer 2"><g id="Layer_1-2" data-name="Layer 1"><path class="cls-1" d="M264.83,256.15a81.47,81.47,0,0,0-21.42-12.86c-1.23-.52-1.9-1.06-1.88-2.6.09-9,.05-18,0-27a2.06,2.06,0,0,1,1.4-2.34,47.56,47.56,0,0,0,24-22.6c11.12-21.57,10.65-43.12-1.35-64.23-2.38-4.18-4-8.27-3.89-13.15a34.06,34.06,0,0,0-.93-8c-2-9.87-6.56-18.34-14.54-24.66-14.83-11.76-35.22-8-46.15,8.4-1.12,1.68-2.12,3.44-3.22,5.24-4.6-7.19-5-8.16-5.24-16.35-.37-11-3.29-21.27-9.62-30.39-16.49-23.77-46.79-24.1-63.76-.68-6.92,9.53-10.06,20.34-10.12,32A24.08,24.08,0,0,1,103,92.11c-1-1.68-1.89-3.26-2.89-4.77C87.29,68,62.43,66.73,47.89,84.77c-6.52,8.09-9.5,17.49-9.56,27.84a18.94,18.94,0,0,1-2.89,10.3,63.41,63.41,0,0,0-8.31,50.16C31.24,190.38,40.54,204,57.3,211.45c1.24.56,1.31,1.34,1.31,2.43,0,9.33,0,18.66,0,28a2.36,2.36,0,0,1-1.79,2.6,96.45,96.45,0,0,0-17.18,8.9,55.17,55.17,0,0,0-13.42,12.08c-1.07,1.37-1.7,2.79-.86,4.53a4.18,4.18,0,0,0,4.25,2.34h205.8c11.14,0,22.29,0,33.44,0,2.05,0,4-.08,5.11-2.22s-.06-3.79-1.26-5.44A49.14,49.14,0,0,0,264.83,256.15ZM202.66,103.87a5.22,5.22,0,0,1-.06-3.94,35.83,35.83,0,0,1,5.54-10.18c10.6-13.49,28.28-13.31,38.62.41A34.22,34.22,0,0,1,254,110.82a35.66,35.66,0,0,0,5.42,18.54c11.53,19.31,9.93,45.25-3.68,62.6-5.88,7.5-13.31,12.64-22.91,14.34-1.55.27-1.74-.1-1.74-1.44q.06-13.08,0-26.17a4.89,4.89,0,0,1,1.3-3.25c4.16-5.08,8.27-10.19,12.41-15.28.89-1.1,1.7-2.24,1.43-3.74a3.78,3.78,0,0,0-2.7-3.18,3.89,3.89,0,0,0-4.39,1.42l-8,9.87c0-6.19,0-11.61,0-17A7.2,7.2,0,0,1,232.5,143c3.7-5.2,7.33-10.45,11-15.7,1.86-2.7,1.68-4.88-.46-6.32-2-1.33-4.16-.69-5.9,1.77s-3.65,5.23-5.48,7.86c-.95-.43-.52-1.22-.53-1.81,0-4.32,0-8.64,0-13,0-3.14-1.39-4.74-3.89-4.75s-3.91,1.58-3.92,4.72q0,16.2,0,32.39c0,1.57.18,2.89-2.2,2.35-1.57-.35-2.84.66-3.53,2.09a3.81,3.81,0,0,0,.4,4.16,53.7,53.7,0,0,0,3.84,4.55,5.43,5.43,0,0,1,1.5,4.21c-.07,4.78,0,9.57,0,15-2.61-3-4.75-5.39-6.9-7.81-2.46-2.77-4.63-3.25-6.6-1.47s-1.68,3.89.65,6.54c3.7,4.23,7.38,8.47,11.17,12.61a6,6,0,0,1,1.71,4.65c-.13,3.19-.07,6.39,0,9.59,0,1.36,0,1.95-1.82,1.58-14.3-2.9-23.1-12.17-29.17-24.76-.56-1.18,0-1.76.55-2.5a75.83,75.83,0,0,0,15.12-47.34A79.56,79.56,0,0,0,202.66,103.87ZM233.76,227c0,3.62,0,7.24,0,10.86,0,1.07-.08,1.56-1.43,1.11-3.41-1.13-6.87-2.08-10.33-3.05a1.67,1.67,0,0,1-1.49-1.92q.14-9,0-18.1c0-1.55.68-1.75,1.88-1.5a23.51,23.51,0,0,0,9.49,0c1.5-.3,1.93.24,1.89,1.74C233.7,219.73,233.76,223.35,233.76,227Zm-21,4.82c0,1.42-.21,2-1.83,1.67a245.4,245.4,0,0,0-41.33-4.78c-2.2-.07-2.84-.71-2.79-3,.16-8.37,0-16.75.07-25.13,0-1-.28-1.92,1.16-2.48A55.07,55.07,0,0,0,186,186.54c4.85,9.41,11.28,17,20.25,22.3a4.87,4.87,0,0,0,1.35.75c4.55,1.12,5.7,4,5.27,8.48A120.71,120.71,0,0,0,212.78,231.79ZM105,106.72a68,68,0,0,1,6.82-13.85A28.53,28.53,0,0,0,116,77.32a47.56,47.56,0,0,1,6-23.56c4.72-8.35,11.27-14.64,20.72-17.23,11.92-3.26,24.27,1.62,32.41,12.61a45,45,0,0,1,9,26.78,37.15,37.15,0,0,0,5.69,19.53c15.3,25.14,13.15,58.44-5.17,81.09A45.43,45.43,0,0,1,156,193.36c-1.73.29-2.23,0-2.21-1.82.07-11.31.05-22.62,0-33.93a4.84,4.84,0,0,1,1.2-3.28c5.42-6.61,10.78-13.27,16.18-19.9,1.33-1.65,1.76-3.37.54-5.22a3.69,3.69,0,0,0-4.1-1.51,4.92,4.92,0,0,0-2.79,2.16q-5.21,6.45-10.44,12.86l-.58-.09c0-4.61.43-9.28-.09-13.83A28.11,28.11,0,0,1,160.86,106c3.15-3.62,5.59-7.86,8.33-11.84,1.82-2.64,1.64-5-.43-6.33s-4.12-.73-5.9,1.8c-2.85,4-5.67,8.13-9,12.08V99c0-6.14,0-12.27,0-18.41,0-3.08-1.47-4.77-3.91-4.76S146,77.56,146,80.65q0,21,0,42v3c-1.2-.18-1.56-1.14-2.11-1.79-4.88-5.71-9.71-11.47-14.58-17.19-1.73-2-3.9-2.45-5.67-1.16-2.11,1.53-2.2,3.85-.16,6.29,5.48,6.56,10.68,13.39,16.58,19.56,4.62,4.84,6.78,9.94,6,16.63-.5,4.52-.09,9.13-.09,13.74-1,.18-1.22-.59-1.61-1-3-3.34-5.94-6.74-8.94-10.09-2-2.22-4.25-2.54-6.1-.92s-1.77,4,.14,6.17q7.53,8.56,15.1,17.08a4.79,4.79,0,0,1,1.44,3.44c-.07,5.1-.1,10.2,0,15.29,0,1.68-.42,2-2.06,1.74-15.08-2.57-25.87-11.15-33.55-24C98.48,149.39,97.39,128.43,105,106.72Zm54.06,119.8c0,1.34-.36,1.78-1.74,1.76-4.83-.05-9.66,0-14.49.07-1,0-1.8.15-1.79-1.37.07-8.54,0-17.08.06-25.62,0-.15.14-.31.24-.51a46.11,46.11,0,0,0,16.15.07c1.38-.26,1.57.35,1.57,1.52Q159,214.49,159.1,226.52ZM87.23,213.6a1.91,1.91,0,0,1,1.35-2.12c10.93-4.64,18.8-12.6,24.47-22.86.78-1.42,1.12-1.94,2.6-.58A49.74,49.74,0,0,0,131.57,198a2.32,2.32,0,0,1,1.79,2.62c-.12,4.49,0,9,0,13.47,0,4.15-.09,8.29,0,12.44,0,1.76-.24,2.48-2.27,2.61a285.13,285.13,0,0,0-42.26,5.78c-1.32.29-1.61-.06-1.6-1.34Q87.31,223.58,87.23,213.6ZM43.66,191c-12.89-17.17-14.19-42.9-2.88-61.55a37.06,37.06,0,0,0,5.5-18.79c.28-9.68,3.86-18.19,11.22-24.75,9.36-8.35,22.21-8.12,31.43.39a34.07,34.07,0,0,1,8.83,13.8c.55,1.51,0,2.67-.42,4-8.9,25.37-7,49.62,8,72.23,2.42,3.64,2.42,6.1.31,9.52-3.93,6.33-8.6,11.85-15,15.84a33.68,33.68,0,0,1-13.9,4.75c0-9.5,0-18.91,0-28.32a3.53,3.53,0,0,1,1.1-2.25c2.22-2.76,4.47-5.49,6.67-8.26,1.93-2.44,1.89-4.58,0-6.15s-4-1.16-6,1.2c-.44.51-.87,1-1.69,2,0-6.76,0-13,0-19.25a3.91,3.91,0,0,1,.94-1.78c2.24-3.28,4.51-6.53,6.76-9.8,1.87-2.73,1.81-4.93-.16-6.38s-4.26-.8-6.26,2c-.3.42-.61.83-1.33,1.8V119.92c0-1.56,0-3.11,0-4.67-.08-2.61-1.59-4.21-3.9-4.21s-3.86,1.62-3.87,4.23c0,10.37,0,20.74,0,31.11v4.69c-4.3-5.08-8.19-9.64-12-14.24-1.43-1.71-3.1-2.52-5.23-1.61-2.49,1.07-2.92,4.08-.88,6.51,5.22,6.22,10.43,12.44,15.77,18.56a8.44,8.44,0,0,1,2.44,6.44c-.24,4.37-.07,8.75-.07,13.75l-7.09-8.1c-2.13-2.41-4.37-2.79-6.24-1.08s-1.71,3.87.29,6.16q5.88,6.73,11.84,13.4a4.32,4.32,0,0,1,1.24,3.21c-.09,4.06,0,8.11,0,12.28C58.07,205.11,50,199.4,43.66,191Zm22.71,24.69c0-1.2.43-1.51,1.51-1.3a24.81,24.81,0,0,0,10,0c1.3-.27,1.59.27,1.58,1.51,0,6.55-.06,13.11,0,19.67,0,1.21-.41,1.6-1.48,1.89-3.79,1-7.56,2.17-11.6,3.34C66.4,232.21,66.42,223.93,66.37,215.65Zm-27.88,48.8a6.29,6.29,0,0,1,2.39-2.32c8.91-6.59,19-10.68,29.43-14.11,19.27-6.33,39.1-9.61,59.29-11,20.72-1.42,41.42-1.38,62.07,1.15,19.05,2.34,37.62,6.55,55,15.06a58.3,58.3,0,0,1,15.78,11.2Z"/><rect class="cls-2" width="300" height="300"/></g></g></svg>