<svg xmlns="http://www.w3.org/2000/svg" viewBox="0 0 300 300"><defs><style>.cls-1{fill:#fff;}.cls-2{fill:none;}</style></defs><title>mining</title><g id="Layer_2" data-name="Layer 2"><g id="Layer_1-2" data-name="Layer 1"><path class="cls-1" d="M267.54,67.74a32.19,32.19,0,0,0-15.33,14.09,3.73,3.73,0,0,1-2.91,2.1c-4.79.88-9.23,2.56-12.72,6.15-3.75,3.84-3.91,5.39-1.5,10.1,8.31,16.25,9.52,33,3.48,50.25a9,9,0,0,0,.33,7.61c4.8,9.85,2.52,19-6.13,24.84a10.86,10.86,0,0,0-4.12,5.18c-2.64,6.41-9.41,12.74-19.1,10.85A44.87,44.87,0,0,1,195,193a6.86,6.86,0,0,0-4.35-1.26c-20.76,2.19-36.73,11.64-46.33,30.65a2.1,2.1,0,0,1-2.78,1.34,24.64,24.64,0,0,0-26.67,12.25,2.38,2.38,0,0,1-2.42,1.49,48.28,48.28,0,0,0-10.66,1c-17.15,3.32-29.4,12.37-34.47,29.72-1.06,3.64-.75,4.61,2.16,6.84H268.65a7.29,7.29,0,0,0,6.35-6.34V69.47C272.6,66.35,271.3,66,267.54,67.74Zm-3.58,199q-92.23-.11-184.47-.05H76.62a31.15,31.15,0,0,1,17.6-17.58,48.57,48.57,0,0,1,21-3.39c3.59.16,4.34-.33,5.78-3.55a17.52,17.52,0,0,1,22.32-9.53c3.73,1.33,5.32.61,6.84-3,6.86-16.36,19.08-26,36.5-29.17a8.94,8.94,0,0,1,6.51,1,41.29,41.29,0,0,0,16.15,5.78,25.18,25.18,0,0,0,26.64-15,6.33,6.33,0,0,1,1.9-2.73c11.39-8.57,14.67-20.53,9.18-33.65a5.43,5.43,0,0,1-.11-4.13,70.72,70.72,0,0,0-3.51-53.55c-.86-1.8-.67-2.68,1-3.61a18.43,18.43,0,0,1,8.48-2.71,5.48,5.48,0,0,0,5.65-4,19,19,0,0,1,8.1-9.76v2.46q0,91.75.06,183.5C266.74,266.27,266.13,266.74,264,266.74Z"/><path class="cls-1" d="M215.94,99c-11.06-16.26-26-28.26-42.7-38.24-1.71-1-3.22-1.89-3.51-4.17a4.92,4.92,0,0,0-2.47-3.5c-1.48-.85-1.3-1.7-.61-2.93,1.58-2.8,2.68-5.73,2.15-9-1.21-7.72-14.48-16.18-22.45-14.34a12.72,12.72,0,0,0-9.19,8c-.68,1.61-1.35,2.52-3.37,1.71a4.92,4.92,0,0,0-4.27.34c-1.64,1-3,.45-4.51-.19C108.38,29.65,91.21,25.13,73.07,25a66.73,66.73,0,0,0-10.48.51c-12.79,1.53-24.37,6-34.31,14.32a9,9,0,0,0-2.75,3.66c-1.73,4.51.69,10.82,8.61,11.28a192.83,192.83,0,0,1,72.11,18.74c1.67.79,3,1.58,3.32,3.66a4.72,4.72,0,0,0,2.27,3.35c1.77,1,1.38,2,.65,3.48Q91,126.79,69.68,169.56C62.85,183.2,56,196.82,49.24,210.5c-3,6.13-2.63,12.23,1.53,17.68a15.82,15.82,0,0,0,16.36,6.3c6-1.1,9.83-4.87,12.5-10.21q31.28-62.67,62.61-125.33c.7-1.4,1.18-2.51,3.14-1.61A5.35,5.35,0,0,0,150.1,97a3.14,3.14,0,0,1,3.35.23,195.78,195.78,0,0,1,59.28,46.88c3.19,3.71,6.46,4.8,10.05,3.46s5.2-4.3,5.36-9C228.66,123.94,224.05,110.9,215.94,99ZM149.05,34.82a4.54,4.54,0,0,1,2.3.68c1.74.86,3.46,1.75,5.2,2.62,4.61,2.3,5.25,5.11,2.23,9.32-.52.72-.91.67-1.58.33-4.25-2.15-8.52-4.28-12.77-6.42-.33-.17-.74-.25-.8-.78C143.4,38.5,146.88,34.79,149.05,34.82ZM112.52,65.39c-.7,1.45-1.26,1.38-2.51.78A205.06,205.06,0,0,0,48.06,47.68a131.36,131.36,0,0,0-14.51-1.29A51.38,51.38,0,0,1,55.68,35.32C70.45,31.86,85.05,33.45,99.56,37A162.29,162.29,0,0,1,121.27,44c1.37.55,1.42,1,.81,2.23C118.84,52.61,115.61,59,112.52,65.39Zm22.56,29.36q-17.85,35.52-35.6,71.11-13.76,27.51-27.51,55c-1.63,3.27-4.06,5.18-7,5.33-7.11,0-11-6.35-8.14-12.26,4.34-8.89,8.82-17.71,13.24-26.56q24.87-49.71,49.68-99.45c1.09-2.19,1.92-2.26,3.85-1.17,3.46,1.94,7,3.67,10.65,5.34C135.69,92.78,135.78,93.36,135.08,94.75Zm12.88-7c-.69,1.41-1.33,1.39-2.58.75q-13.22-6.69-26.53-13.25c-1.37-.68-1.37-1.26-.73-2.52C122.61,63.87,127,55,131.44,46.17c.26-.53.62-1,.9-1.49.58.26.95.42,1.31.6,8.92,4.46,17.81,9,26.76,13.35,1.44.7,1.43,1.28.8,2.54Q154.51,74.4,148,87.7Zm71.75,51.52c-2.82-3.08-5.34-5.93-8-8.68a202.15,202.15,0,0,0-53.33-40.1c-1.61-.84-1.93-1.49-1.06-3.16,3.19-6.11,6.21-12.31,9.29-18.48.47-.93.67-1.93,2.21-1,16.53,10.12,31.41,22,41.91,38.67C217.29,116.84,220.37,128.07,219.71,139.22Z"/><path class="cls-1" d="M195.13,164.84a41.19,41.19,0,0,0-2.92-7.19c-3.3-6.69-7.62-8.76-14.85-7.11-9.64,2.21-15.5,9.63-14.63,18.55.84,8.64,6.6,14.2,16,14.18a25.05,25.05,0,0,0,9.05-2.38C194.44,177.82,197.1,171.89,195.13,164.84Zm-9.52,7.59a17.76,17.76,0,0,1-9.44,2.61c-1.7.15-3.35-1.49-4.37-3.91-1.13-2.7-1.78-5.52.28-8a13.65,13.65,0,0,1,8.54-4.7,2.79,2.79,0,0,1,3.32,1.4,37.4,37.4,0,0,1,3.43,8.27A3.71,3.71,0,0,1,185.61,172.43Z"/><path class="cls-1" d="M250.07,200.12a3.79,3.79,0,0,1,2.67,1c1.51,1.47,3.08,2.89,4.47,4.47a4.1,4.1,0,0,1-5.79,5.81,53.75,53.75,0,0,1-4.48-4.45,3.85,3.85,0,0,1-.59-4.54A3.91,3.91,0,0,1,250.07,200.12Z"/><path class="cls-1" d="M137.4,250a3.46,3.46,0,0,1-.94,2.68c-1.47,1.52-2.9,3.09-4.47,4.49a4.11,4.11,0,0,1-5.9-5.7,49.78,49.78,0,0,1,4.65-4.65,3.76,3.76,0,0,1,4.34-.52A3.84,3.84,0,0,1,137.4,250Z"/><path class="cls-1" d="M195.89,222.65c0-.65,0-1.3,0-2a4.13,4.13,0,0,1,8.23-.29,27.32,27.32,0,0,1,0,4.87,4.07,4.07,0,0,1-4.22,3.85,4,4,0,0,1-4-4C195.84,224.28,195.89,223.46,195.89,222.65Z"/><path class="cls-1" d="M186.24,246.15a72.14,72.14,0,0,0-3.08-10,7.83,7.83,0,0,0-9.37-4.67,81.44,81.44,0,0,0-9.26,2.91,7.94,7.94,0,0,0-4.86,9.69c.79,2.89,1.67,5.76,2.65,8.59a8.29,8.29,0,0,0,7.76,5.63c1.9,0,11.34-2.93,12.89-4.1C185.65,252.2,187,249.46,186.24,246.15Zm-9.4,1.77c-2.15.69-4.84,2.39-6.34,1.66-1.74-.84-1.61-4.12-2.44-6.29-.41-1.06,0-1.46,1-1.63.55-.09,1.07-.38,1.62-.49,1.68-.37,3.94-2.16,4.86-1,1.42,1.75,1.68,4.45,2.26,6.21C178.07,247.77,177.3,247.77,176.84,247.92Z"/><path class="cls-1" d="M237.26,227c-2.8-1-5.66-2-8.55-2.75-3.63-1-7.43.31-9.14,3.4-2.12,3.85-3,8.18-4,11.9a8.53,8.53,0,0,0,5.68,8.51c2.67.93,5.39,1.77,8.11,2.53a8.15,8.15,0,0,0,10.34-5.24c1-2.74,1.83-5.54,2.59-8.35A8,8,0,0,0,237.26,227Zm-3.12,8.55c-.12.3-.16.63-.25.94-1.94,6.69-2.2,6.81-8.68,4.1-.58-.25-1.29-.34-1-1.29q1-3.1,2-6.24c.15-.47.44-.63,1-.57,2.1.66,4.34,1.34,6.56,2.07C234.25,234.75,234.32,235.14,234.14,235.59Z"/><rect class="cls-2" width="300" height="300"/></g></g></svg>