<svg xmlns="http://www.w3.org/2000/svg" viewBox="0 0 300 300"><defs><style>.cls-1{fill:none;}.cls-2{fill:#fff;}</style></defs><title>oil_gas</title><g id="Layer_2" data-name="Layer 2"><g id="Layer_1-2" data-name="Layer 1"><rect class="cls-1" width="300" height="300"/><path class="cls-2" d="M222.14,93.68c-4.6,0-4.58,0-3.22-4.54a15.46,15.46,0,0,1,6-8.43c1.15-.81,1.61-1.1.15-2.19a5.26,5.26,0,0,0-4.77-1.16A12.71,12.71,0,0,1,212,76.23a3.94,3.94,0,0,0-3.73,0,9.79,9.79,0,0,1-4.33,1.15c-2.88-.19-4.54,1-6.43,3.12a14.8,14.8,0,0,1-15.33,4.57,8.55,8.55,0,0,0-4.38,0A15.93,15.93,0,0,1,158.05,66.9a4.09,4.09,0,0,0-1-3.81c-1-1.17-1.41-3.39-2.56-3.8s-2.78,1.1-4.27,1.5C143.71,62.54,138,61,133.52,56S128.1,45.13,130.83,39s7.71-9.28,14.42-9.63a5.12,5.12,0,0,0,3-.88,15.76,15.76,0,0,1,20.33,1.09c1.06.94,1.49.92,2.53,0a15.72,15.72,0,0,1,19.51-1.64,2.22,2.22,0,0,0,2.81,0,15.73,15.73,0,0,1,15.15-1.13,3.42,3.42,0,0,0,3,0A15.88,15.88,0,0,1,233.36,36c.51,1.42.9,1.88,2.57,1.58a15.89,15.89,0,0,1,18.46,15,6.8,6.8,0,0,0,1.25,3.9A15.25,15.25,0,0,1,257.09,72a4.23,4.23,0,0,0,0,3.22A13.82,13.82,0,0,0,262,82.64c2.73,2.21,4,5.53,4.45,9,.19,1.32.16,2.38-1.68,2a6.35,6.35,0,0,0-1.51,0c-2.65.16-5.13.45-5.62-3.41-.24-1.85-2.11-3.21-4-3.92a4.57,4.57,0,0,1-3.24-5,7,7,0,0,0-1.82-4.83c-1.64-2-1.54-3.85,0-5.91,2.8-3.75,2.56-7.66-.69-10.85A5.31,5.31,0,0,1,246.24,55c.71-7.39-4.91-11.44-11.77-8.56a5.83,5.83,0,0,1-8.25-5.1,7.66,7.66,0,0,0-4.33-7.1,7.42,7.42,0,0,0-8.5.79c-2.18,1.69-4.1,1.74-6.36.1-3.86-2.78-8.09-2.2-11.27,1.31-2.62,2.89-4.91,2.89-7.54-.05-2.33-2.6-5.12-3.71-8.57-2.67a7.64,7.64,0,0,0-5.71,6.9c-.24,1.93-.62,3.63-2.65,4.45-2.67,1.07-5.23-.66-5.51-4A8.28,8.28,0,0,0,162.72,35a7.78,7.78,0,0,0-10.53.62,5.73,5.73,0,0,1-5.61,1.81,7.76,7.76,0,0,0-8.42,5,8,8,0,0,0,3,9.54c3.1,2.1,7.17,2.11,9.7-.65,2.37-2.59,5-2.35,7.8-1.77a3.49,3.49,0,0,1,3,3.28,9.46,9.46,0,0,0,4.16,7.63c1.83,1.28,1.92,3.16,1.08,5.17-1.67,4-1.23,7.25,1.43,9.67a7.79,7.79,0,0,0,9.52,1.21,4.64,4.64,0,0,1,4.11-.06c5.52,2.24,9.51.61,11.8-4.76,1.14-2.69,2.71-3.52,5.56-2.65a8.21,8.21,0,0,0,8-1.49,4.17,4.17,0,0,1,5.72,0,7.82,7.82,0,0,0,8.93,1A4.13,4.13,0,0,1,227.7,70a9,9,0,0,0,4.38,3.2c2.78,1,3.55,2.7,2.81,5.53a3.93,3.93,0,0,0-.24,1c.14,3.77-1.43,6.26-5.07,7.66a4.8,4.8,0,0,0-2.84,4c-.2,2.4-1.5,2.59-3.34,2.39C223,93.64,222.56,93.68,222.14,93.68Z"/><path class="cls-2" d="M199.63,154c2.35,0,4.7,0,7.05,0a12,12,0,0,1,11.85,11.88c.08,4.86,0,9.72.06,14.57,0,1.51-.52,1.73-1.86,1.74-6.24.06-6.24.1-6.24-6.12,0-3.18,0-6.36,0-9.54,0-2.94-1.57-4.45-4.54-4.48-4.61,0-9.23-.07-13.84,0-1.41,0-1.79-.36-1.81-1.79-.07-6.29-.13-6.29,6.07-6.29Z"/><path class="cls-2" d="M146,154.05a36.21,36.21,0,0,0-.51,72.41c20.13.14,36.62-16,36.72-35.82A36.26,36.26,0,0,0,146,154.05Zm-.22,64.36a28.16,28.16,0,1,1,28.37-28.18A28.23,28.23,0,0,1,145.82,218.41Z"/><path class="cls-2" d="M159.44,185.47c-3.26-4.55-6.63-9-10.06-13.46-1.87-2.41-4.84-2.5-6.67-.13-3.6,4.62-7.22,9.23-10.46,14.1a15.6,15.6,0,0,0,1.24,18.48,16.14,16.14,0,0,0,28.6-10A15.07,15.07,0,0,0,159.44,185.47ZM153,198.23a7.72,7.72,0,0,1-6.4,4.09c-6.68,0-10.66-6.53-7.61-11.79,1.79-3.08,4.2-5.81,6.3-8.72.59-.83,1-.65,1.48.06,2,2.76,4.2,5.42,6.08,8.28A7.3,7.3,0,0,1,153,198.23Z"/><path class="cls-2" d="M275,256c0-4.1-1.3-5.52-5.43-5.32-2.25.11-2.69-.55-2.69-2.72q.11-68.42.05-136.81c0-4.11-1.29-5.4-5.41-5.4H224c-4.13,0-5.41,1.27-5.42,5.38v29.39a30.27,30.27,0,0,0-5.07-1.56c-2.45-.31-3.11-1.37-3.06-3.84.16-8.37-4.84-13.27-13.22-13.27H153.86c-3.78,0-3.8,0-3.85-3.71s-1-7.46-4.25-9.17c-4-2.15-4-5.22-3.83-8.83.11-1.92,0-3.86,0-5.78-.09-16.62-12.32-28.81-29-28.84-18.31,0-36.63,0-54.94,0a29.73,29.73,0,0,0-7.22.81C37.5,69.63,29.06,80.62,29.06,94.68q0,76.45,0,152.91c0,.59,0,1.18,0,1.76,0,.73-.06,1.16-.95,1.41-2.38.67-3.15,2.45-3.11,4.82.07,4.52,0,9,0,13.58s1.22,5.6,5.71,5.6H269.36c4.43,0,5.63-1.22,5.64-5.69ZM232.79,113.8c8.06,0,16.12,0,24.18,0,1.54,0,2.1.34,1.92,1.92-.22,2,.82,4.59-.39,5.8s-3.81.32-5.8.35c-3.36.06-6.72,0-10.08,0-4.79,0-9.57,0-14.36,0-1.3,0-1.65-.34-1.68-1.66C226.44,113.8,226.4,113.8,232.79,113.8Zm26.07,18.48q0,40,0,79.95c0,6.87,0,13.75,0,20.62,0,1,.08,1.71-1.37,1.7-10.22-.06-20.45,0-31.27,0,4.68-5,7.42-10.36,8.17-16.62a41.93,41.93,0,0,0,.26-5c0-15-.06-30,0-45,0-7.77-2-14.68-7.29-20.51a3.07,3.07,0,0,1-.82-2.26c0-4.53.06-9.06,0-13.58,0-1.32.36-1.67,1.68-1.67,9.65.06,19.31.1,29,0C259.47,129.82,258.86,131.18,258.86,132.28Zm-6.08,118.33c-8,0-16-.07-23.93.06-2,0-2.31-.55-2.28-2.36.1-5.74,0-5.74,5.88-5.74h10.33c4.7,0,9.41,0,14.11,0,1.39,0,2,.12,2,1.83C258.93,250.62,259,250.61,252.78,250.61Zm-26.17-83.43q0,23.13,0,46.26c0,12.52-8.64,21.06-21.25,21.07q-29.72,0-59.44,0H87c-13.22,0-21.63-8.45-21.64-21.7q0-22.75,0-45.5c0-12.75,8.54-21.32,21.25-21.33q59.44,0,118.88,0C218,146,226.59,154.6,226.61,167.18Zm-8,82c0,1.09-.3,1.36-1.39,1.42-6.76.37-6.73.4-6.72-6.37,0-1.41.14-2.19,1.87-2.43a40.64,40.64,0,0,0,6.22-1.83C218.55,243.24,218.51,246.24,218.57,249.23Zm-16.09-4.4c-.12,5.78,0,5.78-5.86,5.78q-52.27,0-104.56.06c-2.09,0-2.65-.47-2.59-2.57.17-5.53,0-5.53,5.61-5.53H146c18.05,0,36.11,0,54.17,0C202,242.51,202.51,242.94,202.48,244.83ZM53.24,171.66q0-38.08,0-76.17c0-4.67,1.13-5.83,5.72-5.84h53.14c4.45,0,5.64,1.21,5.64,5.67,0,3.18,0,6.37,0,9.55,0,.78.19,1.51-.9,2-5.17,2.5-7.48,6.79-7.11,12.43.13,2.12-.5,2.65-2.58,2.56-4.36-.18-8.73-.08-13.1-.05-7.38.05-12.51,5.13-12.59,12.44a1,1,0,0,0,0,.25c.52,2.76-.48,3.83-3.39,4.55a27.64,27.64,0,0,0-20.76,26.48c-.13,16.17-.09,32.34,0,48.52a28,28,0,0,0,22.39,27.78c1.49.34,1.91.82,1.81,2.24-.14,2.07.67,4.78-.37,6.07s-3.92.39-6,.41c-6.55.06-13.1-.06-19.65.08-1.93,0-2.29-.51-2.29-2.34C53.27,222.77,53.24,197.21,53.24,171.66ZM197.58,129.9a5.27,5.27,0,0,1,4.82,7.46c-.45,1.13-1.45.55-2.17.55q-25.42.06-50.85,0h-3.53c-17.62,0-35.24,0-52.86-.06-1.12,0-3,1.21-3.42-1-.62-3.68.43-6,2.81-6.76a6.87,6.87,0,0,1,2-.2Q146,129.89,197.58,129.9Zm-55.66-8.49c-.37.7-1,.42-1.55.42-3.51,0-7,0-10.54,0s-7,0-10.55,0c-1.17,0-1.52-.28-1.56-1.51-.18-5.28,1-6.56,6.25-6.56,4.52,0,9,0,13.56,0C141,113.87,143.57,118.32,141.92,121.41ZM37.12,94.66c0-11,6.69-19,17.22-20.86a22.41,22.41,0,0,1,3.76-.23q27.33,0,54.67,0c12.43,0,21.06,8.61,21.11,21,0,3.27,0,6.54,0,9.81,0,1.06-.24,1.6-1.38,1.41a2.09,2.09,0,0,0-.25,0c-6.45.23-6.45.23-6.45-6.14,0-2.18.06-4.36,0-6.54a11.88,11.88,0,0,0-11.54-11.41q-28.73-.16-57.44,0c-6.7,0-11.62,5.54-11.62,12.62q0,38.34,0,76.69t0,76.94c0,2-.24,2.88-2.63,2.79-5.48-.22-5.48-.07-5.48-5.67Q37.12,169.84,37.12,94.66ZM267,268.76H33V258.68H267Z"/></g></g></svg>