<svg xmlns="http://www.w3.org/2000/svg" viewBox="0 0 300 300"><defs><style>.cls-1{fill:#fff;}.cls-2{fill:none;}</style></defs><title>water</title><g id="Layer_2" data-name="Layer 2"><g id="Layer_1-2" data-name="Layer 1"><path class="cls-1" d="M25.42,205.15a61.26,61.26,0,0,1,8.32-25.72L83.66,93c2.61-4.5,6.86-4.79,9.31-.55,17.26,29.88,34.92,59.53,51.59,89.73,17.85,32.35,2.76,73.64-31.33,87.94-3.55,1.48-6.28.79-7.55-1.92s-.07-5.45,3.14-6.81A55.09,55.09,0,0,0,125,251.05c18-16.68,22.73-43.26,10.81-64.71-13.09-23.56-26.83-46.75-40.3-70.1q-3.37-5.86-6.78-11.74c-.88.32-1,1-1.3,1.55q-22.54,39-45.07,78c-12.9,22.46-9.07,49.26,9.42,66.74A54.81,54.81,0,0,0,68.08,261.3c2.83,1.21,4.09,3.23,3.62,5.61-.67,3.3-3.76,4.82-7.19,3.43a62.33,62.33,0,0,1-26.85-20.76,61.76,61.76,0,0,1-12.24-31.11c-.45-.79.16-1.74-.42-2.5v-8.31C25.58,206.9,25,205.94,25.42,205.15Z"/><path class="cls-1" d="M87,275.06c-.31-.22-.62-.45-1-.66a4.86,4.86,0,0,1,2.54-9.08,4.72,4.72,0,0,1,4.52,3.44c.73,2.1-.15,4.24-2.23,5.64-.32.21-.63.44-1,.66Z"/><path class="cls-1" d="M25.42,205.15a2.51,2.51,0,0,1-.42,2.51v-2.44A.87.87,0,0,1,25.42,205.15Z"/><path class="cls-1" d="M25,216c.75.73.55,1.62.42,2.5h-.21l-.21-.06Z"/><path class="cls-1" d="M122.67,208.9c0,21.1-15.12,36.63-33.18,36.84-3.54,0-5.8-1.79-5.87-4.76s2.08-4.86,5.64-5a24.43,24.43,0,0,0,20.92-35.59c-.74-1.47-1.53-2.91-1-4.62a4.81,4.81,0,0,1,4.15-3.64,4.65,4.65,0,0,1,4.87,2.54C121.19,199.92,122.66,205.6,122.67,208.9Z"/><path class="cls-1" d="M268.16,142.57c-12.27-21.4-24.67-42.73-37-64.08-2.86-4.94-7-5-9.8-.09q-18.59,32.14-37.15,64.29a49.83,49.83,0,0,0-6.72,21.67c-2,27.95,20.55,52.07,48.69,52.09A44.73,44.73,0,0,0,237,215.22C269.57,207.44,284.89,171.76,268.16,142.57ZM242.3,203.21a39,39,0,0,1-44.38-8.69c-11.61-12.27-14.33-30.49-6.18-45.15,9.39-16.88,19.24-33.5,28.89-50.23l5.59-9.66L242.13,117c6,10.41,12.13,20.74,18,31.23A39,39,0,0,1,242.3,203.21Z"/><path class="cls-1" d="M180,72.15Q167.31,50,154.48,27.88c-2.29-3.94-6.62-3.92-8.92,0C137,42.64,128.44,57.37,120,72.19a32.38,32.38,0,0,0-3.81,21.17,34.25,34.25,0,0,0,36.38,29.25c17.75-1.33,31.65-16.35,31.61-35.8A31.77,31.77,0,0,0,180,72.15Zm-22.95,39.74a24.54,24.54,0,0,1-25.77-7.76c-6.26-7.45-7.69-18.15-3-26.69C135.28,64.88,142.6,52.53,150,39.65l5.06,8.76c5.39,9.34,10.9,18.62,16.15,28A24.41,24.41,0,0,1,157.06,111.89Z"/><path class="cls-1" d="M245.75,166.42c-.05,11.31-7.81,19.79-17.84,20.68-2.3.2-4.4-.09-5.78-2.23-2.15-3.33.1-7.15,4.39-7.49,5.74-.46,9.73-4.82,9.44-10.33a11.35,11.35,0,0,0-1.2-4.18c-1.33-2.89-.52-5.61,2-6.88s5.17-.3,6.71,2.5A18.36,18.36,0,0,1,245.75,166.42Z"/><rect class="cls-2" width="300" height="300"/></g></g></svg>