<svg xmlns="http://www.w3.org/2000/svg" viewBox="0 0 300 300"><defs><style>.cls-1{fill:#fff;}.cls-2{fill:none;}</style></defs><title>water resource</title><g id="Layer_2" data-name="Layer 2"><g id="Layer_1-2" data-name="Layer 1"><path class="cls-1" d="M90.84,106.1a46,46,0,0,0-10.56,22.41q-4.87,27.63,14.16,48.36c.22.24.46.46.67.71,1.1,1.3,1.31,2.68,0,3.89s-2.67.83-3.86-.38a56.91,56.91,0,0,1-13.38-21q-10.25-29,6.6-54.92l.67-1a4,4,0,0,0,.18-.58l-10.45,3.16c-1.63.49-3.26,1-4.88,1.49a2.59,2.59,0,1,1-1.53-4.94q11.94-3.76,23.94-7.37c2.11-.63,3.52.51,3.54,2.75,0,8.21,0,16.43,0,24.64,0,1.72-.68,2.86-2.54,2.87-2,0-2.6-1.27-2.59-3.06C90.86,117.46,90.84,111.78,90.84,106.1Z"/><path class="cls-1" d="M209.23,105.92c0,5.73,0,11.26,0,16.79,0,1.89-.28,3.52-2.66,3.47s-2.49-1.63-2.48-3.41c0-7.89,0-15.78,0-23.68,0-2.83,1.36-3.84,4.07-3,7.6,2.32,15.18,4.7,22.78,7,1.44.44,2.57,1.11,2.5,2.81-.08,1.86-1.63,2.83-3.69,2.23-4.59-1.35-9.16-2.78-13.73-4.17l-1.57-.44a58.21,58.21,0,0,1,9,18.36c5.9,22,1.31,41.61-14.08,58.55-.87,1-1.72,2.06-3.27,1.72-2.29-.52-2.73-3-.81-5A52,52,0,0,0,216.63,160c7.19-18.44,5.23-35.95-5.7-52.44C210.55,107,210.29,106.23,209.23,105.92Z"/><path class="cls-1" d="M262.36,212.64c-9.06,2.06-17.14.28-24.79-4.82a31,31,0,0,0-17.55-5,34.93,34.93,0,0,0-19.26,5.92c-9.84,6.28-20,6.53-30.19.85-2.21-1.22-4.46-2.31-6.76-3.31-11.73-5.08-22.75-4.52-33.71,2.79-9.79,6.53-20.37,6.19-30.33-.07-13.22-8.28-26.18-8.39-39.31.05a27.68,27.68,0,0,1-21.73,3.76c-7.93-1.75-13.64,2.85-13.65,11,0,12.77.17,25.54-.08,38.31-.12,6.43,2.24,10.76,8.38,12.89H266.7q7.23-1.06,8.3-8.3V220.84C272.47,214.26,268.28,211.29,262.36,212.64ZM30.29,227.86c.17-1.78,0-3.58.07-5.37a5,5,0,0,1,6.23-4.81c10.34,2.44,19.62.25,28.57-5.34,10.18-6.34,20.68-5.93,30.8.49,10.43,6.62,21.3,7.83,32.72,3a37.9,37.9,0,0,0,6.13-3.48,24.57,24.57,0,0,1,22.1-3.05,64.46,64.46,0,0,1,11.35,4.94c12.05,6.56,24,6.12,35.52-1.27a28.86,28.86,0,0,1,25.83-3.3,30.73,30.73,0,0,1,6.9,3.57,33.29,33.29,0,0,0,25.66,4.7c5.13-1.09,7.56.92,7.58,6.15v1.22c0,5.3,0,5.31-5.05,7.18a28.84,28.84,0,0,1-10.44,1.72c-5.58.06-11-2.17-16.24-5.43-10-6.24-20.55-6.94-31.46-2.55a40.7,40.7,0,0,0-5.95,3.3c-10.13,6.2-20.3,6.21-30.67.43-7.83-4.35-16.08-7.43-25.32-6.23a28.71,28.71,0,0,0-12.37,4.82c-11.37,7.57-22.59,7.4-34.19.19-12.1-7.52-24.49-7.23-36.53.36-9.42,5.93-19.05,6.79-29.18,2.08C30.82,230.47,30.12,229.6,30.29,227.86ZM269.6,265.52c-.2,2.34-1.81,3.75-4.14,4.15a17.79,17.79,0,0,1-2.92.11h-225c-5.76,0-7.2-1.44-7.2-7.19v-5.73c9.09,4.13,18,4.57,27,1.1a40.29,40.29,0,0,0,6.88-3.62c10.45-6.51,21-6.66,31.45-.15,13.15,8.21,26.13,8.25,39.06-.28a24.74,24.74,0,0,1,22.33-3,64.46,64.46,0,0,1,11.12,4.85c12.14,6.61,24.07,6,35.75-1.32,10.5-6.62,21.11-6.64,31.67-.19a40.27,40.27,0,0,0,11.73,5.19,33.6,33.6,0,0,0,22.3-2.53C269.66,259.92,269.84,262.74,269.6,265.52ZM268,251.84c-9.75,4.79-19.33,4.42-28.5-1.4-5.77-3.66-11.88-6-18.73-6.12a33,33,0,0,0-19.16,5.41c-10.65,7-21.23,6.92-32.34.71-8.6-4.82-17.84-7.94-28-5.19a35.07,35.07,0,0,0-9.86,4.65c-10.61,6.83-21.34,7-32.06.35-12.87-8-25.64-8.07-38.48.05-9.26,5.87-18.86,6.31-28.75,1.6a2.77,2.77,0,0,1-1.81-3c.11-4.19,0-8.39,0-12.83a37.2,37.2,0,0,0,14.15,3.35,32.59,32.59,0,0,0,18.7-5.28c11.27-7.37,22.37-7.24,33.78-.12,12.1,7.55,24.62,7.54,36.51-.22,8.8-5.74,17.57-6.51,27-2.57,2.69,1.12,5.31,2.38,7.89,3.77,12.09,6.5,23.94,5.9,35.54-1.41,10.49-6.6,21.1-6.69,31.67-.19a39.64,39.64,0,0,0,10.78,5,33.28,33.28,0,0,0,21.26-1.43l2.1-.85c0,4.83,0,9.42,0,14C269.75,251.31,268.71,251.48,268,251.84Z"/><path class="cls-1" d="M187.82,125.49c-9.26-20.54-22-38.79-35.51-56.6-1.42-1.87-3.16-1.77-4.65.15-2.74,3.53-5.45,7.09-8.06,10.72-9.89,13.81-19.38,27.87-26.29,43.47-2.74,6.19-5,12.53-4.69,19.47A41.85,41.85,0,0,0,150,182.34c2.34-.24,4.7-.38,7-.75C181.4,177.63,199.18,150.71,187.82,125.49Zm-37.75,51.45c-20.44,0-36.95-16.92-36.17-37.2.22-5.7,2.45-10.88,4.8-16,6.79-14.65,15.81-27.93,25.18-41,1.7-2.37,3.46-4.71,5.19-7.06.49-.67.9-1.43,1.76-.26,12.47,17,24.71,34.17,32.92,53.83C192.86,151.12,175.28,177.07,150.07,176.94Z"/><path class="cls-1" d="M119,55c-4.37-10.52-11-19.64-17.81-28.63-1.41-1.85-3.17-1.78-4.66.16-6.39,8.3-12.45,16.82-16.84,26.4-1.56,3.39-2.94,6.88-2.81,10.72a22,22,0,0,0,44-.17A19.24,19.24,0,0,0,119,55Zm-8.61,20.2A16.79,16.79,0,0,1,82.15,62.8a13.87,13.87,0,0,1,.8-4c2-6.21,11.28-21.54,16.12-26.64,5.8,8,11.61,16,15.32,25.3A15.6,15.6,0,0,1,110.41,75.21Z"/><path class="cls-1" d="M221.59,55.78C217.11,45,210.4,35.51,203.33,26.3c-1.41-1.82-3-1.76-4.47.1-6.43,8.38-12.55,17-17,26.62-1.52,3.31-2.87,6.73-2.67,10.79a19.19,19.19,0,0,0,.65,4.78A22.15,22.15,0,0,0,207.71,84C219,80.46,226.47,67.55,221.59,55.78ZM212.84,75a16.29,16.29,0,0,1-18,3.55c-6.58-2.85-10.06-8-10.48-15.13-.16-2.72.89-5.26,2-7.7,3.89-8.45,9.16-16,14.8-23.75,5.94,8.29,11.67,16.24,15.43,25.4C219.36,64.05,217.75,69.93,212.84,75Z"/><rect class="cls-2" width="300" height="300"/></g></g></svg>