<svg xmlns="http://www.w3.org/2000/svg" viewBox="0 0 300 300"><defs><style>.cls-1{fill:#fff;}.cls-2{fill:none;}</style></defs><title>wildlife</title><g id="Layer_2" data-name="Layer 2"><g id="Layer_1-2" data-name="Layer 1"><path class="cls-1" d="M216.56,37.37c-2-.09-4.21.71-5-2.44-.39-1.51-2.34-2-4-1.63-2.09.48-3.11,1.91-3.4,4.06-.49,3.65-3.83,5.32-6.54,3.37a4.2,4.2,0,0,1-1.76-3.32,4,4,0,0,0-3.58-4.14,3.85,3.85,0,0,0-4.54,3c-.3,1-.75,1.15-1.62,1.12a29.5,29.5,0,0,0-4.41,0c-2.26.25-2.78-.48-2.23-2.7,2.13-8.62,11.55-12.57,19-7.77a2.32,2.32,0,0,0,3.09,0,12.33,12.33,0,0,1,18.89,7.45c.74,3,.74,3-2.31,3Z"/><path class="cls-1" d="M270.61,58.22c-2.07,0-4.13.5-5-2.49-.43-1.5-2.37-2-4-1.57a4,4,0,0,0-3.24,3.62,5,5,0,0,1-1.44,3.5A4.12,4.12,0,0,1,250,58.71c-.18-2.47-1.19-4.24-3.72-4.58s-4,1-4.57,3.3c-.23.86-.73.79-1.33.79h-3.89c-3.67,0-3.76-.13-2.65-3.74a12.45,12.45,0,0,1,18.54-6.8c1.2.76,1.94,1,3.31.11a12.32,12.32,0,0,1,18.78,7.3c.82,3.13.82,3.13-2.34,3.13Z"/><path class="cls-1" d="M174.89,79.08c-2,0-4.21.6-5-2.47-.36-1.41-2.19-1.89-3.77-1.64a4,4,0,0,0-3.35,2.88,17.54,17.54,0,0,0-.27,1.79c-.49,2.21-1.84,3.58-4.14,3.56a3.81,3.81,0,0,1-4.06-3.6c-.26-2.46-1.18-4.25-3.7-4.61s-4,1-4.6,3.27c-.23.84-.69.83-1.31.82-1.38,0-2.77,0-4.15,0-3.37,0-3.37,0-2.52-3.2a12.33,12.33,0,0,1,18.61-7.34,2.73,2.73,0,0,0,3.53,0,12.37,12.37,0,0,1,18.67,7.65c.52,2,.68,3.45-2.13,2.94A9.93,9.93,0,0,0,174.89,79.08Z"/><path class="cls-1" d="M62.85,33.19c-4.39,0-4.39,0-4.39-4.47,0-3.87,0-3.87,3.94-3.87,4.39,0,4.39,0,4.39,4.47C66.79,33.19,66.79,33.19,62.85,33.19Z"/><path class="cls-1" d="M29.47,58.22c4,0,4,0,4,4.07,0,4.28,0,4.28-4.31,4.28-4,0-4,0-4-4.07C25.16,58.22,25.16,58.22,29.47,58.22Z"/><path class="cls-1" d="M100.1,62.6c0,4,0,4-4.11,4s-4.22,0-4.22-4.12,0-4.23,4.11-4.23S100.1,58.22,100.1,62.6Z"/><path class="cls-1" d="M58.46,95.56c0-4,0-4,4.11-4s4.22,0,4.22,4.12,0,4.23-4.11,4.23S58.46,99.94,58.46,95.56Z"/><path class="cls-1" d="M39.26,45.23c-1.2-1.36-1.9-2.23-2.69-3-3.37-3.41-3.38-3.41,0-6.8,2.51-2.51,2.51-2.51,5.13.11,3.25,3.26,3.23,3.24,0,6.58A33.52,33.52,0,0,0,39.26,45.23Z"/><path class="cls-1" d="M91.88,38.3a3,3,0,0,1-1.31,2c-1.51,1.36-2.71,4-4.43,3.89-1.5-.08-2.81-2.55-4.32-3.81s-1.38-1.85,0-3.14c4.48-4.33,4.41-4.39,8.83.12A9.42,9.42,0,0,0,91.88,38.3Z"/><path class="cls-1" d="M38.85,80.05c.66.6,1.19,1,1.66,1.51,1.43,1.49,3.94,3,3.94,4.5s-2.63,2.9-4,4.46c-1,1.23-1.67,1.16-2.81,0C33.05,85.91,33,86,37.8,81.33A13.35,13.35,0,0,0,38.85,80.05Z"/><path class="cls-1" d="M92,86c-.6.64-1.1,1.2-1.64,1.74-4.16,4.2-4.08,4.11-8.28.16-1.59-1.5-1.65-2.38,0-3.7,1.49-1.16,2.77-3.57,4.16-3.58s2.71,2.31,4.06,3.63C90.84,84.74,91.35,85.32,92,86Z"/><path class="cls-1" d="M264.56,187.84c-4.95-3.68-10.62-5-16.66-4.73-1.71.07-2.21-.43-2.13-2.14a72.34,72.34,0,0,0,0-8.33c-.12-1.83.58-2.17,2.2-2.12a35.79,35.79,0,0,0,9.57-.69c8.14-1.94,14.35-6.28,16.63-14.67S274,139.73,267.65,134a3.45,3.45,0,0,1-1.09-2.71,24.95,24.95,0,0,0-49.79.12c-.18,2.87-2.88,3.46-4,5.43a.79.79,0,0,1-.65-.06c-1.15-2-3.76-2.71-3.95-5.72a24.92,24.92,0,0,0-49.73.33,3.82,3.82,0,0,1-1.36,2.86c-6.09,5.57-8.4,12.53-6.38,20.5s7.52,12.85,15.37,15.07c3.73,1.06,7.57.72,11.37.71,1.35,0,1.81.36,1.77,1.74-.09,3.3-.06,6.61,0,9.91,0,1-.28,1.43-1.33,1.78-9.82,3.36-14.91,10.24-15.34,20.55a12.42,12.42,0,0,1-12.13,12.19c-9.28.12-18.56,0-27.84.07-1.43,0-1.72-.46-1.68-1.77.08-3,.11-6.08,0-9.12-.06-1.45.48-1.73,1.77-1.68,2.25.09,4.51.05,6.76,0a20.76,20.76,0,0,0,19.24-13.44A20.5,20.5,0,0,0,143.11,168a4,4,0,0,1-1.47-3.08,24.93,24.93,0,0,0-49.74-.07c-.19,3-2.89,3.67-4,5.71a.8.8,0,0,1-.64,0c-1.1-2-3.77-2.75-4-5.73a24.92,24.92,0,0,0-49.71-.06,4.94,4.94,0,0,1-1.72,3.49C26,173.92,23.74,180.88,26,188.85c2.27,8.12,7.77,13.1,16,14.94,3.52.78,7.09.34,10.63.41,1.09,0,1.76.05,1.71,1.48-.11,3.21-.08,6.43,0,9.65,0,1.18-.39,1.46-1.49,1.43-2.43-.07-4.86-.06-7.29,0a20.55,20.55,0,0,0-19.93,16.92c-1.1,6.19-.39,12.48-.43,18.72-.09,14.11,8.55,22.74,22.6,22.74H148q50.75,0,101.48,0c14.6,0,25.43-10.9,25.49-25.53q.09-20.59,0-41.2A24.61,24.61,0,0,0,264.56,187.84ZM222.3,139.46c2.25-1.48,2.94-3.24,2.78-5.88-.56-9.31,7.24-17.27,16.64-17.22a16.59,16.59,0,0,1,16.51,17.35c-.12,2.14,0,4.07,2,5.19a12.64,12.64,0,0,1,6,13.53c-1.29,5.08-5.64,8.73-11.77,9.49-2.4.29-4.84.17-7.26.31-1.11.06-1.41-.3-1.51-1.44-.26-3,.16-5.48,3.34-6.95,2.09-1,3.88-2.6,5.87-3.82,1.08-.66,1.56-1.21.6-2.37-1.42-1.7-2.1-4.81-4-5.08-1.6-.24-3.57,2-5.8,3.46,0-2.73-.05-5.05,0-7.38,0-1.13-.36-1.61-1.48-1.47a3,3,0,0,1-.52,0c-6.33-.14-6.33-.14-6.34,6.21,0,.75,0,1.5,0,2.61-.57-.34-.83-.51-1.11-.66-1.71-.92-3.6-3.46-4.88-2.76-1.82,1-2.72,3.66-4.08,5.56-.79,1.11.17,1.35.75,1.74,2.65,1.8,5.34,3.55,8,5.34,1.09.73,1.93,5.6,1.21,6.65-.32.46-.77.33-1.16.32-2.77,0-5.56.07-8.31-.21A12.58,12.58,0,0,1,217,152.55,12,12,0,0,1,222.3,139.46Zm-11,23.77c.52-.52.85-1.69,1.92-.43,5.14,6,11.83,8,19.51,7.79,4.73-.16,4.79,0,4.71,4.66,0,2.58,1.14,6-.48,7.49-1.41,1.26-4.79.32-7.31.33-5.71,0-11.43,0-17.15,0-7.62,0-15.25,0-22.87,0-1.64,0-2.27-.33-2.17-2.1.16-2.86.13-5.73,0-8.59-.06-1.49.41-1.93,1.89-1.89a37.66,37.66,0,0,0,11.08-1A23.44,23.44,0,0,0,211.32,163.23Zm-36.66-1c-2.94,0-5.89.09-8.66-1.21-4.23-2-7-5.16-7.51-9.87a11.66,11.66,0,0,1,5.42-11.61,5.77,5.77,0,0,0,2.9-5.83,16.58,16.58,0,1,1,33.12.15c-.13,2.17.23,3.84,2.15,5.16,5.16,3.55,7.19,8.37,5.89,13.55s-5.74,8.63-11.85,9.39a40.91,40.91,0,0,1-4.15.26c-4.68.08-5.4-.86-4.47-5.47.18-.87.78-1.11,1.31-1.47,2.57-1.76,5.14-3.53,7.79-5.18,1.16-.73,1.66-1.34.61-2.55-1.44-1.65-2-4.78-4-4.94-1.68-.15-3.56,2.05-5.69,3.44,0-2.75-.07-5,0-7.26,0-1.28-.4-1.57-1.62-1.63-6.72-.3-6.72-.34-6.73,6.39V146a29.65,29.65,0,0,1-3.79-2.51c-1.79-1.62-2.66-1-3.8.83-3,4.72-3.05,4.66,1.63,7.78,1.59,1.06,3.16,2.13,4.76,3.16a2.36,2.36,0,0,1,1.24,2.06C179.48,162.22,179.53,162.21,174.66,162.22ZM96.93,173.45a6.73,6.73,0,0,0,3.26-6.69c-.44-9.14,7.48-16.86,16.8-16.76,9.16.1,16.83,7.94,16.32,17-.16,2.87.63,4.67,3,6.27A12.06,12.06,0,0,1,141.18,187a12.56,12.56,0,0,1-11.86,8.87c-2.25,0-4.51-.09-6.76,0-1.46.08-1.56-.54-1.7-1.77-.37-3.07.39-5.25,3.38-6.68a58.88,58.88,0,0,0,5.87-3.82c1-.65,1.58-1.2.56-2.37-1.46-1.65-2-4.8-4-5-1.67-.18-3.59,2-5.75,3.38v-2.78c0-6.55-.57-7-7.26-6.07-1.23.17-1.06.82-1.06,1.58,0,2.3,0,4.61,0,7.31-1.78-1.18-3.25-2-4.6-3.09-1.12-.85-1.66-.52-2.4.54-3.8,5.41-3.83,5.39,1.68,9.07,1.37.91,2.69,1.9,4.11,2.72a2.34,2.34,0,0,1,1.23,2.31c.1,4.63.14,4.67-4.51,4.62-2.24,0-4.49.24-6.72-.36-5.21-1.41-8.43-4.78-9.39-10A11.41,11.41,0,0,1,96.93,173.45ZM86.44,197.16c.61-.69,1-1.69,2.08-.36,4.71,5.57,10.85,7.66,18,7.46,6-.17,6.1,0,6,5.89,0,2.14,1,5.06-.4,6.2s-4.12.37-6.27.38c-6.15,0-12.3,0-18.46,0-7.62,0-15.25-.06-22.87,0-1.66,0-2-.46-2-2,.13-2.94.11-5.9,0-8.85-.05-1.41.43-1.74,1.75-1.71a68.41,68.41,0,0,0,8.83-.11A20.27,20.27,0,0,0,86.44,197.16Zm-36.65-1.29c-2.24,0-4.49.24-6.72-.37-5.2-1.41-8.42-4.79-9.37-10a11.38,11.38,0,0,1,5-12c2.55-1.75,3.38-3.63,3.24-6.7-.42-9.14,7.5-16.85,16.83-16.74,9.15.11,16.81,8,16.3,17a6.18,6.18,0,0,0,3,6.26A12.08,12.08,0,0,1,82.89,187,12.58,12.58,0,0,1,71,195.87c-2.16,0-4.34-.12-6.5,0-1.74.15-1.78-.62-2-2.06-.37-3.05.63-5,3.41-6.39,2.08-1,3.89-2.6,5.87-3.83,1.08-.67,1.51-1.25.52-2.37-1.45-1.66-2-4.8-4-5-1.68-.16-3.58,2-5.72,3.38,0-2.72-.07-5,0-7.23.05-1.24-.32-1.57-1.58-1.61-6.76-.27-6.75-.31-6.77,6.54v2c-1.85-.61-3.16-1.85-4.62-2.79-.93-.6-1.45-.77-2.26.34-4.07,5.51-4.12,5.48,1.58,9.28,1.3.87,2.56,1.79,3.9,2.58a2.57,2.57,0,0,1,1.44,2.46C54.4,195.88,54.45,195.91,49.79,195.87Zm199.12,70.92H47.6c-9.18,0-14.11-4.94-14.12-14.14,0-4.78,0-9.56,0-14.33,0-7.95,5.26-13.23,13.19-13.23,33.81,0,67.63-.22,101.44.1,13.77.13,22.95-10.1,22.85-21.68-.06-6.25,5-11.24,11.26-11.94a22.53,22.53,0,0,1,2.6-.15q32,0,64,0c9.39,0,16,5.37,17.59,14.07a21,21,0,0,1,.22,3.63q0,19.94,0,39.87C266.61,259.75,259.61,266.79,248.91,266.79Z"/><path class="cls-1" d="M62.83,41.54A20.85,20.85,0,1,0,83.43,62.6,20.88,20.88,0,0,0,62.83,41.54ZM62.69,74.9A12.51,12.51,0,1,1,75.11,62.45,12.55,12.55,0,0,1,62.69,74.9Z"/><path class="cls-1" d="M254.14,229.49c0,.69,0,1.39,0,2.08,0,1.1,0,1.85-1.49,2-2.37.28-3.83,2.25-5.48,3.76a15.27,15.27,0,0,1-14.89,3.85c-3.12-.8-5.49-2.83-7.81-5-4.29-3.94-7.19-3.91-11.51,0-8.16,7.42-15.72,7.42-23.84,0-.38-.35-.75-.73-1.15-1.06s-.87-.56-1.27-.9c-1-.84-3-.29-3.23-1.51a35.74,35.74,0,0,1-.08-7c0-1.18,1-.65,1.59-.6a13.79,13.79,0,0,1,7.17,2.74c1,.73,1.88,1.54,2.78,2.35,4.76,4.33,7.37,4.34,12.11.11a23.51,23.51,0,0,1,4.08-3.19,14.57,14.57,0,0,1,16.38.73,43.4,43.4,0,0,1,3.94,3.38c3.32,2.92,6.68,2.95,10,0,2.78-2.5,5.46-5.05,9.34-5.81,3.37-.65,3.36-.73,3.36,2.71Z"/><path class="cls-1" d="M125.08,242c0,.69,0,1.39,0,2.08.06,1.09.06,1.86-1.48,2-2.37.27-3.83,2.24-5.48,3.75a15.25,15.25,0,0,1-14.89,3.85c-3.12-.79-5.49-2.83-7.81-4.95-4.3-3.94-7.19-3.92-11.51,0-8.17,7.42-15.72,7.42-23.84,0-.38-.35-.75-.72-1.15-1.05s-.87-.57-1.27-.9c-1-.84-3-.29-3.23-1.51a35.73,35.73,0,0,1-.09-7c0-1.19,1.05-.66,1.59-.61a13.57,13.57,0,0,1,7.17,2.75c1.23.95,2.39,2,3.55,3.05,3.77,3.39,6.93,3.38,10.76-.07A25.75,25.75,0,0,1,82,239.67c5.61-3,11.12-2.84,16.4.76a44.93,44.93,0,0,1,4,3.38c3.32,2.92,6.67,2.95,10,0,2.78-2.5,5.46-5.06,9.34-5.81,3.38-.66,3.37-.74,3.37,2.7Z"/><rect class="cls-2" width="300" height="300"/></g></g></svg>