<svg xmlns="http://www.w3.org/2000/svg" viewBox="0 0 1009.52 325.09"><defs><style>.cls-1{fill:#fff;}.cls-2{fill:#0038b8;}.cls-3{fill:#ed1c24;}.cls-4{fill:#009245;}</style></defs><title>logo_white</title><g id="Layer_2" data-name="Layer 2"><g id="Layer_1-2" data-name="Layer 1"><rect class="cls-1" x="730" y="6.71" width="214.23" height="186.56" rx="12.58"/><path d="M931.65,9.21A10.1,10.1,0,0,1,941.73,19.3V180.69a10.09,10.09,0,0,1-10.08,10.08H742.58a10.09,10.09,0,0,1-10.08-10.08V19.3A10.1,10.1,0,0,1,742.58,9.21H931.65m0-5H742.58A15.09,15.09,0,0,0,727.5,19.3V180.69a15.08,15.08,0,0,0,15.08,15.08H931.65a15.08,15.08,0,0,0,15.08-15.08V19.3A15.09,15.09,0,0,0,931.65,4.21Z"/><path d="M865.93,44.07A64.31,64.31,0,0,1,885.47,56L867.29,71.87q-9.09-9.53-25.45-9.53t-20.91,6.75q-4.54,6.75,0,11.52t20.91,7.15a73.93,73.93,0,0,1,31.36,9.93q14.09,8.32,14.09,26.6,0,14.29-15,24.62t-35,10.33q-19,0-31.72-4.77a70.06,70.06,0,0,1-21.82-12.7l18.19-15.89q9.07,9.52,30.9,11.12,18.18,0,22.68-6.75t0-13.5q-4.5-6.75-22.68-8.34a80.69,80.69,0,0,1-30-8.74q-13.63-7.15-13.63-24.62,0-15.81,15.5-25.38t31.86-9.57Q855.47,40.1,865.93,44.07Z"/><rect class="cls-2" y="3.21" width="219.23" height="191.56" rx="14.5"/><rect class="cls-3" x="242.5" y="3.21" width="219.23" height="191.56" rx="15.77"/><rect class="cls-4" x="485" y="3.21" width="219.23" height="191.56" rx="17.6"/><path class="cls-1" d="M63.6,142.12Q44,125.08,44,99.43q.09-25.09,19.63-42.21T112.09,40.1q29.17,0,50.09,15.89L144,73.38a55,55,0,0,0-31.9-9.53q-18.36.07-29.59,10T71.28,99.27q.09,16.61,11.36,26.37t29.63,9.77q14.73,0,22.63-5.08V109.92l-18.17.07V87.76h45.45v55.59q-20.82,15.9-50.09,15.89Q83.18,159.17,63.6,142.12Z"/><path class="cls-1" d="M308,142.12q-19.59-17-19.59-42.69.09-25.09,19.63-42.21T356.45,40.1q29.18,0,50.09,15.89L388.36,73.38a55,55,0,0,0-31.91-9.53q-18.36.07-29.59,10T315.64,99.27q.09,16.61,11.36,26.37t29.63,9.77q18.36,0,31.73-9.45l18.18,17.39q-20.82,15.9-50.09,15.89Q327.55,159.17,308,142.12Z"/><path class="cls-1" d="M624.58,107.29l34,52H627.3L594.67,110H569.76v49.25H542.49V40.1h59.45q47.73,0,47.72,34.31Q649.66,100.23,624.58,107.29ZM569.76,87.76h38.18q16.45-.24,16.91-13.11-.47-11.76-16.64-12.23H569.76Z"/><text/><path class="cls-1" d="M22,239.57V233.9H36.65v13.4a18.36,18.36,0,0,1-6.18,3.64,22.49,22.49,0,0,1-8.21,1.57,18.48,18.48,0,0,1-9.2-2.21A14.1,14.1,0,0,1,7.16,244a20.52,20.52,0,0,1-2-9,19.35,19.35,0,0,1,2.2-9.34,14.84,14.84,0,0,1,6.45-6.26,17.35,17.35,0,0,1,8.05-1.68q6.27,0,9.79,2.63a11.83,11.83,0,0,1,4.53,7.26l-6.74,1.26A7.17,7.17,0,0,0,26.79,225a8.1,8.1,0,0,0-4.9-1.43,9.23,9.23,0,0,0-7.08,2.82q-2.62,2.82-2.62,8.38c0,4,.88,7,2.66,9a8.88,8.88,0,0,0,7,3,11.72,11.72,0,0,0,4.28-.84,15,15,0,0,0,3.68-2v-4.27Z"/><path class="cls-1" d="M42.92,251.94V218.29H67.86V224H49.71v7.45H66.6v5.67H49.71v9.16H68.5v5.67Z"/><path class="cls-1" d="M72.89,235.32a21.35,21.35,0,0,1,1.54-8.63,15.61,15.61,0,0,1,3.13-4.61,13.08,13.08,0,0,1,4.35-3,18.57,18.57,0,0,1,7.25-1.33q7.44,0,11.9,4.61t4.46,12.83q0,8.15-4.43,12.75t-11.84,4.6q-7.5,0-11.93-4.58T72.89,235.32Zm7-.23q0,5.72,2.64,8.67a8.61,8.61,0,0,0,6.7,3,8.5,8.5,0,0,0,6.66-2.93q2.61-2.92,2.61-8.78T96,226.37a9.4,9.4,0,0,0-13.5,0C80.74,228.33,79.89,231.22,79.89,235.09Z"/><path class="cls-1" d="M145.41,239.57l6.58,2.09a14.81,14.81,0,0,1-5,8.18,15.86,15.86,0,0,1-20-1.91q-4.31-4.58-4.31-12.51,0-8.4,4.33-13a14.89,14.89,0,0,1,11.41-4.65,14,14,0,0,1,10,3.65,13.21,13.21,0,0,1,3.44,6.2l-6.72,1.6a6.94,6.94,0,0,0-7.09-5.64,7.64,7.64,0,0,0-6.07,2.68c-1.56,1.79-2.33,4.69-2.33,8.7q0,6.38,2.29,9.09a7.47,7.47,0,0,0,6,2.71,6.85,6.85,0,0,0,4.66-1.72A10.06,10.06,0,0,0,145.41,239.57Z"/><path class="cls-1" d="M158,251.94V218.57h6.79v27.7h16.89v5.67Z"/><path class="cls-1" d="M186.33,251.94V218.29h6.79v33.65Z"/><path class="cls-1" d="M199.5,251.94V218.29h10.17l6.1,23,6-23H232v33.65h-6.31V225.46L219,251.94h-6.55l-6.65-26.48v26.48Z"/><path class="cls-1" d="M269.08,251.94h-7.39l-2.94-7.64H245.31l-2.78,7.64h-7.21l13.11-33.65h7.18Zm-12.51-13.31-4.63-12.49-4.55,12.49Z"/><path class="cls-1" d="M276.77,251.94V224h-10v-5.7h26.73V224h-10v27.95Z"/><path class="cls-1" d="M297.9,251.94V218.29h25V224H304.7v7.45h16.89v5.67H304.7v9.16h18.79v5.67Z"/><path class="cls-1" d="M342.34,251.94V218.29h14.29a24.58,24.58,0,0,1,7.84.91,7.74,7.74,0,0,1,3.91,3.23,9.67,9.67,0,0,1,1.47,5.3,9,9,0,0,1-2.22,6.25,10.71,10.71,0,0,1-6.66,3.11,16.15,16.15,0,0,1,3.64,2.82,39.09,39.09,0,0,1,3.86,5.47l4.11,6.56h-8.12l-4.91-7.32a48.54,48.54,0,0,0-3.58-5,5.26,5.26,0,0,0-2.05-1.4,11.19,11.19,0,0,0-3.42-.38h-1.37v14.05Zm6.79-19.42h5a25.8,25.8,0,0,0,6.11-.41,3.69,3.69,0,0,0,1.9-1.42,4.41,4.41,0,0,0,.69-2.53,4.06,4.06,0,0,0-.9-2.74,4.15,4.15,0,0,0-2.56-1.32c-.55-.08-2.21-.11-5-.11h-5.3Z"/><path class="cls-1" d="M376.05,251.94V218.29h6.79v33.65Z"/><path class="cls-1" d="M387.59,241l6.61-.64a8.11,8.11,0,0,0,2.42,4.89,7.33,7.33,0,0,0,4.92,1.56,7.61,7.61,0,0,0,4.95-1.39,4.13,4.13,0,0,0,1.66-3.25,3.06,3.06,0,0,0-.7-2,5.6,5.6,0,0,0-2.44-1.46q-1.2-.4-5.44-1.46c-3.64-.91-6.2-2-7.66-3.33a8.74,8.74,0,0,1-3.1-6.77,8.64,8.64,0,0,1,1.45-4.81,9.22,9.22,0,0,1,4.2-3.41,16.88,16.88,0,0,1,6.63-1.17q6.33,0,9.53,2.78a9.78,9.78,0,0,1,3.36,7.41l-6.79.3a5.75,5.75,0,0,0-1.87-3.73,6.83,6.83,0,0,0-4.3-1.14,7.78,7.78,0,0,0-4.64,1.22,2.46,2.46,0,0,0-1.08,2.09,2.59,2.59,0,0,0,1,2q1.29,1.08,6.24,2.25a33.25,33.25,0,0,1,7.34,2.42,9.43,9.43,0,0,1,3.71,3.42,10.57,10.57,0,0,1-.26,10.78,9.67,9.67,0,0,1-4.54,3.75,19.05,19.05,0,0,1-7.33,1.23q-6.37,0-9.79-2.95T387.59,241Z"/><path class="cls-1" d="M420.75,251.94V218.29h6.8v15l13.72-15h9.13L437.74,231.4l13.35,20.54H442.3l-9.25-15.79-5.5,5.62v10.17Z"/><path class="cls-1" d="M465.94,241l6.61-.64a8.05,8.05,0,0,0,2.42,4.89,7.33,7.33,0,0,0,4.92,1.56,7.61,7.61,0,0,0,4.95-1.39,4.13,4.13,0,0,0,1.66-3.25,3.06,3.06,0,0,0-.7-2,5.6,5.6,0,0,0-2.44-1.46q-1.2-.4-5.44-1.46-5.46-1.36-7.67-3.33a8.77,8.77,0,0,1-3.09-6.77,8.64,8.64,0,0,1,1.45-4.81,9.22,9.22,0,0,1,4.2-3.41,16.86,16.86,0,0,1,6.62-1.17q6.35,0,9.54,2.78a9.82,9.82,0,0,1,3.36,7.41l-6.79.3a5.75,5.75,0,0,0-1.87-3.73,6.83,6.83,0,0,0-4.3-1.14,7.78,7.78,0,0,0-4.64,1.22,2.46,2.46,0,0,0-1.08,2.09,2.59,2.59,0,0,0,1,2q1.29,1.08,6.24,2.25a33.25,33.25,0,0,1,7.34,2.42,9.43,9.43,0,0,1,3.71,3.42,10.57,10.57,0,0,1-.26,10.78,9.67,9.67,0,0,1-4.54,3.75,19.05,19.05,0,0,1-7.33,1.23q-6.37,0-9.79-2.95T465.94,241Z"/><path class="cls-1" d="M497.63,235.32a21.53,21.53,0,0,1,1.54-8.63,16,16,0,0,1,3.13-4.61,13.29,13.29,0,0,1,4.35-3,18.64,18.64,0,0,1,7.25-1.33q7.44,0,11.9,4.61t4.47,12.83q0,8.15-4.43,12.75T514,252.51q-7.51,0-11.94-4.58T497.63,235.32Zm7-.23q0,5.72,2.64,8.67a9.07,9.07,0,0,0,13.37,0q2.61-2.92,2.61-8.78t-2.54-8.63a9.41,9.41,0,0,0-13.51,0Q504.64,229.29,504.63,235.09Z"/><path class="cls-1" d="M535.75,251.94V218.57h6.79v27.7h16.9v5.67Z"/><path class="cls-1" d="M564.23,218.29H571v18.23a37.18,37.18,0,0,0,.26,5.62,5.47,5.47,0,0,0,2.07,3.32,7.28,7.28,0,0,0,4.49,1.25,6.83,6.83,0,0,0,4.36-1.19,4.64,4.64,0,0,0,1.77-2.9,37.62,37.62,0,0,0,.3-5.71V218.29h6.79V236a45.26,45.26,0,0,1-.55,8.56,9.62,9.62,0,0,1-2,4.22,10.27,10.27,0,0,1-4,2.74,17.23,17.23,0,0,1-6.47,1,18.66,18.66,0,0,1-7.31-1.11,10.55,10.55,0,0,1-3.94-2.89,9.26,9.26,0,0,1-1.9-3.73,40.44,40.44,0,0,1-.67-8.54Z"/><path class="cls-1" d="M605.79,251.94V224h-10v-5.7h26.73V224h-10v27.95Z"/><path class="cls-1" d="M626.72,251.94V218.29h6.79v33.65Z"/><path class="cls-1" d="M638.61,235.32a21.35,21.35,0,0,1,1.54-8.63,15.81,15.81,0,0,1,3.13-4.61,13.08,13.08,0,0,1,4.35-3,18.57,18.57,0,0,1,7.25-1.33q7.44,0,11.9,4.61t4.46,12.83q0,8.15-4.43,12.75T655,252.51q-7.5,0-11.93-4.58T638.61,235.32Zm7-.23q0,5.72,2.64,8.67a9.07,9.07,0,0,0,13.37,0q2.6-2.92,2.6-8.78c0-3.85-.84-6.73-2.54-8.63a9.4,9.4,0,0,0-13.5,0C646.46,228.33,645.61,231.22,645.61,235.09Z"/><path class="cls-1" d="M676.61,251.94V218.29h6.61L697,240.76V218.29h6.31v33.65h-6.81L682.92,230v21.94Z"/><path class="cls-1" d="M708.76,241l6.61-.64a8.11,8.11,0,0,0,2.42,4.89,7.34,7.34,0,0,0,4.93,1.56,7.58,7.58,0,0,0,4.94-1.39,4.15,4.15,0,0,0,1.67-3.25,3.11,3.11,0,0,0-.7-2,5.65,5.65,0,0,0-2.45-1.46c-.79-.27-2.61-.76-5.44-1.46q-5.46-1.36-7.66-3.33a8.74,8.74,0,0,1-3.1-6.77,8.65,8.65,0,0,1,1.46-4.81,9.12,9.12,0,0,1,4.2-3.41,16.82,16.82,0,0,1,6.62-1.17q6.33,0,9.53,2.78a9.79,9.79,0,0,1,3.37,7.41l-6.8.3a5.75,5.75,0,0,0-1.87-3.73,6.81,6.81,0,0,0-4.3-1.14,7.8,7.8,0,0,0-4.64,1.22,2.47,2.47,0,0,0-1.07,2.09,2.56,2.56,0,0,0,1,2q1.28,1.08,6.24,2.25a33.13,33.13,0,0,1,7.33,2.42,9.53,9.53,0,0,1,3.72,3.42,10.05,10.05,0,0,1,1.34,5.36,9.94,9.94,0,0,1-1.61,5.42,9.63,9.63,0,0,1-4.54,3.75,19,19,0,0,1-7.32,1.23q-6.37,0-9.8-2.95T708.76,241Z"/><path class="cls-1" d="M754.89,251.94V218.29h10.9a39.14,39.14,0,0,1,8.08.51,8.78,8.78,0,0,1,4.84,3.29,10.46,10.46,0,0,1,1.95,6.56,10.93,10.93,0,0,1-1.12,5.2,9.15,9.15,0,0,1-2.86,3.32,9.89,9.89,0,0,1-3.52,1.6,38.94,38.94,0,0,1-7,.48h-4.42v12.69Zm6.8-27.95v9.54h3.71a17.26,17.26,0,0,0,5.37-.53,4.46,4.46,0,0,0,2.13-1.65,4.53,4.53,0,0,0,.76-2.61,4.36,4.36,0,0,0-1.07-3,4.68,4.68,0,0,0-2.73-1.49A31.85,31.85,0,0,0,765,224Z"/><path class="cls-1" d="M794.82,251.94l-12-33.65h7.37l8.51,24.9,8.24-24.9h7.2l-12,33.65Z"/><path class="cls-1" d="M825.16,251.94V224h-10v-5.7h26.74V224H832v27.95Z"/><path class="cls-1" d="M859.54,251.94V218.57h6.79v27.7h16.89v5.67Z"/><path class="cls-1" d="M892.15,251.94V224h-10v-5.7H908.9V224h-10v27.95Z"/><path class="cls-1" d="M913.26,218.29h12.42a24.1,24.1,0,0,1,6.4.65,11.11,11.11,0,0,1,5.07,3.1,14.72,14.72,0,0,1,3.22,5.45,25,25,0,0,1,1.1,7.95,22.37,22.37,0,0,1-1,7.16,14.88,14.88,0,0,1-3.61,5.94,12,12,0,0,1-4.77,2.69,20.68,20.68,0,0,1-6,.71H913.26Zm6.8,5.7v22.28h5.07a18.85,18.85,0,0,0,4.11-.32,6.31,6.31,0,0,0,2.74-1.4,7.11,7.11,0,0,0,1.78-3.25,21.91,21.91,0,0,0,.69-6.16,20.05,20.05,0,0,0-.69-6,7.69,7.69,0,0,0-1.93-3.26,6.42,6.42,0,0,0-3.14-1.58,30.34,30.34,0,0,0-5.58-.32Z"/><path class="cls-1" d="M529.17,314.57v-5h5v5Z"/><path class="cls-1" d="M543.06,314.57v-5h5v5Z"/><path class="cls-1" d="M557,314.57v-5h5v5Z"/><path class="cls-1" d="M570.85,314.57v-5h5v5Z"/><path class="cls-1" d="M584.54,314.57V292.06h-3.88v-3.42h3.88v-2.76A12,12,0,0,1,585,282a5.53,5.53,0,0,1,2.23-2.77,8,8,0,0,1,4.48-1.07,21.74,21.74,0,0,1,4.1.44l-.66,3.84a14.05,14.05,0,0,0-2.58-.25,3.87,3.87,0,0,0-2.84.86,4.64,4.64,0,0,0-.83,3.2v2.39H594v3.42h-5.06v22.51Z"/><path class="cls-1" d="M595.75,301.6q0-7.2,4-10.67a12.08,12.08,0,0,1,8.16-2.88,11.64,11.64,0,0,1,8.74,3.51q3.39,3.49,3.39,9.68a17.16,17.16,0,0,1-1.5,7.87,10.59,10.59,0,0,1-4.37,4.45,12.7,12.7,0,0,1-6.26,1.59,11.63,11.63,0,0,1-8.8-3.49Q595.75,308.16,595.75,301.6Zm4.52,0q0,5,2.17,7.46a7.23,7.23,0,0,0,10.91,0q2.17-2.49,2.17-7.59c0-3.21-.72-5.64-2.18-7.29a7.24,7.24,0,0,0-10.9,0Q600.27,296.62,600.27,301.6Z"/><path class="cls-1" d="M625.14,314.57V288.64h4v3.93a10.84,10.84,0,0,1,2.79-3.64,4.88,4.88,0,0,1,2.82-.88,8.54,8.54,0,0,1,4.52,1.42l-1.51,4.07a6.36,6.36,0,0,0-3.23-1,4.14,4.14,0,0,0-2.58.87,4.72,4.72,0,0,0-1.64,2.4,17.14,17.14,0,0,0-.73,5.13v13.58Z"/><path class="cls-1" d="M654,306.83l4.34-.69a6.15,6.15,0,0,0,2,4,7.16,7.16,0,0,0,4.68,1.39,6.9,6.9,0,0,0,4.49-1.23,3.72,3.72,0,0,0,1.46-2.9,2.67,2.67,0,0,0-1.29-2.34,19,19,0,0,0-4.49-1.49,41.15,41.15,0,0,1-6.71-2.11,6.4,6.4,0,0,1-3.79-6,6.69,6.69,0,0,1,.79-3.21,7.16,7.16,0,0,1,2.16-2.45,9,9,0,0,1,2.8-1.28,13.25,13.25,0,0,1,3.79-.53,14.87,14.87,0,0,1,5.36.88,7.32,7.32,0,0,1,3.41,2.38,9.24,9.24,0,0,1,1.51,4l-4.29.58a4.71,4.71,0,0,0-1.7-3.12,6.21,6.21,0,0,0-4-1.12,7.15,7.15,0,0,0-4.32,1A2.91,2.91,0,0,0,659,295a2.48,2.48,0,0,0,.53,1.54,3.9,3.9,0,0,0,1.69,1.17c.44.16,1.73.54,3.88,1.12a53.88,53.88,0,0,1,6.51,2,6.59,6.59,0,0,1,2.89,2.31,6.44,6.44,0,0,1,1,3.76,7.44,7.44,0,0,1-1.28,4.14,8.36,8.36,0,0,1-3.7,3,13.45,13.45,0,0,1-5.47,1.06q-5.05,0-7.7-2.1A9.7,9.7,0,0,1,654,306.83Z"/><path class="cls-1" d="M697.73,314.57v-3.81a9.49,9.49,0,0,1-8.23,4.39,10.46,10.46,0,0,1-4.29-.88,7,7,0,0,1-3-2.21,8.25,8.25,0,0,1-1.35-3.26,22.17,22.17,0,0,1-.27-4.1V288.64H685V303a25.56,25.56,0,0,0,.27,4.64,4.59,4.59,0,0,0,1.76,2.72,5.43,5.43,0,0,0,3.32,1,7.2,7.2,0,0,0,3.71-1,5.61,5.61,0,0,0,2.45-2.76,13.81,13.81,0,0,0,.72-5.06V288.64h4.4v25.93Z"/><path class="cls-1" d="M706.78,306.83l4.35-.69a6.06,6.06,0,0,0,2,4,7.13,7.13,0,0,0,4.67,1.39,6.91,6.91,0,0,0,4.5-1.23,3.72,3.72,0,0,0,1.46-2.9,2.67,2.67,0,0,0-1.29-2.34,19.09,19.09,0,0,0-4.5-1.49,41.29,41.29,0,0,1-6.7-2.11,6.4,6.4,0,0,1-3.79-6,6.69,6.69,0,0,1,.79-3.21,7.16,7.16,0,0,1,2.16-2.45,8.93,8.93,0,0,1,2.8-1.28,13.25,13.25,0,0,1,3.79-.53,14.91,14.91,0,0,1,5.36.88,7.37,7.37,0,0,1,3.41,2.38,9.37,9.37,0,0,1,1.51,4l-4.3.58a4.7,4.7,0,0,0-1.69-3.12,6.21,6.21,0,0,0-4-1.12,7.15,7.15,0,0,0-4.32,1,2.92,2.92,0,0,0-1.3,2.34,2.43,2.43,0,0,0,.54,1.54,3.9,3.9,0,0,0,1.69,1.17c.44.16,1.73.54,3.88,1.12a53.88,53.88,0,0,1,6.51,2,6.65,6.65,0,0,1,2.89,2.31,6.44,6.44,0,0,1,1.05,3.76,7.44,7.44,0,0,1-1.28,4.14,8.36,8.36,0,0,1-3.7,3,13.45,13.45,0,0,1-5.47,1.06q-5.05,0-7.7-2.1A9.75,9.75,0,0,1,706.78,306.83Z"/><path class="cls-1" d="M743.14,310.63l.63,3.89a16.32,16.32,0,0,1-3.32.39,7.58,7.58,0,0,1-3.71-.76,4.24,4.24,0,0,1-1.86-2,16,16,0,0,1-.53-5.19V292.06h-3.22v-3.42h3.22v-6.42l4.37-2.64v9.06h4.42v3.42h-4.42v15.16a7.44,7.44,0,0,0,.23,2.41,1.81,1.81,0,0,0,.76.86,2.93,2.93,0,0,0,1.5.32A13.62,13.62,0,0,0,743.14,310.63Z"/><path class="cls-1" d="M764.35,311.37a16.42,16.42,0,0,1-4.7,2.93,13.54,13.54,0,0,1-4.84.85c-2.85,0-5-.69-6.57-2.09a6.89,6.89,0,0,1-2.3-5.33,7.08,7.08,0,0,1,.87-3.48,7.31,7.31,0,0,1,2.27-2.53,11,11,0,0,1,3.16-1.44,35.27,35.27,0,0,1,3.91-.66,39.75,39.75,0,0,0,7.84-1.51c0-.6,0-1,0-1.15,0-1.79-.41-3-1.24-3.78a7.4,7.4,0,0,0-5-1.49,7.73,7.73,0,0,0-4.58,1.09,6.62,6.62,0,0,0-2.18,3.84l-4.3-.58a10.59,10.59,0,0,1,1.93-4.46,8.44,8.44,0,0,1,3.88-2.61,17.34,17.34,0,0,1,5.89-.92,15.56,15.56,0,0,1,5.39.78,7.11,7.11,0,0,1,3.05,2,6.89,6.89,0,0,1,1.37,3,24.33,24.33,0,0,1,.22,4v5.86a61.56,61.56,0,0,0,.28,7.75,10,10,0,0,0,1.11,3.12h-4.59A9.51,9.51,0,0,1,764.35,311.37Zm-.36-9.82a32.08,32.08,0,0,1-7.18,1.66,16.66,16.66,0,0,0-3.83.88,3.86,3.86,0,0,0-1.74,1.43,3.81,3.81,0,0,0-.61,2.09,3.77,3.77,0,0,0,1.33,2.93,5.75,5.75,0,0,0,3.9,1.17,9.05,9.05,0,0,0,4.51-1.11,6.88,6.88,0,0,0,2.91-3,10.65,10.65,0,0,0,.71-4.4Z"/><path class="cls-1" d="M775.27,283.83v-5.06h4.39v5.06Zm0,30.74V288.64h4.39v25.93Z"/><path class="cls-1" d="M786.35,314.57V288.64h3.95v3.68a9.35,9.35,0,0,1,8.26-4.27,10.86,10.86,0,0,1,4.31.84,6.84,6.84,0,0,1,2.94,2.21,8.58,8.58,0,0,1,1.36,3.25,24.29,24.29,0,0,1,.25,4.27v15.95H803V298.79a11.87,11.87,0,0,0-.51-4,4.23,4.23,0,0,0-1.82-2.13,5.86,5.86,0,0,0-3.06-.79,7.17,7.17,0,0,0-4.85,1.78c-1.36,1.19-2,3.44-2,6.77v14.16Z"/><path class="cls-1" d="M831.08,311.37a16.56,16.56,0,0,1-4.7,2.93,13.63,13.63,0,0,1-4.85.85c-2.85,0-5-.69-6.57-2.09a6.88,6.88,0,0,1-2.29-5.33,7.08,7.08,0,0,1,.87-3.48,7.18,7.18,0,0,1,2.26-2.53,10.92,10.92,0,0,1,3.17-1.44,34.59,34.59,0,0,1,3.9-.66,39.75,39.75,0,0,0,7.84-1.51c0-.6,0-1,0-1.15,0-1.79-.41-3-1.24-3.78a7.37,7.37,0,0,0-5-1.49,7.69,7.69,0,0,0-4.57,1.09,6.57,6.57,0,0,0-2.19,3.84l-4.3-.58a10.84,10.84,0,0,1,1.93-4.46,8.47,8.47,0,0,1,3.89-2.61,17.28,17.28,0,0,1,5.88-.92,15.56,15.56,0,0,1,5.39.78,7.09,7.09,0,0,1,3.06,2,6.88,6.88,0,0,1,1.36,3,24.33,24.33,0,0,1,.22,4v5.86a63.68,63.68,0,0,0,.28,7.75,10,10,0,0,0,1.11,3.12H832A9.29,9.29,0,0,1,831.08,311.37Zm-.37-9.82a32.08,32.08,0,0,1-7.18,1.66,16.94,16.94,0,0,0-3.83.88,3.78,3.78,0,0,0-1.73,1.43,3.89,3.89,0,0,0,.72,5,5.71,5.71,0,0,0,3.89,1.17,9.09,9.09,0,0,0,4.52-1.11,6.86,6.86,0,0,0,2.9-3,10.65,10.65,0,0,0,.71-4.4Z"/><path class="cls-1" d="M846,314.57h-4.08v-35.8h4.4v12.77a8.7,8.7,0,0,1,7.1-3.49,10.82,10.82,0,0,1,4.53,1,9.17,9.17,0,0,1,3.51,2.71,13,13,0,0,1,2.16,4.21,17.05,17.05,0,0,1,.79,5.27q0,6.66-3.3,10.3a10.29,10.29,0,0,1-7.91,3.64,8.26,8.26,0,0,1-7.2-3.83Zm0-13.16q0,4.66,1.27,6.73a6.27,6.27,0,0,0,10.59.9q2.1-2.51,2.1-7.46t-2-7.5a6.13,6.13,0,0,0-4.87-2.41,6.31,6.31,0,0,0-5,2.5Q846,296.67,846,301.41Z"/><path class="cls-1" d="M869.8,283.83v-5.06h4.39v5.06Zm0,30.74V288.64h4.39v25.93Z"/><path class="cls-1" d="M880.78,314.57v-35.8h4.4v35.8Z"/><path class="cls-1" d="M892,283.83v-5.06h4.4v5.06Zm0,30.74V288.64h4.4v25.93Z"/><path class="cls-1" d="M912.69,310.63l.64,3.89a16.4,16.4,0,0,1-3.32.39,7.52,7.52,0,0,1-3.71-.76,4.24,4.24,0,0,1-1.86-2,15.65,15.65,0,0,1-.54-5.19V292.06h-3.22v-3.42h3.22v-6.42l4.37-2.64v9.06h4.42v3.42h-4.42v15.16a7.75,7.75,0,0,0,.23,2.41,1.86,1.86,0,0,0,.76.86,2.93,2.93,0,0,0,1.5.32A13.62,13.62,0,0,0,912.69,310.63Z"/><path class="cls-1" d="M916.79,324.55l-.48-4.13a9.81,9.81,0,0,0,2.51.4,4.85,4.85,0,0,0,2.34-.49A3.94,3.94,0,0,0,922.6,319a21.16,21.16,0,0,0,1.35-3.27c.08-.25.21-.6.39-1.08l-9.84-26h4.74l5.39,15q1.05,2.87,1.88,6a57.79,57.79,0,0,1,1.81-5.91l5.54-15.11h4.39L928.39,315a51.75,51.75,0,0,1-2.47,5.89,8.69,8.69,0,0,1-2.68,3.19,6.37,6.37,0,0,1-3.61,1A8.83,8.83,0,0,1,916.79,324.55Z"/><path class="cls-1" d="M976.83,1.52a4.38,4.38,0,0,1,0,.67,1.57,1.57,0,0,1-.13.47.62.62,0,0,1-.23.25.49.49,0,0,1-.29.08h-7.47V26a.55.55,0,0,1-.08.29.6.6,0,0,1-.29.2,5.15,5.15,0,0,1-.54.12,7.17,7.17,0,0,1-1.69,0,5.14,5.14,0,0,1-.56-.12.56.56,0,0,1-.28-.2.48.48,0,0,1-.09-.29V3h-7.46a.53.53,0,0,1-.51-.33,1.89,1.89,0,0,1-.14-.47,4.27,4.27,0,0,1,0-.67,4.65,4.65,0,0,1,0-.69,2,2,0,0,1,.14-.48.58.58,0,0,1,.21-.27.61.61,0,0,1,.3-.08h18.46a.57.57,0,0,1,.29.08.69.69,0,0,1,.23.27,1.64,1.64,0,0,1,.13.48A4.75,4.75,0,0,1,976.83,1.52Z"/><path class="cls-1" d="M1009.52,26a.55.55,0,0,1-.08.29.63.63,0,0,1-.3.2l-.54.12a6.36,6.36,0,0,1-.85.05,6.65,6.65,0,0,1-.84-.05,5.43,5.43,0,0,1-.55-.12.61.61,0,0,1-.28-.2A.47.47,0,0,1,1006,26V2.89h0L996.6,26.11a.81.81,0,0,1-.17.24,1,1,0,0,1-.33.18,2.88,2.88,0,0,1-.51.1c-.2,0-.44,0-.71,0a5.31,5.31,0,0,1-.74,0,4,4,0,0,1-.51-.11,1,1,0,0,1-.32-.18.51.51,0,0,1-.15-.22L984.22,2.89h0V26a.48.48,0,0,1-.09.29.6.6,0,0,1-.29.2l-.55.12a6.81,6.81,0,0,1-.87.05,6.58,6.58,0,0,1-.85-.05,4.88,4.88,0,0,1-.53-.12.52.52,0,0,1-.28-.2.54.54,0,0,1-.07-.29V1.6a1.49,1.49,0,0,1,.46-1.23,1.55,1.55,0,0,1,1-.37h2.16a5,5,0,0,1,1.17.12,2.66,2.66,0,0,1,.87.39,2.41,2.41,0,0,1,.63.68,5.39,5.39,0,0,1,.44,1L995,21.37h.11L1003,2.21a5.61,5.61,0,0,1,.5-1,2.74,2.74,0,0,1,.59-.69,2.24,2.24,0,0,1,.72-.37,3.63,3.63,0,0,1,.92-.11H1008a1.87,1.87,0,0,1,.59.09,1.17,1.17,0,0,1,.48.29,1.46,1.46,0,0,1,.33.49,2,2,0,0,1,.12.73Z"/></g></g></svg>