<svg xmlns="http://www.w3.org/2000/svg" viewBox="0 0 100 100"><defs><style>.cls-1{fill:#bd0324;}.cls-2{fill:#fff;}</style></defs><title>climate_change</title><g id="Layer_2" data-name="Layer 2"><g id="Layer_1-2" data-name="Layer 1"><g id="Layer_2-2" data-name="Layer 2"><g id="Layer_1-2-2" data-name="Layer 1-2"><path class="cls-1" d="M50,0h0a50,50,0,0,1,50,50h0a50,50,0,0,1-50,50h0A50,50,0,0,1,0,50H0A50,50,0,0,1,50,0Z"/><path class="cls-2" d="M71.12,54.71H67.93A2.78,2.78,0,0,1,65.07,52a1,1,0,0,0-.93-1.07H61.3a2.82,2.82,0,0,1,0-5.64h9.84c-.19-.63-.34-1.26-.54-1.86a.59.59,0,0,0-.47-.24c-1.12,0-2.23.19-3.34.2H50a2.83,2.83,0,0,1-.56-5.6,8.94,8.94,0,0,1,1.27,0,1,1,0,1,0,0-1.89H47.21a2.82,2.82,0,1,1-.27-5.64h9.28c.27,0,.55.07.63-.34s-.17-.46-.44-.54a21.59,21.59,0,0,0-12.56-.05.69.69,0,0,0-.42.43,5.66,5.66,0,0,1-5.91,5.21h-.69v3.73h-1.9V35H33v3.69h-1.9V35H29.25v3.68h-1.9V34.93H25.64a4.72,4.72,0,0,1-1.19-9.31.94.94,0,0,0,.5-.48A6.63,6.63,0,0,1,36.43,23.4a.71.71,0,0,0,.49.28,5.68,5.68,0,0,1,6.14,3.62,1,1,0,0,0,.1.17,23.75,23.75,0,0,1,14.28.2A11.47,11.47,0,0,1,69.81,21a11.2,11.2,0,0,1,9.11,8.74c1.07,5.89-1.38,10.11-6.58,12.9a23.26,23.26,0,0,1,0,14.84A11.45,11.45,0,0,1,79,69.91,11.05,11.05,0,0,1,69.86,79c-5.68.87-9.76-1.62-12.44-6.67a23.12,23.12,0,0,1-14.88,0,11.35,11.35,0,0,1-6.22,6.07,11.15,11.15,0,0,1-6.68.55,11.37,11.37,0,0,1-2-21.48,23.37,23.37,0,0,1-.48-13.33l1.82.47-.33,1.66H35.8a2.79,2.79,0,0,1,2.9,2.67v0c.06.75.41,1.06,1.26,1.06H51.91a2.79,2.79,0,0,1,2.7,2.05,2.73,2.73,0,0,1-1.18,3.12,3.35,3.35,0,0,1-1.54.45c-1.82.06-3.65,0-5.47,0-.45,0-.87.12-1,.57a1.16,1.16,0,0,0,.1.91,1.32,1.32,0,0,0,.86.39,17.42,17.42,0,0,0,1.77,0,2.82,2.82,0,0,1,0,5.64H42.43c0,.18.08.32.13.46A11,11,0,0,1,43.2,70c-.08.36,0,.51.39.63a21.82,21.82,0,0,0,12.85,0c.36-.11.45-.27.38-.63A11.21,11.21,0,0,1,65.6,56.82l.33-.06a19.39,19.39,0,0,1,4,0c.38,0,.63,0,.71-.41S71,55.34,71.12,54.71ZM41.53,67.89a9.42,9.42,0,1,0-9.48,9.42A9.42,9.42,0,0,0,41.53,67.89ZM67.9,22.68a9.42,9.42,0,1,0,9.41,9.48A9.43,9.43,0,0,0,67.9,22.68Zm0,35.79a9.42,9.42,0,1,0,9.43,9.43,9.41,9.41,0,0,0-9.43-9.43ZM28.43,48.12a21,21,0,0,0,.93,8.36c.13.41.35.34.63.32a21.44,21.44,0,0,1,3.4-.12A11,11,0,0,1,41.06,61a.82.82,0,0,0,.58.28H48a1,1,0,0,0,1.1-.85.45.45,0,0,1,0-.11A1,1,0,0,0,48,59.4H46.21a2.82,2.82,0,0,1,0-5.64h5.65a1,1,0,0,0,1-.93v0a1,1,0,0,0-1-.91H40a2.84,2.84,0,0,1-3.16-2.81.94.94,0,0,0-.94-.94C33.42,48.1,31,48.12,28.43,48.12Zm-2-20.72h-.74a2.85,2.85,0,0,0-3,2.74v0A2.81,2.81,0,0,0,25.46,33h0c4.14,0,8.27,0,12.41,0a3.75,3.75,0,1,0-.13-7.49,4.27,4.27,0,0,0-.8.1c-.39.09-.77.24-1.23.38a5.2,5.2,0,0,0-2.19-2.68,4.52,4.52,0,0,0-3.39-.52c-2.33.6-3.45,2.22-3.72,4.58Zm30.15,4.7H47.45c-.76,0-1.26.39-1.21,1s.47.92,1.21.92H51a2.82,2.82,0,0,1,0,5.64,9.37,9.37,0,0,0-1.06,0,.92.92,0,0,0-.85.9.94.94,0,0,0,.84,1,2.8,2.8,0,0,0,.41,0H61a3.1,3.1,0,0,0,.56,0,11.52,11.52,0,0,1-5-9.37Zm15,15.07H61.34a1,1,0,0,0-1,.92v0a1,1,0,0,0,1,.93h2.49a2.8,2.8,0,0,1,3.1,2.79.94.94,0,0,0,.92,1h0c1.17,0,2.35,0,3.65,0Z"/><path class="cls-2" d="M27.43,42.42V40.61h1.81v1.81Z"/><path class="cls-2" d="M31.2,40.61H33v1.81H31.2Z"/><path class="cls-2" d="M35,40.61h1.8v1.82H35Z"/><path class="cls-2" d="M27.25,71.24l-1.57-1,.85-1.34H24.64V67h1.89l-.88-1.39,1.56-1c.48.71.93,1.39,1.39,2.06s.63.49,1,0a5.36,5.36,0,0,1,1.15-1.13c.48-.36.53-.63,0-1L28.71,63l1-1.57,1.36.87V60.39H33v2l1.39-.88,1,1.57-2,1.4c-.5.33-.44.64,0,1a6.1,6.1,0,0,1,1.19,1.19c.32.44.63.49,1,0L37,64.53l1.56,1L37.68,67h1.89v1.9h-1.9l.86,1.39L37,71.3l-1.34-2c-.39-.58-.67-.54-1.07,0a4.93,4.93,0,0,1-1.15,1.13c-.49.36-.52.64,0,1l2.07,1.39-1,1.57-1.35-.87v1.94h-1.9v-2l-1.39.9-1-1.57,2.08-1.42c.5-.33.45-.63,0-1a5.4,5.4,0,0,1-1.14-1.15c-.38-.52-.64-.56-1,0S27.72,70.53,27.25,71.24ZM33,67.87a.95.95,0,1,0-1.89,0,.95.95,0,0,0,1.89,0Z"/><path class="cls-2" d="M71.62,33a.36.36,0,0,0-.07.1c-.41.87-.41.88.27,1.55l2.09,2-1.42,1.33c-.76-.77-1.57-1.56-2.36-2.38a.5.5,0,0,0-.68-.16l0,0c-.29.16-.63.18-.63.7.06,1.11,0,2.22,0,3.37H66.9v-2a9.26,9.26,0,0,1,0-1.29c.07-.51-.2-.63-.59-.84s-.57,0-.78.24L63.2,38.12l-1.29-1.39,2.07-2c.68-.68.68-.68.22-1.64H60.41V31.19H64.2a.61.61,0,0,0,.07-.1c.41-.88.41-.89-.26-1.56s-1.41-1.35-2.1-2l1.41-1.32c.76.76,1.57,1.56,2.36,2.37a.49.49,0,0,0,.7.14c.3-.17.63-.18.63-.7-.06-1.11,0-2.23,0-3.37h1.9v3.22c0,.34,0,.63.42.76s.63.18,1-.16c.74-.81,1.54-1.57,2.33-2.37l1.3,1.44c-.69.67-1.39,1.34-2.08,2s-.69.68-.22,1.63H75.4v1.9Zm-1.85-.94A1.9,1.9,0,1,0,67.88,34,1.92,1.92,0,0,0,69.77,32.09Z"/><path class="cls-2" d="M64.13,70.62a3.84,3.84,0,0,1-2.71-2.73A3.41,3.41,0,0,1,61.84,65c1-1.46,2.11-2.87,3.22-4.37L68,64.54l.89-1c1.4,1.82,2.79,3.58,4.13,5.38a3.27,3.27,0,0,1,.47,1.32,4.43,4.43,0,0,1-4.1,5.18,5.28,5.28,0,0,1-2.8-.46,4.36,4.36,0,0,1-2.45-3.87Zm4.76-4c-.23,2.07-.9,3.15-2.35,3.73a.72.72,0,0,0-.52.88s0,0,0,.06a2.77,2.77,0,0,0,3.62,2.14,2.49,2.49,0,0,0,1.95-2.93,2.41,2.41,0,0,0-.4-.93C70.51,68.6,69.71,67.69,68.89,66.65ZM65.1,63.83c-.55.72-1.06,1.36-1.52,2a1.9,1.9,0,1,0,3,0c-.49-.67-1-1.31-1.53-2Z"/></g></g></g></g></svg>