<svg xmlns="http://www.w3.org/2000/svg" viewBox="0 0 100 100"><defs><style>.cls-1{fill:#bd0324;}.cls-2{fill:#fff;}</style></defs><title>geospatial_technologies</title><g id="Layer_2" data-name="Layer 2"><g id="Layer_1-2" data-name="Layer 1"><g id="Layer_2-2" data-name="Layer 2"><g id="Layer_1-2-2" data-name="Layer 1-2"><path class="cls-1" d="M50,0h0a50,50,0,0,1,50,50h0a50,50,0,0,1-50,50h0A50,50,0,0,1,0,50H0A50,50,0,0,1,50,0Z"/><path class="cls-2" d="M21.1,60.61l7.12-4.51-7.13-4.52,14.49-9.17a15.62,15.62,0,0,1,0-11.53,15.25,15.25,0,0,1,5.83-7.2,15.55,15.55,0,0,1,23,18.74l14.47,9.16L71.78,56.1l7.1,4.49c-.19.14-.33.25-.48.34L50.54,78.55c-.15.1-.29.22-.44.34h-.19c-.13-.11-.26-.22-.39-.31L21.65,61a3.87,3.87,0,0,0-.55-.25Zm28.88-2c-4.27-4.45-8.76-8.55-12.86-13.1l-9.64,6.09c.2.14.33.24.47.32q10.79,6.86,21.57,13.66a.77.77,0,0,0,.95,0L72.08,51.86a4.46,4.46,0,0,0,.42-.31l-9.56-6.07c-2.18,2.23-4.31,4.43-6.45,6.56S52.19,56.37,50,58.58Zm.11-5.06-.08.15.1,0c2.94-3,6-5.85,8.84-8.89a11.49,11.49,0,0,0,3-10.15,12,12,0,0,0-13.78-9.92l-.27,0a11.44,11.44,0,0,0-9.23,7.78A11.22,11.22,0,0,0,40.8,44.41c2.91,3.21,6.18,6.13,9.29,9.13ZM27.47,60.61,28,61,49.49,74.55a.82.82,0,0,0,1,0q9.47-6,18.9-12l3.09-1.9c-1.2-.76-2.35-1.47-3.47-2.21a.73.73,0,0,0-.94,0Q59.3,64,50.46,69.63a.74.74,0,0,1-.93,0c-3.09-2-6.19-3.93-9.29-5.89l-8.82-5.62Z"/><path class="cls-2" d="M49.92,44.19a7.58,7.58,0,1,1,7.58-7.58v0A7.62,7.62,0,0,1,49.92,44.19Zm5.4-7.55A5.33,5.33,0,1,0,50,42a5.33,5.33,0,0,0,5.37-5.31Z"/></g></g></g></g></svg>