<svg xmlns="http://www.w3.org/2000/svg" viewBox="0 0 100 100"><defs><style>.cls-1{fill:#bd0324;}.cls-2{fill:#fff;}.cls-3{fill:none;}</style></defs><title>multiinfrastructure</title><g id="Layer_2" data-name="Layer 2"><g id="Layer_1-2" data-name="Layer 1"><g id="Layer_2-2" data-name="Layer 2"><g id="Layer_1-2-2" data-name="Layer 1-2"><path class="cls-1" d="M50,0h0a50,50,0,0,1,50,50h0a50,50,0,0,1-50,50h0A50,50,0,0,1,0,50H0A50,50,0,0,1,50,0Z"/><path class="cls-2" d="M18.46,31.59a4.49,4.49,0,0,1,.79-.52q3.53-1.44,7.05-2.83a1,1,0,0,1,.88,0l7.31,3A.76.76,0,0,1,35,32v8.75a.84.84,0,0,1-.66,1c-2.43,1-4.85,2-7.28,2.92a1.05,1.05,0,0,1-.7,0c-2.39-.94-4.77-1.89-7.15-2.87a4.23,4.23,0,0,1-.78-.55ZM20,33a1,1,0,0,0,0,.17v7a.45.45,0,0,0,.24.31l5.51,2.22.24,0V35.68c0-.25-.12-.32-.31-.39l-5.06-2Zm13.48,0-6,2.41v7.38l.16,0,5.61-2.24c.22-.09.23-.22.23-.4V33Zm-1.33-1.1-.09-.09c-1.71-.68-3.42-1.37-5.13-2a.64.64,0,0,0-.43,0c-1.24.52-2.5,1-3.72,1.51l-1.53.63,5.32,2.12a.55.55,0,0,0,.31,0Z"/><path class="cls-2" d="M81.56,36.29v4.42a.84.84,0,0,1-.63.88l-7.38,2.95a1,1,0,0,1-.63,0c-2.45-1-4.9-2-7.35-2.95a.82.82,0,0,1-.63-.91V31.9a.8.8,0,0,1,.54-.82l7.29-2.91a1.18,1.18,0,0,1,.94,0c2.42,1,4.83,1.94,7.25,2.9a.75.75,0,0,1,.56.83ZM80,32.94l-.35.12c-1.77.71-3.54,1.43-5.32,2.13a.42.42,0,0,0-.32.48v7l.14,0c1.87-.76,3.74-1.5,5.62-2.25.22-.08.23-.22.23-.4V33.3A1.43,1.43,0,0,0,80,32.94Zm-7.51,2.37-6-2.39v7.16c0,.24.13.29.3.36l5.41,2.16.29.1Zm6.19-3.5a.35.35,0,0,0-.09-.07c-1.72-.69-3.43-1.39-5.15-2.06a.64.64,0,0,0-.43,0c-.94.37-1.9.74-2.81,1.12l-2.37.94.07.07,5.2,2.07a.47.47,0,0,0,.33,0C75.21,33.22,76.94,32.52,78.71,31.81Z"/><path class="cls-2" d="M81.57,64.22v4.42a.87.87,0,0,1-.6.89c-2.46,1-4.91,2-7.38,2.94a1,1,0,0,1-.63,0c-2.45-1-4.9-2-7.34-2.94a.82.82,0,0,1-.64-.91V59.83a.8.8,0,0,1,.55-.82l7.28-2.9a1.21,1.21,0,0,1,1,0L81,59a.74.74,0,0,1,.56.83ZM80,60.87a3.6,3.6,0,0,0-.34.13l-5.33,2.12a.43.43,0,0,0-.32.49v7l.14,0,5.62-2.24c.22-.08.23-.22.23-.41v-6.7A1.43,1.43,0,0,0,80,60.87Zm-7.51,2.38-6-2.39a.74.74,0,0,0,0,.21V68c0,.24.12.29.29.36l5.42,2.16a2.46,2.46,0,0,0,.29.09Zm6.19-3.5-.08-.07q-2.58-1.05-5.17-2.07a.63.63,0,0,0-.43,0l-2.81,1.12-2.35.94.07.07c1.73.7,3.45,1.39,5.19,2.07a.47.47,0,0,0,.33,0C75.21,61.16,77,60.45,78.72,59.75Z"/><path class="cls-2" d="M57.9,50v4.42a.86.86,0,0,1-.64.89l-7.37,3a1.16,1.16,0,0,1-.64,0l-7.34-3a.81.81,0,0,1-.63-.91V45.63a.77.77,0,0,1,.54-.81c2.43-1,4.86-1.93,7.28-2.91a1.13,1.13,0,0,1,.95,0l7.25,2.9a.72.72,0,0,1,.55.82Zm-1.54-3.34L56,46.8c-1.77.7-3.54,1.42-5.33,2.12a.45.45,0,0,0-.32.49v7l.14,0,5.62-2.24c.23-.08.23-.22.23-.41V47A1,1,0,0,0,56.36,46.68Zm-7.5,2.37-6-2.39v7.16c0,.24.13.29.3.36,1.78.7,3.57,1.41,5.39,2.15l.29.09ZM55,45.55c0-.07-.08-.07-.08-.07L49.8,43.42a.63.63,0,0,0-.43,0c-.94.36-1.9.73-2.81,1.11l-2.34.91c0,.05.05.07.07.08l5.19,2.07a.47.47,0,0,0,.33,0Z"/><path class="cls-2" d="M57.9,72.48V76.9a.86.86,0,0,1-.6.9c-2.46,1-4.91,2-7.38,2.94a1,1,0,0,1-.63,0c-2.45-1-4.9-2-7.35-2.94a.82.82,0,0,1-.63-.92V68.1a.78.78,0,0,1,.53-.82l7.29-2.91a1.21,1.21,0,0,1,.95,0l7.24,2.9a.73.73,0,0,1,.56.83Zm-1.54-3.35-.35.12c-1.76.72-3.54,1.43-5.32,2.13a.44.44,0,0,0-.32.49v7h.14l5.62-2.25c.22-.09.23-.22.23-.41V69.53A1.78,1.78,0,0,0,56.36,69.13Zm-7.5,2.38-6-2.39v7.15c0,.24.13.29.3.36l5.42,2.16.29.1ZM55,68,55,67.93,49.8,65.87a.64.64,0,0,0-.43,0L46.56,67l-2.34,1,.07.07c1.72.69,3.45,1.39,5.19,2.07a.47.47,0,0,0,.33,0Z"/><path class="cls-2" d="M35,64.22v4.42a.87.87,0,0,1-.6.89c-2.46,1-4.92,2-7.38,2.94a1,1,0,0,1-.63,0c-2.46-1-4.91-2-7.35-2.94a.81.81,0,0,1-.63-.91V59.83A.79.79,0,0,1,19,59l7.28-2.91a1.21,1.21,0,0,1,.95,0L34.43,59a.73.73,0,0,1,.55.83Zm-1.52-3.35c-.15.06-.25.08-.35.13l-5.32,2.12a.43.43,0,0,0-.32.49v7l.13,0,5.63-2.24c.22-.08.22-.22.22-.41v-6.7C33.48,61.13,33.48,61,33.48,60.87ZM26,63.25l-6-2.39V68c0,.24.13.29.3.36l5.41,2.16.29.09Zm6.18-3.5s-.06-.07-.08-.07c-1.72-.7-3.43-1.39-5.16-2.07a.64.64,0,0,0-.43,0l-2.8,1.12-2.37.94.07.07q2.6,1,5.2,2.07a.44.44,0,0,0,.32,0c1.74-.65,3.48-1.36,5.24-2.06Z"/><path class="cls-2" d="M41.31,27.47V23.05a.78.78,0,0,1,.52-.8c2.48-1,5-2,7.44-3a1.28,1.28,0,0,1,.84.07c2.32.87,4.58,1.81,6.87,2.73l.42.17a.77.77,0,0,1,.51.8v8.63c0,.72-.1.87-.77,1.13L50,35.65a.94.94,0,0,1-.77,0L42,32.75c-.54-.21-.63-.38-.63-1V27.47Zm1.56-3.4a.33.33,0,0,0,0,.14v7.05c0,.2.11.24.26.3l3.75,1.5,2,.79V26.74a.35.35,0,0,0-.28-.38l-2.93-1.17Zm7.53,9.78,6-2.38V24.1l-.14,0-5.68,2.26c-.21.08-.22.21-.22.38v6.77A.57.57,0,0,1,50.4,33.85ZM44.17,22.94l.19.1,5.09,2a.68.68,0,0,0,.4,0c1.63-.64,3.26-1.3,4.89-2l.31-.16c-1.44-.57-2.83-1.07-4.17-1.69a2.7,2.7,0,0,0-2.53,0C47,21.86,45.62,22.36,44.17,22.94Z"/><rect class="cls-2" x="33.71" y="33.27" width="9.12" height="1.67" transform="translate(-11.63 22.36) rotate(-28.46)"/><rect class="cls-2" x="56.97" y="69.79" width="9.12" height="1.67" transform="translate(-26.2 37.82) rotate(-28.44)"/><rect class="cls-2" x="60.7" y="29.54" width="1.67" height="9.12" transform="translate(2.24 71.96) rotate(-61.55)"/><rect class="cls-2" x="37.44" y="65.57" width="1.67" height="9.12" transform="translate(-41.63 70.3) rotate(-61.5)"/><rect class="cls-2" x="20.46" y="49.52" width="12.54" height="1.67" transform="translate(-23.71 76.94) rotate(-89.83)"/><rect class="cls-2" x="72.46" y="43.39" width="1.67" height="13.03"/><line class="cls-3" x1="49.61" y1="29.91" x2="49.61" y2="42.94"/><line class="cls-3" x1="49.62" y1="52.71" x2="49.62" y2="65.74"/></g></g></g></g></svg>