<svg xmlns="http://www.w3.org/2000/svg" viewBox="0 0 158.3 158.3"><defs><style>.cls-1{fill:#11123c;}.cls-2{fill:#fff;}.cls-3{fill:none;stroke:#fff;stroke-miterlimit:10;stroke-width:2px;}</style></defs><title>multi_infras_1</title><g id="Layer_2" data-name="Layer 2"><g id="Layer_1-2" data-name="Layer 1"><rect class="cls-1" width="158.3" height="158.3" rx="79.15"/><path class="cls-2" d="M29.22,50a7.76,7.76,0,0,1,1.26-.82c3.71-1.51,7.44-3,11.15-4.48a1.75,1.75,0,0,1,1.4,0L54.6,49.37a1.23,1.23,0,0,1,.86,1.28q0,6.93,0,13.85a1.35,1.35,0,0,1-1.06,1.55c-3.84,1.54-7.67,3.09-11.52,4.61a1.69,1.69,0,0,1-1.11,0q-5.67-2.22-11.32-4.54a6.66,6.66,0,0,1-1.22-.87Zm2.45,2.29a2.41,2.41,0,0,0-.05.26c0,3.69,0,7.37,0,11.06a.7.7,0,0,0,.37.49l8.73,3.51a3,3,0,0,0,.37.08c0-.12,0-.19,0-.27q0-5.46,0-10.94c0-.39-.19-.5-.49-.62l-8-3.2Zm21.35,0L43.54,56.1V67.78l.24-.08c3-1.18,5.92-2.37,8.89-3.54.35-.14.36-.35.36-.64q0-4.64,0-9.26Zm-2.11-1.75c-.09-.08-.12-.12-.15-.13-2.7-1.09-5.41-2.18-8.12-3.24a1,1,0,0,0-.68,0C40,48,38,48.77,36.07,49.56l-2.41,1,8.42,3.35a.66.66,0,0,0,.48,0Z"/><path class="cls-2" d="M129.11,57.44c0,2.32,0,4.65,0,7a1.34,1.34,0,0,1-1,1.4c-3.89,1.55-7.78,3.12-11.68,4.66a1.46,1.46,0,0,1-1,0c-3.88-1.53-7.76-3.1-11.63-4.66a1.3,1.3,0,0,1-1-1.44q0-7,0-13.91a1.25,1.25,0,0,1,.86-1.29l11.53-4.6a1.86,1.86,0,0,1,1.5,0c3.82,1.54,7.64,3.06,11.47,4.59a1.17,1.17,0,0,1,.88,1.31Zm-2.42-5.3c-.24.09-.4.13-.55.2-2.81,1.12-5.61,2.25-8.43,3.36a.69.69,0,0,0-.51.77c0,3.52,0,7,0,10.55,0,.18,0,.35,0,.55l.23-.06q4.44-1.79,8.89-3.55c.35-.13.36-.35.36-.64V52.71C126.72,52.55,126.7,52.38,126.69,52.14ZM114.8,55.9l-9.45-3.78c0,.18,0,.25,0,.33,0,3.66,0,7.32,0,11,0,.38.2.46.47.57l8.57,3.42c.15.06.3.1.46.15Zm9.8-5.54a.59.59,0,0,0-.14-.11c-2.72-1.1-5.44-2.2-8.16-3.27a1,1,0,0,0-.68.05c-1.49.58-3,1.18-4.45,1.77l-3.74,1.49c.07.07.08.1.11.11,2.74,1.1,5.48,2.2,8.22,3.28a.77.77,0,0,0,.52,0C119.05,52.59,121.8,51.48,124.6,50.36Z"/><path class="cls-2" d="M129.13,101.66c0,2.32,0,4.65,0,7a1.36,1.36,0,0,1-.95,1.4c-3.9,1.55-7.78,3.12-11.68,4.66a1.46,1.46,0,0,1-1,0c-3.89-1.53-7.76-3.1-11.63-4.66a1.28,1.28,0,0,1-1-1.44q0-7,0-13.91a1.24,1.24,0,0,1,.86-1.29l11.53-4.6a1.86,1.86,0,0,1,1.5,0c3.81,1.54,7.64,3.06,11.46,4.59a1.17,1.17,0,0,1,.89,1.31Zm-2.43-5.3c-.23.09-.39.13-.54.2-2.81,1.12-5.62,2.25-8.43,3.36a.68.68,0,0,0-.51.77q0,5.28,0,10.55c0,.18,0,.35,0,.55l.22-.06q4.45-1.78,8.9-3.55c.35-.13.36-.35.36-.64V96.93C126.74,96.77,126.72,96.6,126.7,96.36Zm-11.88,3.76-9.46-3.78a3.19,3.19,0,0,0,0,.33q0,5.49,0,11c0,.38.2.46.47.57l8.57,3.42a4.15,4.15,0,0,0,.46.15Zm9.79-5.54c-.08-.07-.1-.1-.13-.11-2.72-1.1-5.44-2.2-8.17-3.27a1,1,0,0,0-.68,0c-1.49.58-3,1.18-4.45,1.77l-3.73,1.49c.06.07.08.1.11.11,2.74,1.1,5.47,2.2,8.22,3.28a.77.77,0,0,0,.52,0C119.06,96.81,121.82,95.7,124.61,94.58Z"/><path class="cls-2" d="M91.65,79.18c0,2.33,0,4.66,0,7a1.35,1.35,0,0,1-1,1.4c-3.89,1.56-7.78,3.13-11.68,4.67a1.59,1.59,0,0,1-1,0q-5.83-2.31-11.63-4.66a1.3,1.3,0,0,1-1-1.45q0-6.94,0-13.9a1.24,1.24,0,0,1,.86-1.29c3.84-1.54,7.69-3.06,11.53-4.61a1.86,1.86,0,0,1,1.5,0c3.82,1.54,7.64,3.06,11.47,4.59a1.15,1.15,0,0,1,.88,1.3Zm-2.43-5.29-.54.19c-2.81,1.12-5.61,2.26-8.43,3.36a.7.7,0,0,0-.51.78q0,5.27,0,10.55c0,.17,0,.35,0,.54l.22-.06c3-1.18,5.93-2.37,8.9-3.54.35-.14.36-.36.36-.65V74.45C89.26,74.29,89.24,74.13,89.22,73.89ZM77.34,77.65l-9.46-3.78a3.07,3.07,0,0,0,0,.32c0,3.66,0,7.33,0,11,0,.38.2.46.47.57C71.17,86.88,74,88,76.88,89.17l.46.15Zm9.79-5.54C87.05,72,87,72,87,72c-2.72-1.09-5.44-2.19-8.17-3.27a1.08,1.08,0,0,0-.68.06c-1.48.57-3,1.17-4.44,1.77L70,72c.06.07.08.11.11.12l8.22,3.28a.77.77,0,0,0,.52,0Z"/><path class="cls-2" d="M91.65,114.74c0,2.32,0,4.65,0,7a1.34,1.34,0,0,1-.94,1.41c-3.9,1.55-7.78,3.12-11.68,4.66a1.46,1.46,0,0,1-1,0c-3.89-1.54-7.76-3.1-11.64-4.66a1.29,1.29,0,0,1-1-1.45q0-6.94,0-13.9a1.24,1.24,0,0,1,.85-1.29q5.77-2.3,11.54-4.61a1.86,1.86,0,0,1,1.5,0c3.81,1.54,7.64,3.06,11.46,4.59a1.17,1.17,0,0,1,.89,1.31Zm-2.43-5.3-.55.19c-2.8,1.13-5.61,2.26-8.42,3.36a.69.69,0,0,0-.51.78c0,3.52,0,7,0,10.55,0,.18,0,.35,0,.54l.22,0q4.45-1.78,8.9-3.55c.34-.14.36-.35.36-.65,0-3.53,0-7.07,0-10.6C89.25,109.84,89.24,109.68,89.22,109.44ZM77.34,113.2l-9.46-3.78c0,.18,0,.25,0,.32,0,3.67,0,7.33,0,11,0,.38.21.46.47.57l8.58,3.42a4.15,4.15,0,0,0,.46.15Zm9.79-5.54-.13-.12c-2.72-1.09-5.44-2.19-8.17-3.26a1,1,0,0,0-.68,0c-1.49.58-3,1.18-4.45,1.77L70,107.59c.06.07.08.1.11.11,2.73,1.1,5.47,2.2,8.21,3.28a.8.8,0,0,0,.53,0C81.58,109.89,84.34,108.78,87.13,107.66Z"/><path class="cls-2" d="M55.4,101.66c0,2.32,0,4.65,0,7a1.36,1.36,0,0,1-.95,1.4c-3.89,1.55-7.78,3.12-11.68,4.66a1.46,1.46,0,0,1-1,0c-3.89-1.53-7.76-3.1-11.63-4.66a1.28,1.28,0,0,1-1-1.44q0-7,0-13.91A1.25,1.25,0,0,1,30,93.39l11.53-4.6a1.86,1.86,0,0,1,1.5,0c3.82,1.54,7.64,3.06,11.47,4.59a1.17,1.17,0,0,1,.88,1.31ZM53,96.36c-.24.09-.4.13-.55.2-2.81,1.12-5.61,2.25-8.43,3.36a.69.69,0,0,0-.51.77c0,3.52,0,7,0,10.55,0,.18,0,.35,0,.55l.22-.06q4.45-1.78,8.9-3.55c.35-.13.36-.35.36-.64V96.93C53,96.77,53,96.6,53,96.36Zm-11.89,3.76-9.46-3.78a3.19,3.19,0,0,0,0,.33q0,5.49,0,11c0,.38.2.46.47.57l8.57,3.42a4.15,4.15,0,0,0,.46.15Zm9.79-5.54c-.08-.07-.1-.1-.13-.11-2.72-1.1-5.44-2.2-8.17-3.27a1,1,0,0,0-.68,0c-1.48.58-3,1.18-4.44,1.77l-3.74,1.49c.06.07.08.1.11.11,2.74,1.1,5.47,2.2,8.22,3.28a.77.77,0,0,0,.52,0C45.33,96.81,48.09,95.7,50.88,94.58Z"/><path class="cls-2" d="M65.39,43.49v-7a1.26,1.26,0,0,1,.82-1.27C70.14,33.63,74.07,32,78,30.51a2,2,0,0,1,1.33.1C83,32,86.58,33.48,90.2,34.93l.67.27a1.22,1.22,0,0,1,.8,1.27q0,6.84,0,13.67c0,1.14-.15,1.37-1.22,1.79L79.17,56.44a1.55,1.55,0,0,1-1.23,0L66.47,51.85c-.86-.34-1-.61-1-1.55V43.49Zm2.47-5.38a1,1,0,0,0,0,.21c0,3.72,0,7.44,0,11.16,0,.32.18.39.41.48l5.94,2.37,3.13,1.26c0-.2,0-.32,0-.45,0-3.6,0-7.21,0-10.81a.56.56,0,0,0-.43-.61c-1.55-.6-3.1-1.22-4.65-1.84ZM79.79,53.59l9.43-3.77V38.15L89,38.2c-3,1.19-6,2.39-9,3.57-.33.13-.34.33-.34.6,0,3.57,0,7.15,0,10.72C79.75,53.23,79.77,53.37,79.79,53.59ZM69.92,36.31l.3.16c2.69,1.07,5.37,2.15,8.06,3.21a1,1,0,0,0,.63,0c2.58-1,5.17-2.06,7.75-3.1.14-.06.27-.13.49-.25-2.28-.91-4.49-1.69-6.61-2.68a4.31,4.31,0,0,0-4,0C74.42,34.61,72.21,35.39,69.92,36.31Z"/><line class="cls-3" x1="54.24" y1="57.42" x2="66.93" y2="50.54"/><line class="cls-3" x1="91.06" y1="115.23" x2="103.76" y2="108.35"/><line class="cls-3" x1="103.76" y1="57.42" x2="91.06" y2="50.54"/><line class="cls-3" x1="66.93" y1="114.47" x2="54.24" y2="107.58"/><line class="cls-3" x1="42.34" y1="69.79" x2="42.28" y2="89.64"/><line class="cls-3" x1="116.03" y1="68.69" x2="116.03" y2="89.32"/><line class="cls-2" x1="78.53" y1="47.35" x2="78.53" y2="67.98"/><line class="cls-2" x1="78.55" y1="83.44" x2="78.55" y2="104.07"/></g></g></svg>