<svg xmlns="http://www.w3.org/2000/svg" viewBox="0 0 300 300"><defs><style>.cls-1{fill:#b8eee9;}.cls-2{fill:#fff;}</style></defs><title>capacity_building</title><g id="Layer_2" data-name="Layer 2"><g id="Layer_1-2" data-name="Layer 1"><rect class="cls-1" width="300" height="300" rx="37.13"/><path class="cls-2" d="M245.58,63.79c-1.21,1.24-3.41,2.62-3.3,3.75.14,1.41,2.25,2.59,3.41,4,.88,1,1.45,1.07,2.46,0q7.2-7.38,14.59-14.59c1-1,1.11-1.57,0-2.62-4-3.89-7.94-7.89-11.89-11.84s-4.06-4.07-8.06.11c-.81.85-.87,1.32,0,2.14,2.37,2.26,4.66,4.61,7.16,7.1a8.38,8.38,0,0,1-1,.15q-35.94,0-71.88,0a4.44,4.44,0,0,1-2.67-1C169.29,47.5,164.16,43.91,159,40.4a15.29,15.29,0,0,0-18,.07c-5.05,3.46-10.08,6.92-15.09,10.43A5.82,5.82,0,0,1,122.34,52q-35-.06-70.07,0c-.62,0-1.32.27-2.06-.35,1.43-1.4,2.83-2.74,4.21-4.12,4-4,3.92-3.92-.18-7.89-1-.94-1.44-.82-2.31.06-4.87,5-9.77,9.89-14.75,14.74-1.06,1-.89,1.54.06,2.46,4,3.91,7.93,7.89,11.89,11.85s4.06,4.06,8.06,0c1-1,.78-1.48-.1-2.31-2.33-2.19-4.59-4.47-7.19-7h63.63l-2.12,1.48Q75.35,85.71,39.27,110.56a3.4,3.4,0,0,0-1.77,3.25,18.11,18.11,0,0,0,12.78,17.13,2.11,2.11,0,0,1,1.81,2.44c-.08,9.83-.13,19.66,0,29.48a14,14,0,0,1-2.71,9.1c-7.92,11-5.79,28.61,4.35,39A18.74,18.74,0,0,1,58,216.66a14.81,14.81,0,0,0,4.76,5.68c.7.55,1.86.83,1.4,2.22s-.6,2.38-2.29,2.89c-15.7,4.74-24.53,16.9-24.39,33.21,0,1.5.41,1.84,1.86,1.84q110.65-.06,221.31,0c1.47,0,1.87-.35,1.86-1.84-.08-8.55,0-17.09,0-25.63a28.55,28.55,0,0,0-5.24-17,2.23,2.23,0,0,1-.1-2.83,39.43,39.43,0,0,0,5.33-19.87c0-8.47.11-16.94,0-25.4-.16-10-3.45-19-10.5-26-3.2-3.21-4.48-6.36-4-10.67.14-1.33.46-1.88,1.74-2.28a18.14,18.14,0,0,0,12.88-17,3.56,3.56,0,0,0-1.87-3.44q-36.11-24.83-72.15-49.73c-.56-.39-1.08-.82-1.73-1.32H250C248.37,61.05,247,62.4,245.58,63.79Zm-190,137.56a20,20,0,0,1-3.22-8.75,25.91,25.91,0,0,1,.33-11c2.2-7.53,7.3-12.29,15-13.16a76,76,0,0,1,20.33.15,17.78,17.78,0,0,1,14.77,17.31c.15,5.34-.4,10.48-3.56,15.58-.31-8.05-3.47-11.81-10.94-12.8-6.55-.87-11.62-3.56-14.34-9.83-.31-.71-.67-.92-1.37-.66l-1.28.43C66.2,180.3,66.2,180.3,69,185c.19.32.4.63.72,1.14-1.39.49-2.69,1-4,1.42C57.85,190.2,56,192.65,55.59,201.35Zm3.69-69.59a2.71,2.71,0,0,1,1.31-2.58q44.05-30.43,88-61c1.21-.84,1.91-.59,2.92.12q43.9,30.43,87.86,60.82c2.38,1.64.77,3.81,1.43,5.72-20.55-8.34-37.58-3.95-51.5,13.25a30.18,30.18,0,0,0-7.49-14.26,28.38,28.38,0,0,0-20.94-9.23c-6.48-.06-13-.49-19.46.33a26.18,26.18,0,0,0-12.95,5.52,18.9,18.9,0,0,1-4.44,2.61c-10.46,4.35-16,15.58-13.36,27,.17.73.33,1.47.57,2.19a11.47,11.47,0,0,1-.23,8.4c-3.4,8.74,2.8,18.19,12.25,19.07a2.13,2.13,0,0,1,2.2,1.86,17.85,17.85,0,0,0,6.61,9.21c.6.46,1.9.5,1.34,1.92-.47,1.19-.72,2.2-2.32,2.64a47.2,47.2,0,0,0-22.94,14.23,44.88,44.88,0,0,0-6.61,9.44c-.56,1.09-1,1.42-2.18.75a19.31,19.31,0,0,0-6.32-2.38c-1.77-.3-1.92-1.55-2.35-2.84s.62-1.69,1.34-2.25a14.73,14.73,0,0,0,4.79-5.65A19.45,19.45,0,0,1,101.1,211c10.22-10.44,12.23-28,4.4-39.21a24.25,24.25,0,0,0-20.37-10.84c-6.41-.09-12.84-.51-19.24.34a28.33,28.33,0,0,0-6.21,1.86c-.61-.31-.36-.82-.36-1.21C59.3,151.87,59.33,141.81,59.28,131.76Zm65.33,43.69c0,2,0,4.08,0,6.11,0,.95-.32,1.13-1.19,1a7.31,7.31,0,0,1-.08-14.39c1-.16,1.31.14,1.27,1.15C124.57,171.37,124.62,173.41,124.61,175.45ZM124,160.9a11.81,11.81,0,0,0-4.19.84c-.62.23-1.1.39-1.36-.48-1.87-6.24-1.94-13.37,4.24-18.92a9.85,9.85,0,0,1,3.6-2.3,21.44,21.44,0,0,0,7.13-4.13,19.13,19.13,0,0,1,11.77-4c2.65-.07,5.29,0,8.82,0,2.88.17,6.66-.28,10.42.37a22.43,22.43,0,0,1,17.24,28.69c-.28.88-.62,1.3-1.54.81a3,3,0,0,0-.42-.16c-2.32-.88-5.1.05-7.08-1s-3.16-3.34-5.2-4.56a16.59,16.59,0,0,0-8.15-2.4c-1.89,0-3.78,0-5.67,0a7.25,7.25,0,0,1-7.22-7.21c-.06-2-.07-3.93,0-5.89,0-1-.22-1.39-1.35-1.44-5.94-.24-5.93-.28-5.93,5.68,0,4.22,0,4.28-3.89,5.76-4.61,1.74-8.14,4.54-9.75,9.36A1.33,1.33,0,0,1,124,160.9Zm51.33,8.39c0-1.16.41-1.22,1.31-1.09a7.29,7.29,0,0,1,.35,14.28c-1.07.25-1.64.24-1.62-1.17Q175.49,175.3,175.34,169.29Zm-43.46-4.46a7.19,7.19,0,0,1,4.52-7c.21-.1.44-.14.64-.24,3-1.51,5.7-2.56,8.64.66,1.92,2.11,5,2.55,8,2.56,1.81,0,3.63,0,5.44,0a9.24,9.24,0,0,1,9,9c.09,2.79,0,5.59,0,8.38s0,5.44,0,8.16a10.84,10.84,0,0,1-10.67,10.73q-7.47.13-15,0a10.79,10.79,0,0,1-10.62-10.77C131.82,179.19,131.86,172,131.88,164.83Zm4.58,48.46,7,5.31-9.65,5.77c-1.17-3.43-2.29-6.75-3.44-10.06-.15-.45-.28-.79.22-1.15A5.62,5.62,0,0,1,136.46,213.29Zm4.24-5.84c-.88-.63-.75-1.29-.49-2.15s.87-1,1.7-1c2.71.06,5.43,0,8.14,0s5.43.06,8.14,0c.89,0,1.37.14,1.66,1a1.6,1.6,0,0,1-.57,2.13c-2.81,2-5.59,4.09-8.33,6.22a1.31,1.31,0,0,1-1.93,0Q144.91,210.49,140.7,207.45Zm24.09,5c.64-.46,4.42.36,4.86.93.3.39,0,.71-.09,1-1,3-2.07,5.94-3,8.94-.3.95-.67.92-1.37.49-2.37-1.45-4.75-2.88-7.13-4.31l-1.51-.94C159.4,216.44,162.08,214.4,164.79,212.42Zm3.56-7.15c-1.47-.37-1.33-1.64-1.79-2.6s.55-1.23,1.08-1.61a18,18,0,0,0,7-9.7c.26-.91.5-1.53,1.73-1.54a13.61,13.61,0,0,0,6.38-2c-.52,9.69.26,18.87,4.89,27.34A51.94,51.94,0,0,0,168.35,205.27ZM62.78,208c0-1.43,0-2.87,0-4.3s0-2.57,0-3.86c0-3,.65-3.92,3.6-4.91a19,19,0,0,0,1.94-.61c4.08-1.86,8-2.82,12.25-.05,2,1.28,4.62,1.25,7,1.61,3.32.51,4.22,1.61,4.23,5,0,2.42,0,4.83,0,7.25A10.88,10.88,0,0,1,81,218.91c-2.42.05-4.83.05-7.25,0A10.87,10.87,0,0,1,62.78,208Zm21,22.13c-2.74,4.32-10.3,4.31-13,0-.78-1.27-.08-2.34.2-3.45s1.26-.44,1.91-.47c1.43-.07,2.87,0,4.3,0h0c1.44,0,2.87-.07,4.3,0,.72,0,1.78-.75,2.11.48S84.58,228.85,83.77,230.12Zm23.88,25.12c-10.2-.06-20.4,0-30.6,0-10,0-20.09-.06-30.13,0-2,0-2-.66-1.62-2.18,2.54-9.32,8.33-15.5,17.55-18.48a2.26,2.26,0,0,1,2.88.76,15.15,15.15,0,0,0,23.09,0,2.29,2.29,0,0,1,2.87-.81c9.31,3,15.08,9.29,17.62,18.7C109.78,255,109.21,255.25,107.65,255.24Zm87.69,0H150.92c-10.65,0-21.3,0-31.95,0-1.3,0-1.91-.16-2.16-1.72a30.86,30.86,0,0,0-8.75-17.25,2.17,2.17,0,0,1-.49-3.06,41.65,41.65,0,0,1,15.93-16.69c2,5.76,3.89,11.3,5.7,16.88.52,1.58,1,1.71,2.43.85,5.51-3.42,11.12-6.67,16.64-10.07a2.85,2.85,0,0,1,3.47,0c5.45,3.36,11,6.57,16.45,9.94,1.49.93,2.12,1,2.71-.91,1.58-5.1,3.41-10.13,5.08-15.21.4-1.22.81-1.45,2-.67,12.94,8.77,19.3,21,19.29,36.56C197.22,255.54,196.26,255.21,195.34,255.21Zm59.92-1.5c0,1.14-.24,1.53-1.48,1.53q-23.9-.06-47.79,0c-1.34,0-1.6-.43-1.58-1.66a48.11,48.11,0,0,0-9.73-30.42c-1.42-1.91.49-2.51,1.22-3.45,1-1.32,1.3.32,1.68.75a16.29,16.29,0,0,0,23.46,1.4c1.16-1,1.74-1.3,3-.07,6.39,6.1,17.67,6.43,24.66-2.75a20.81,20.81,0,0,1,6.45,14.51C255.35,240.26,255.2,247,255.26,253.71Zm-32.67-56.56a18.15,18.15,0,0,1-18.14-18.38c0-3.09-.24-6.19.86-9.19a15.86,15.86,0,0,1,7.52-8.68,1.84,1.84,0,0,1,2.56.33A44.34,44.34,0,0,0,237,172.84c3.19.71,3.75,1.73,3.71,5.9C240.61,189.08,232.67,197.14,222.59,197.15Zm13.94,15.53c1.37.38,2.74.79,4.09,1.25,2.34.79,2.38,1.08.45,2.75a8.61,8.61,0,0,1-11.08.4A18.32,18.32,0,0,0,234.7,213C235.25,212.22,235.91,212.5,236.53,212.68Zm-7.65-4.12a8,8,0,0,1-6,3.11,8.19,8.19,0,0,1-5.27-1.77c-2.1-1.66-2.32-3.25-.91-5.49.39-.63.86-.52,1.34-.43a23.64,23.64,0,0,0,9,0c.56-.11,1.3-.33,1.44.57C228.67,205.88,230.08,207.08,228.88,208.56Zm-18.47,4.34a15,15,0,0,0,4.17,3.73c.73.45.46.78-.13,1.1a9.68,9.68,0,0,1-4.9,1.19,9.07,9.07,0,0,1-6.21-2.94c-.72-.75-1-1.31.31-1.7,1.79-.53,3.56-1.14,5.35-1.69A1.13,1.13,0,0,1,210.41,212.9Zm44.44-47c.78,5.65.14,11.33.44,17-.3,5.81.39,11.64-.49,17.43a32.88,32.88,0,0,1-3.2,9.85c-.33.67-.52,1.44-1.56.65a29.85,29.85,0,0,0-12.17-5.21c-2.14-.46-2-2.18-2.56-3.53s.85-1.58,1.54-2.07c8.55-6.1,11.9-14.56,11-24.79-.41-4.73-3.9-8.21-8.9-9.32a40,40,0,0,1-18.26-9.46,5.28,5.28,0,0,1-1.77-4.54c.06-5.74,0-5.69-5.8-5.56-1.25,0-1.64.45-1.43,1.56.74,3.94-.87,6.08-4.4,8.18-6.66,4-9.82,10.44-10.1,18.2-.16,4.54-.16,9.08,1.49,13.42a26,26,0,0,0,9.77,12.44c.66.45,2,.64,1.38,1.91s-.21,2.89-2.1,3.38c-4.53,1.18-9,2.54-12.83,5.42-1,.76-1.09-.19-1.35-.7A31.25,31.25,0,0,1,190,196c-.07-8.77-.13-17.53,0-26.3.23-16.62,13.8-30.62,30.47-31.6C237.57,137.1,252.55,149.2,254.85,165.88Zm-16.64-62c5.1,3.51,10.14,7.1,15.31,10.51,1.47,1,1.57,1.86.95,3.33a11.39,11.39,0,0,1-4.06,5c-3,2.09-4.65,2.07-7.68,0q-45.31-31.38-90.61-62.8c-1.51-1.05-2.47-1.21-4.1-.08q-45.81,31.85-91.7,63.6a4.14,4.14,0,0,1-4.37.52,11.18,11.18,0,0,1-6.34-6.1c-.68-1.51-.59-2.45,1-3.51Q71.71,97.12,96.73,79.78q23.94-16.52,47.89-33a9.69,9.69,0,0,1,5.93-2c1.91,0,3.79,1.22,5.67,2.52Z"/><path class="cls-2" d="M145.84,189.9c-1.73,0-3.47-.06-5.2,0-1.12.05-1.52-.21-1.55-1.46-.14-5.82-.18-5.82,5.53-5.82h5a7.86,7.86,0,0,0,7.34-4c.61-1.06,1.14-1.19,2.11-.57a24.08,24.08,0,0,0,2.21,1.12c3.27,1.65,3.28,1.66,1,4.66a15.06,15.06,0,0,1-11.85,6c-1.51.06-3,0-4.53,0Z"/></g></g></svg>