<svg xmlns="http://www.w3.org/2000/svg" viewBox="0 0 400 400"><defs><style>.cls-1{fill:#b8eee9;}.cls-2{fill:#8c8c8c;}</style></defs><title>governance_policy_2</title><g id="Layer_2" data-name="Layer 2"><g id="Layer_1-2" data-name="Layer 1"><rect class="cls-1" width="400" height="400" rx="200"/><path class="cls-2" d="M170,196.25c-19.29,0-38.58,0-57.87,0-1.73,0-2.2-.38-2.17-2.15.11-5.39,0-5.39,5.44-5.39q56.12,0,112.23-.05c1.93,0,2.46.42,2.4,2.39-.15,5.16,0,5.16-5.2,5.16Z"/><path class="cls-2" d="M155,267.47c-14.29,0-28.58,0-42.87,0-1.74,0-2.2-.39-2.17-2.15.11-5.39,0-5.39,5.44-5.39q41.13,0,82.24-.05c1.93,0,2.46.42,2.4,2.39-.15,5.15,0,5.15-5.21,5.15Z"/><path class="cls-2" d="M147.48,158.76c11.79,0,23.58,0,35.38,0,1.73,0,2.2.38,2.16,2.15-.11,5.39,0,5.39-5.44,5.39-22.41,0-44.82,0-67.23.05-1.94,0-2.47-.43-2.41-2.39.15-5.15,0-5.16,5.21-5.16Z"/><path class="cls-2" d="M145.49,181.25c-11.17,0-22.34,0-33.5.05-1.65,0-2.06-.4-2-2,.08-5.5,0-5.5,5.56-5.5,21.16,0,42.33,0,63.49,0,1.83,0,2.31.45,2.27,2.28-.12,5.26,0,5.26-5.33,5.26Z"/><path class="cls-2" d="M207.71,143.77c10.46,0,20.92,0,31.39-.05,1.75,0,2.19.41,2.16,2.16-.11,5.38,0,5.38-5.45,5.38-19.91,0-39.83,0-59.74.06-1.95,0-2.45-.45-2.4-2.4.15-5.15.05-5.15,5.22-5.15Z"/><path class="cls-2" d="M143.5,282.47c-10.47,0-20.93-.05-31.39,0-1.76,0-2.2-.4-2.16-2.15.1-5.39,0-5.39,5.44-5.39,19.91,0,39.83,0,59.74-.05,2,0,2.45.44,2.4,2.4-.15,5.15-.05,5.15-5.22,5.15Z"/><path class="cls-2" d="M173.73,113.78c-9.37,0-18.74,0-28.11,0-1.53,0-1.94-.37-1.93-1.91,0-5.62,0-5.62,5.67-5.62,17.42,0,34.83,0,52.24,0,1.75,0,2.2.39,2.17,2.15-.11,5.39,0,5.39-5.44,5.39Z"/><path class="cls-2" d="M173.91,128.77c-9.29,0-18.59-.07-27.88.06-2,0-2.39-.59-2.34-2.45.13-5.1,0-5.1,5.26-5.1,17.41,0,34.82,0,52.24,0,1.89,0,2.69.22,2.6,2.44-.21,5.1-.07,5.1-5.28,5.1Z"/><path class="cls-2" d="M138.11,143.77c8.74,0,17.49,0,26.24,0,1.51,0,1.93.37,1.92,1.91,0,5.62,0,5.62-5.67,5.62-16.16,0-32.32,0-48.49.05-1.74,0-2.2-.39-2.17-2.15.11-5.39,0-5.39,5.44-5.39Z"/><path class="cls-2" d="M137.87,211.24c-8.66,0-17.33,0-26,0-1.53,0-1.93-.39-1.92-1.91,0-5.62,0-5.62,5.67-5.62,16.17,0,32.33,0,48.5-.05,1.75,0,2.19.4,2.16,2.16-.11,5.38,0,5.38-5.45,5.38Z"/><path class="cls-2" d="M215,173.76c8.12,0,16.24,0,24.36,0,1.53,0,1.93.39,1.92,1.92,0,5.61,0,5.61-5.67,5.61-14.92,0-29.83,0-44.75.05-1.75,0-2.19-.41-2.16-2.16.11-5.38,0-5.38,5.45-5.38Z"/><path class="cls-2" d="M173.73,226.24c-8.12,0-16.24,0-24.36,0-1.51,0-1.94-.35-1.93-1.9,0-5.63,0-5.63,5.66-5.63,14.92,0,29.83,0,44.75,0,1.73,0,2.21.37,2.17,2.14-.11,5.4,0,5.4-5.44,5.4Z"/><path class="cls-2" d="M216.6,166.26c-7.42,0-14.83,0-22.25,0-1.53,0-1.93-.39-1.92-1.92,0-5.62,0-5.62,5.67-5.62,13.67,0,27.33,0,41,0,1.75,0,2.19.4,2.16,2.15-.11,5.39,0,5.39-5.45,5.39Z"/><path class="cls-2" d="M132.49,245c6.87,0,13.74.05,20.61,0,1.52,0,1.93.38,1.92,1.91,0,5.63,0,5.63-5.66,5.63-12.42,0-24.83,0-37.25,0-1.74,0-2.2-.38-2.16-2.15.1-5.39,0-5.39,5.43-5.39Z"/><path class="cls-2" d="M181.23,252.48c-5.7,0-11.4,0-17.1,0-1.32,0-1.67-.34-1.69-1.67-.06-5.86-.11-5.86,5.66-5.86,10,0,20,0,30,0,1.52,0,1.93.37,1.92,1.9,0,5.63,0,5.63-5.67,5.63Z"/><path class="cls-2" d="M125,218.74c4.45,0,8.9,0,13.35,0,1.32,0,1.67.35,1.68,1.67.07,5.86.12,5.86-5.66,5.86-7.49,0-15-.05-22.49,0-1.52,0-1.93-.38-1.92-1.92,0-5.62,0-5.62,5.67-5.62Z"/><path class="cls-2" d="M186.85,203.75c3.82,0,7.65.05,11.47,0,1.33,0,1.67.34,1.69,1.67.06,5.85.11,5.85-5.67,5.85-6.24,0-12.49-.05-18.73,0-1.53,0-1.93-.38-1.92-1.91,0-5.62,0-5.62,5.66-5.62Z"/><path class="cls-2" d="M196,282.47c-3.2,0-6.41-.05-9.61,0-1.12,0-1.4-.31-1.44-1.43-.23-6.09-.27-6.09,5.89-6.09,5,0,10,0,15,0,1.33,0,1.67.35,1.68,1.67.07,5.86.12,5.86-5.66,5.86Z"/><path class="cls-2" d="M263.74,130.2a6.7,6.7,0,0,0-2.16-5.16q-17.7-17.58-35.28-35.29a7.23,7.23,0,0,0-5.59-2.25q-63.84.07-127.69,0c-4.49,0-5.52,1-5.52,5.47V306.89c0,4.58,1,5.57,5.66,5.57H236.31c4.9,0,4.77,0,5-4.95.08-2.2-.62-2.6-2.67-2.6Q168,305,97.33,305c-1.62,0-2.39-.12-2.39-2.16Q95,200,95,97.15c0-1.75.4-2.16,2.15-2.16q59.74.09,119.48,0c1.73,0,2.19.37,2.17,2.15-.1,10.15,0,20.3,0,30.45,0,3.68,1.24,4.93,4.89,4.93,10.15,0,20.3,0,30.45,0,1.7,0,2.21.32,2.19,2.13-.09,12.49-.05,25-.05,37.48,0,5.44,0,5.36,5.37,5.46,1.71,0,2.19-.34,2.18-2.13Q263.63,152.82,263.74,130.2ZM248.83,125c-6.85,0-13.71,0-20.57.06-1.54,0-2.12-.23-2.09-2,.1-7.39,0-14.78,0-22.42l24.16,24.18C250.06,125.37,249.37,125,248.83,125Z"/><path class="cls-2" d="M312.44,230.79V208.72c0-4-1.58-5.33-5.54-4.82a44.83,44.83,0,0,1-11,.1,49.38,49.38,0,0,1-32.55-17c-2.23-2.55-4.52-2.58-6.74-.11q-17.73,19.82-44.17,17c-3.35-.36-5,1.11-5,4.5,0,13.11-.17,26.23,0,39.34.31,18.83,8.06,34.05,23.23,45.25C239.2,299.18,248,305,256.64,311c2.93,2,3.73,2,6.71,0,8.2-5.67,16.45-11.28,24.59-17.06,14.05-10,22.25-23.49,24.13-40.7C312.94,245.26,312.18,237.28,312.44,230.79Zm-7.88,22.26c-1.64,13.61-7.85,24.78-18.73,33-8,6.07-16.47,11.54-24.72,17.29-.67.47-1.18.8-2.05.18-8.94-6.4-18.45-12-26.89-19.07C221,275.13,215.31,262.82,215,248.24c-.23-11.55,0-23.11-.09-34.67,0-1.51.34-1.93,1.91-1.89a56,56,0,0,0,42-16.23c1-1,1.52-.74,2.4.1,11.69,11.15,25.62,16.58,41.77,16.13,1.71,0,2,.44,2,2-.1,6.09,0,12.18,0,19.53C304.7,239,305.4,246.05,304.56,253.05Z"/><path class="cls-2" d="M297.44,223.57c0-3.16-1.12-4.43-4.18-4.8A64.44,64.44,0,0,1,263.13,207c-2.71-1.94-3.62-1.93-6.27,0a64.38,64.38,0,0,1-30.13,11.8c-3.1.38-4.25,1.62-4.26,4.73,0,8.12-.14,16.24,0,24.36.29,13.56,5.85,24.58,16.72,32.71,5.92,4.44,12.15,8.47,18.21,12.72a4.07,4.07,0,0,0,5.17-.07c6.07-4.25,12.25-8.33,18.22-12.72a40.4,40.4,0,0,0,15.27-22.61c1.92-7,1.17-14.11,1.35-20.4C297.44,232.32,297.45,228,297.44,223.57ZM290,239.28c-.15,4.46.42,9.63-.64,14.72a33.79,33.79,0,0,1-14.24,21.46c-4.54,3.17-9.13,6.27-13.64,9.48a2,2,0,0,1-2.84.05c-4.74-3.4-9.65-6.59-14.37-10-9.32-6.8-14.07-16-14.24-27.57-.1-6.48,0-13,0-19.43,0-1.45.2-2.1,1.86-2.4a70.05,70.05,0,0,0,26.88-10.82,2,2,0,0,1,2.66.06,68.91,68.91,0,0,0,26.44,10.64c1.63.28,2.32.81,2.23,2.62C289.82,231.56,290,235.08,290,239.28Z"/><path class="cls-2" d="M256.25,271.21a4,4,0,0,1-2.58-1c-4.5-3.37-9-6.77-13.5-10.09-1-.72-1-1.19-.33-2.18,3.44-4.89,3.41-4.91,8.2-1.31,2,1.5,4.06,2.91,6,4.52,1.17,1,1.75.8,2.66-.38,7.14-9.27,14.38-18.46,21.5-27.75,1.07-1.39,1.68-1.47,3-.37,4.17,3.39,4.22,3.33.91,7.6Q271,254.6,259.84,268.92C258.9,270.14,257.9,271.17,256.25,271.21Z"/></g></g></svg>