<svg xmlns="http://www.w3.org/2000/svg" viewBox="0 0 125 350.25"><defs><style>.cls-1,.cls-2{fill:none;stroke:#000;stroke-miterlimit:10;}.cls-2{stroke-dasharray:5.41 5.41;}.cls-3{fill:#f7db27;}.cls-4{fill:#3d68a3;}</style></defs><title>ground water level to rainfall_2</title><g id="Layer_2" data-name="Layer 2"><g id="Layer_1-2" data-name="Layer 1"><line class="cls-1" x1="62.5" y1="145.97" x2="62.5" y2="148.47"/><line class="cls-2" x1="62.5" y1="153.88" x2="62.5" y2="205.28"/><line class="cls-1" x1="62.5" y1="207.99" x2="62.5" y2="210.49"/><polygon points="58.51 147.14 62.5 140.23 66.49 147.14 58.51 147.14"/><polygon points="58.51 209.32 62.5 216.23 66.49 209.32 58.51 209.32"/><circle class="cls-3" cx="62.5" cy="287.75" r="62.5"/><path class="cls-4" d="M105.45,282.7c-.4,5.46-4,9.59-9.4,10.36-3.1.45-6.25.94-9.43.19a13.15,13.15,0,0,0-4.05.11c-1.28.1-2.56.19-3.85.23-3.09.1-6.15-.29-9.23-.3-2.17,0-4.31.49-6.47.25a46.34,46.34,0,0,0-8-.32c-5,.36-10,.26-15,.41a66.13,66.13,0,0,1-9.12-.38,14.41,14.41,0,0,1-4.66-.87,10.79,10.79,0,0,1-6.64-8.78,11.1,11.1,0,0,1,5.58-11.4s0,0,.05,0c1.91-.63,2.34-2,2.27-3.88-.25-6,4.59-11,10.52-11.47a11.93,11.93,0,0,1,5.27.71,2.44,2.44,0,0,0,3.52-1.61,15.22,15.22,0,0,1,11.37-10,5.48,5.48,0,0,0,1.44-.33h3.67a15,15,0,0,1,12.13,8.34,4.11,4.11,0,0,0,3.2,2.58,10.5,10.5,0,0,1,7.47,5.86,2.49,2.49,0,0,0,2.36,1.44,10.69,10.69,0,0,1,7.83,3.54,11.82,11.82,0,0,1,2.14,3.28,2.79,2.79,0,0,0,1.31,1.4,11.19,11.19,0,0,1,5.56,7.29,8.62,8.62,0,0,1,.18,2.21A6.88,6.88,0,0,1,105.45,282.7Z"/><path class="cls-4" d="M87.09,320.28c.12,1.14.24,2.17.35,3.21.08.71.14,1.43.24,2.14a3.28,3.28,0,0,1-2.25,3.58,3.21,3.21,0,0,1-2.83-5.67C84.05,322.47,85.52,321.41,87.09,320.28Z"/><path class="cls-4" d="M87.09,297.23c.12,1.11.24,2.12.35,3.13.08.74.14,1.47.24,2.21a3.29,3.29,0,0,1-2.22,3.58,3.21,3.21,0,0,1-2.84-5.68C84.08,299.4,85.54,298.35,87.09,297.23Z"/><path class="cls-4" d="M57,297.32c.18,1.91.39,3.74.54,5.59a3,3,0,0,1-1.74,3,3,3,0,0,1-3.39-.32,3.2,3.2,0,0,1-.15-5c1.45-1.14,3-2.19,4.48-3.27C56.8,297.36,56.87,297.36,57,297.32Z"/><path class="cls-4" d="M39.48,305.8a3.12,3.12,0,0,1-3-2.14,3.21,3.21,0,0,1,1.08-3.58c1.36-1,2.76-2,4.12-3,.37-.27.49-.15.52.22.19,1.76.42,3.51.53,5.27A3.14,3.14,0,0,1,39.48,305.8Z"/><path class="cls-4" d="M59.72,319.31a3.1,3.1,0,0,1-3-2.13,3.18,3.18,0,0,1,1.09-3.62c1.35-1,2.72-2,4.07-3,.39-.29.51-.2.55.24.16,1.65.35,3.3.51,4.94A3.19,3.19,0,0,1,59.72,319.31Z"/><path class="cls-4" d="M78,311.26c.13,1.22.24,2.3.36,3.38.07.67.13,1.35.23,2a3.23,3.23,0,0,1-2,3.44,3.17,3.17,0,0,1-3.85-1.24,3.07,3.07,0,0,1,.42-4C74.63,313.58,76.33,312.53,78,311.26Z"/><path class="cls-4" d="M38,320.37c.19,2,.53,3.94.55,5.92a3.14,3.14,0,0,1-3,3.07,3.25,3.25,0,0,1-3.32-2.58,3,3,0,0,1,1.13-3.14c1.43-1.11,2.92-2.14,4.39-3.2A1.07,1.07,0,0,1,38,320.37Z"/><path class="cls-4" d="M46.64,326.43a2.91,2.91,0,0,1,1.25-2.23c1.33-1,2.68-1.95,4-2.94.4-.29.58-.3.63.25.17,1.69.37,3.37.52,5.07a3.21,3.21,0,1,1-6.41-.15Z"/><path class="cls-4" d="M67,329.94a3.2,3.2,0,0,1-2-5.68c1.39-1.05,2.82-2.05,4.22-3.09.34-.24.45-.13.49.22.17,1.72.39,3.42.52,5.14A3.17,3.17,0,0,1,67,329.94Z"/><path class="cls-4" d="M45.38,318.52a3.08,3.08,0,0,1-3.06-2.19,3.21,3.21,0,0,1,1.14-3.56c1.35-1,2.72-2,4.07-3,.36-.26.48-.18.52.21.19,1.78.43,3.55.53,5.33A3.13,3.13,0,0,1,45.38,318.52Z"/><path class="cls-4" d="M72.23,303.22a3.22,3.22,0,0,1-2.38,3.43,3.18,3.18,0,0,1-3.62-1.56,3,3,0,0,1,.71-3.92c1.4-1.14,2.9-2.16,4.36-3.23.16-.12.36-.27.4.11C71.88,299.85,72.07,301.65,72.23,303.22Z"/><circle class="cls-3" cx="62.5" cy="62.5" r="62.5"/><circle class="cls-3" cx="62.5" cy="62.5" r="62.5"/><path class="cls-4" d="M52,100.23c0-.24,0-.49,0-.73V63.64c0-.88,0-.86.83-.66a6.23,6.23,0,0,1,2.42,1.29,12.65,12.65,0,0,0,5.08,2.9A10.29,10.29,0,0,0,69,65.54c.69-.5,1.35-1,2-1.55a6,6,0,0,1,7.26,0c.81.59,1.57,1.25,2.39,1.8a10.34,10.34,0,0,0,11.78-.23c.59-.43,1.18-.86,1.73-1.34,1.7-1.52,3.78-1.48,5.86-1.48.23,0,.29.1.28.31s0,.39,0,.58v36.6Z"/><path class="cls-4" d="M47.57,25.24c0,2.64-.07,5.27,0,7.9,0,.8-.24,1-1,.93-2.41,0-4.82,0-7.23,0-.5,0-.69.11-.67.64,0,1,0,2.1,0,3.15,0,.51.14.65.65.65,2.48,0,5,0,7.45,0,.63,0,.78.18.75.78a27.09,27.09,0,0,0,0,2.85c0,.62-.11.84-.78.82-1.71,0-3.41,0-5.11,0-.63,0-.78.19-.75.78a23.44,23.44,0,0,1,0,2.78c0,.69.13.92.86.9,1.7-.06,3.41,0,5.11,0,.57,0,.71.17.68.71,0,1-.05,2,0,2.92,0,.62-.1.84-.78.82-2.46-.05-4.92,0-7.38,0-.54,0-.71.12-.69.68,0,1,0,2.1,0,3.15,0,.49.14.61.61.6,2.51,0,5,0,7.52,0,.6,0,.74.17.71.73,0,1-.05,1.95,0,2.93,0,.59-.1.79-.74.77-1.75,0-3.5,0-5.25,0-.51,0-.67.12-.65.64,0,1.08,0,2.15,0,3.22,0,.47.13.58.57.57,1.78,0,3.56,0,5.33,0,.64,0,.77.19.74.78-.05,1,0,2,0,2.93,0,.56-.11.74-.71.73-2.48,0-5,0-7.45,0-.54,0-.71.12-.69.68,0,1,0,2.1,0,3.15,0,.49.15.61.62.6,2.48,0,5,0,7.45,0,.68,0,.81.21.78.82-.05,1,0,2,0,2.93,0,.54-.11.71-.68.7-1.73,0-3.45,0-5.18,0-.58,0-.82.11-.79.75.06,1,0,2,0,3,0,.53.1.72.67.71,1.73,0,3.46,0,5.19,0,.67,0,.82.2.78.83-.05,1,0,1.95,0,2.92,0,.54-.11.71-.68.7-2.48,0-5,0-7.45,0-.57,0-.74.15-.72.72,0,1,0,2,0,3.08,0,.53.18.64.67.63,2.43,0,4.87,0,7.3,0,.68,0,.91.12.89.86-.06,2.41,0,4.83,0,7.25,0,.24,0,.48,0,.72H25.51q0-37.16,0-74.33c0-.55.13-.67.67-.67C33.3,25.25,40.43,25.24,47.57,25.24Z"/></g></g></svg>