<svg xmlns="http://www.w3.org/2000/svg" viewBox="0 0 300 300"><defs><style>.cls-1{fill:#b8eee9;}.cls-2{fill:#f2f2f2;}</style></defs><title>innovation_technology</title><g id="Layer_2" data-name="Layer 2"><g id="Layer_1-2" data-name="Layer 1"><rect class="cls-1" width="300" height="300" rx="37.13"/><path class="cls-2" d="M122.47,80.11s.13.07.16.12c1.19,1.84,3.19,3.61,3.36,5.54.2,2.23-2.85,2.86-4.44,4.17-22,18.07-20.94,53.6,2.14,70.33A60.78,60.78,0,0,0,135,166.5c10.33,4.6,16.5,12.49,18.76,23.53,1.09,5.32,1.13,5.18-4.11,5.37-2.32.08-3-.5-3.23-2.89-.93-8.38-5.29-14.7-12.89-18.37-6.48-3.13-13-6.13-18.27-11.16C102.88,151.21,97,136.86,98.42,119.76A51.46,51.46,0,0,1,122.47,80.11Z"/><path class="cls-2" d="M242.44,215.13l-2.64,3.2c-1.92,2.32-1.92,2.32-4.17.45-6.31-5.25-12.6-10.53-18.95-15.73-1-.85-1.21-1.36-.23-2.37,1.32-1.36,2.37-3.86,3.76-4s3,2,4.41,3.23q8.37,6.94,16.71,13.94C241.75,214.17,242.36,214.39,242.44,215.13Z"/><path class="cls-2" d="M199.14,219.71c0-3.81.05-7.62,0-11.43,0-1.32.32-1.74,1.7-1.76,5.79-.07,5.79-.12,5.79,5.56,0,6.3,0,12.6,0,18.9,0,1.45-.4,1.92-1.84,1.8-1.81-.16-4.19.54-5.3-.38s-.3-3.42-.35-5.22C199.09,224.69,199.14,222.2,199.14,219.71Z"/><path class="cls-2" d="M234.76,176.65c3.81,0,7.62.06,11.42,0,1.26,0,1.66.33,1.58,1.58-.13,1.89.61,4.37-.33,5.54s-3.57.37-5.46.38c-6.15,0-12.31,0-18.46.06-1.51,0-2-.38-2-1.94,0-5.59,0-5.59,5.53-5.59Z"/><path class="cls-2" d="M146.79,208.07c.15-1.47-.78-3.83.34-4.92s3.48-.18,5.28-.34c1.35-.13,2,.18,1.89,1.74-.14,2.62-.1,5.26,0,7.89,0,1.28-.43,1.58-1.64,1.61C146.79,214.21,146.79,214.25,146.79,208.07Z"/><path class="cls-2" d="M77.81,76.4c-.72,1-1.34,1.91-2,2.8-2.31,3.26-2.31,3.25-5.52,1C63.17,75.06,56,69.92,48.85,64.87c-1.21-.85-1.5-1.46-.47-2.65,1.18-1.37,2-3.75,3.38-4.08s3,1.74,4.48,2.79q10.13,7.17,20.2,14.41C76.89,75.66,77.33,76,77.81,76.4Z"/><path class="cls-2" d="M94.11,66.45a.74.74,0,0,1-.6,1,6.55,6.55,0,0,1-.63.19c-1.93.31-4.13,1.9-5.61,1.05s-1.18-3.42-1.65-5.25c-1.93-7.5-3.8-15-5.82-22.51-.39-1.46-.06-2,1.3-2.2,1.85-.26,4-1.87,5.34-.93,1.15.81,1.12,3.32,1.57,5.08q2.89,11.27,5.77,22.53C93.87,65.76,94,66.1,94.11,66.45Z"/><path class="cls-2" d="M44.31,108.87c-1.1.29-1.43.09-1.58-.41-.06-.21-.1-.43-.14-.65-.34-1.92-1.87-4.12-1-5.61S45,101,46.81,100.56c7.57-1.91,15.17-3.75,22.73-5.72,1.26-.33,1.66-.11,1.88,1.1.34,1.86,1.63,4,1,5.44s-3.34,1.24-5.14,1.7c-7.56,2-15.15,3.81-22.73,5.71C44.29,108.86,44,109,44.31,108.87Z"/><path class="cls-2" d="M198.17,76.51a25.77,25.77,0,1,0,25.74,25.74A25.84,25.84,0,0,0,198.17,76.51Zm0,42.32a16.7,16.7,0,1,1,16.69-16.7A16.7,16.7,0,0,1,198.15,118.83Z"/><path class="cls-2" d="M258.62,96.32c-4.14-.54-8.26-1.2-12.4-1.74-1.93-.24-3.65-.73-4.26-2.82s.59-3.59,2.24-4.8c3.36-2.47,6.71-5,10-7.51,2.7-2.06,3-3.82.93-6.55q-6.09-8.2-12.26-16.35c-2.08-2.76-3.93-3-6.72-.93Q231,59.42,226,63.26c-1.51,1.14-3.09,1.77-4.85.69s-1.94-2.61-1.67-4.42c.61-4.06,1.14-8.13,1.75-12.18s-.55-5.57-4.52-6.1c-6.61-.9-13.2-1.86-19.8-2.81-3-.43-4.63.64-5.12,3.63-.72,4.41-1.35,8.83-2,13.26-.27,1.92-1.1,3.36-3.1,3.78s-3.17-.68-4.24-2.12q-3.8-5.12-7.66-10.19c-2.07-2.73-3.93-3-6.72-.9-3,2.22-6,4.45-8.94,6.75a4.06,4.06,0,0,1-3,1,68.52,68.52,0,0,0-16,.43,69.32,69.32,0,0,0-37.65,18C88.73,84.7,81.26,100.5,79.64,119.08c-.07.84,0,1.46-1.23,1.51-2.21.09-3.33,1.5-3.75,3.63-.64,3.3-1.49,6.57-2.06,9.88-.29,1.68-.79,1.51-1.9.71-2.68-1.92-5.41-3.77-8.14-5.61-2.5-1.7-3.92-1.59-6,.49q-5.09,5-10.11,10.11c-2,2.07-2.14,3.53-.46,6,1.89,2.79,3.78,5.58,5.73,8.33.76,1.06.62,1.37-.68,1.61-3.39.63-6.74,1.39-10.1,2.13-2.58.58-3.57,1.8-3.59,4.46q0,6.72,0,13.43c0,2.91.91,4,3.86,4.66,3.29.74,6.57,1.49,9.88,2.09,1.41.26,1.31.7.63,1.66q-2.91,4.13-5.73,8.33c-1.67,2.49-1.55,3.92.52,6q5,5,10,9.95c2.22,2.2,3.62,2.33,6.19.59,2.74-1.84,5.47-3.69,8.14-5.62,1.26-.91,1.58-.68,1.84.82.58,3.31,1.36,6.59,2.1,9.88.58,2.61,1.78,3.59,4.43,3.61q6.83,0,13.65,0c2.63,0,3.83-1,4.41-3.64.75-3.36,1.52-6.71,2.13-10.1.25-1.38.64-1.36,1.63-.65,2.51,1.78,5.06,3.5,7.59,5.24,3.41,2.35,4.52,2.26,7.39-.62,1.42-1.42,2.83-2.87,4.61-4.68,0,3.83,0,7.1,0,10.37a14.61,14.61,0,0,0,6.35,12.39,2.65,2.65,0,0,1,1.13,2.58c0,6.16-.08,12.32,0,18.48.11,8.13,5.75,14.65,13,15.16,6.4.22,12.8.27,19.2,0a8.41,8.41,0,0,0,1.51-.17,14.86,14.86,0,0,0,11.16-14.57c.09-6.31,0-12.62,0-18.92a2.68,2.68,0,0,1,1.22-2.55,14.41,14.41,0,0,0,6.27-12.19c0-4.69,0-9.39,0-14.08a18.18,18.18,0,0,1,8-15.36c1.8-1.27,3.63-2.49,5.37-3.82,4.25-3.24,4.23-3.26.74-7.16a6.13,6.13,0,0,1-.72-.82c-.58-.92-1.13-.86-1.9-.17a82.49,82.49,0,0,1-7.72,5.82c-7.47,5.32-11.11,12.63-11.22,21.74-.06,4.4,0,8.8,0,13.21,0,5.22-2.9,8.2-8.15,8.23q-14.31.09-28.61,0c-5.2,0-8.1-3.07-8.13-8.29,0-5,0-10,0-15a24.76,24.76,0,0,0-3.82-12.43c-2.76-4.56-7.12-7.28-11.26-10.3-14.66-10.69-23.44-25.11-25.73-43C84.49,111.5,90.92,93.32,106,78.52c11.62-11.39,25.88-17.06,42.13-17.72.57,0,1.45-.4,1.41.75-.06,1.61.94,2.71,1.82,3.88q3.68,4.92,7.38,9.85a3.78,3.78,0,0,1,.52,4.48,3.84,3.84,0,0,1-4.34,1.81c-4.34-.67-8.69-1.29-13.05-1.91-3.09-.44-4.7.7-5.18,3.86q-1.54,10.1-2.94,20.23c-.51,3.7.62,5.11,4.34,5.65,4.13.61,8.26,1.22,12.4,1.76,1.82.24,3.31.93,3.82,2.77s-.37,3.37-1.93,4.52c-3.37,2.48-6.69,5-10,7.51-3.08,2.32-3.32,4-1,7.18q5.85,7.83,11.74,15.65c2.4,3.19,4.1,3.42,7.35,1,3.4-2.55,6.79-5.12,10.2-7.65a3.75,3.75,0,0,1,4.31-.48,3.71,3.71,0,0,1,1.9,3.89c-.06.65-.16,1.31-.25,2-.53,3.85-1.12,7.69-1.6,11.54-.42,3.4.57,4.77,4,5.28q10.32,1.54,20.67,2.91c3,.4,4.48-.86,4.91-3.91q.9-6.32,1.78-12.62c.27-1.94.94-3.62,3-4.13s3.32.6,4.44,2.13c2.48,3.36,5,6.69,7.52,10,2.2,2.9,3.95,3.16,6.86,1q8.11-6,16.19-12.12c2.78-2.1,3-3.91,1-6.72q-3.81-5.12-7.67-10.19c-1.14-1.5-1.76-3.06-.69-4.85s2.74-2,4.61-1.71q6.51,1,13.05,1.9c2.76.39,4.49-.91,4.91-3.72.49-3.26.84-6.55,1.4-9.79s.58-6.81,1.71-10.07V99.37A4.78,4.78,0,0,0,258.62,96.32Zm-124,135.56h31.64v6.44H134.64Zm0,11.71h31.64V245a11.48,11.48,0,0,1-11.48,11.48h-8.68A11.48,11.48,0,0,1,134.64,245Zm-28.79-64.07c3.94,3.47,9.06,5.52,11.91,10.26.11.19.24.36.35.55,1.87,3.07,1.91,3.1-.69,5.61-1.94,1.87-3.58,5.14-5.88,5.24-2.11.09-4.36-2.59-6.53-4.07-6-4.08-11.39-1.94-13,5.15-.51,2.29-1,4.57-1.42,6.88-.15,1-.54,1.2-1.42,1.18-2.2,0-4.4-.06-6.6,0-.93,0-1.22-.32-1.38-1.21-.47-2.59-1-5.16-1.64-7.72-1.34-5.81-6.87-8.08-11.86-4.85-2.09,1.35-4.16,2.74-6.15,4.23-1,.75-1.64.85-2.54-.17a54.84,54.84,0,0,0-4.51-4.51c-1-.85-1.08-1.47-.27-2.54,1.51-2,2.9-4,4.26-6.13,3.24-5,1-10.57-4.76-11.9-2.56-.6-5.13-1.2-7.72-1.64-1-.19-1.38-.61-1.25-1.57a1.61,1.61,0,0,0,0-.22c.05-2.41-.77-5.42.38-7.06s4.42-1.24,6.74-1.81c1.78-.43,3.6-.66,5.12-1.82a7.4,7.4,0,0,0,1.77-10c-1.42-2.3-3-4.52-4.59-6.7-.71-1-.68-1.57.23-2.36,2-1.75,3.59-5.12,5.9-5.19,2.13-.07,4.36,2.6,6.53,4.08,5.87,4,11.12,2,12.82-4.76.12-.49.29-1,.58-1.87a79.62,79.62,0,0,0,2.89,12.29,22.44,22.44,0,0,0-15.44,9.18,21.85,21.85,0,0,0-4.37,13.54,22.66,22.66,0,0,0,16.48,21.23C88.1,193.14,99.22,190.86,105.85,179.52Zm-18.48-22.8a67,67,0,0,0,11.37,16.09,2.18,2.18,0,0,1,.47,3c-2.89,5.31-7.34,8-12.26,8.18-9-.18-15-5.64-15.85-13.45a14.8,14.8,0,0,1,11.52-15.94C85.77,153.86,86,153.92,87.37,156.72Zm167.22-52.2c-.66,4-1.19,8-1.72,12-.16,1.17-.41,1.78-1.89,1.48-2.72-.56-5.51-.79-8.25-1.22-5-.81-9.52,1-12,5s-2.27,8.83.7,13q2.63,3.66,5.42,7.21c.71.9.9,1.41-.2,2.2-3.28,2.34-6.5,4.77-9.68,7.24-.9.7-1.35.67-2-.26-1.74-2.45-3.57-4.84-5.39-7.22-3-3.9-6.88-5.7-11.74-4.58s-7.79,4.43-8.64,9.39c-.5,3-.89,5.94-1.23,8.93-.16,1.36-.64,1.85-2.08,1.61-3.9-.65-7.82-1.23-11.74-1.7-1.21-.15-1.23-.71-1.1-1.6.4-2.69.74-5.37,1.17-8.05.89-5.47-1-10.06-5.14-12.59s-8.83-2.09-13.31,1.22c-2.24,1.65-4.47,3.32-6.66,5-.86.66-1.39.94-2.2-.21-2.33-3.29-4.78-6.48-7.26-9.66-.72-.94-.57-1.42.34-2.07,2.33-1.65,4.6-3.39,6.87-5.13,4.31-3.32,6.12-7.81,4.83-12.27-1.5-5.14-5.06-7.84-10.32-8.49-2.83-.35-5.64-.9-8.48-1.21-1.15-.12-1.29-.59-1.15-1.55.61-4.06,1.2-8.11,1.73-12.18.14-1.06.52-1.3,1.58-1.12,3.17.53,6.37,1,9.56,1.39A11.16,11.16,0,0,0,167.25,78a11.28,11.28,0,0,0-2.59-7.3c-1.76-2.34-3.49-4.71-5.3-7-.7-.88-.74-1.37.24-2.07,3.27-2.36,6.51-4.76,9.67-7.26,1.09-.87,1.51-.48,2.16.43,1.76,2.44,3.55,4.85,5.4,7.21,3.1,3.94,7.15,5.66,12,4.33s7.58-4.73,8.29-9.72c.42-3,.9-5.94,1.27-8.92.12-1,.39-1.38,1.5-1.2,4,.64,8.11,1.24,12.19,1.71,1.27.15,1.33.67,1.18,1.69-.49,3.34-1,6.67-1.35,10A11.1,11.1,0,0,0,229,70.2c2.89-1.87,5.59-4,8.33-6.11.8-.6,1.28-.93,2,.15,2.38,3.34,4.87,6.6,7.38,9.85.65.84.59,1.28-.28,1.89-2.39,1.7-4.69,3.52-7,5.26-4.2,3.09-5.92,7.21-4.77,12.3,1.06,4.66,5,7.75,10.38,8.46,2.83.37,5.65.83,8.48,1.21C254.32,103.32,254.78,103.42,254.59,104.52Z"/></g></g></svg>