<svg xmlns="http://www.w3.org/2000/svg" viewBox="0 0 400 400"><defs><style>.cls-1{fill:#b8eee9;}.cls-2{fill:#8c8c8c;}</style></defs><title>risk_identification_2</title><g id="Layer_2" data-name="Layer 2"><g id="Layer_1-2" data-name="Layer 1"><rect class="cls-1" width="400" height="400" rx="200"/><path class="cls-2" d="M300.24,312.1l-.05.4h-4.83C296.93,311.64,298.62,312.26,300.24,312.1Z"/><path class="cls-2" d="M143.24,135.17c0-5.93,0-11.85,0-17.77,0-2.69,1.08-4.08,3.15-4.14s3.42,1.46,3.43,4.14q0,17.78,0,35.55c0,3.14-2.39,4.93-4.79,3.68a3.45,3.45,0,0,1-1.8-3.47C143.26,147.16,143.24,141.17,143.24,135.17Z"/><path class="cls-2" d="M150.87,171.21a4.38,4.38,0,0,1-4.49,4.37,4.44,4.44,0,0,1-4.39-4.52,4.55,4.55,0,0,1,4.53-4.41A4.45,4.45,0,0,1,150.87,171.21Z"/><path class="cls-2" d="M310.75,290.49c-4.37-6.75-8.73-13.5-13.16-20.21a3.26,3.26,0,0,0-5.52,3.46,15.37,15.37,0,0,0,.94,1.48c3.84,5.88,7.73,11.72,11.49,17.64a8.3,8.3,0,0,1-2.37,11.59A8.21,8.21,0,0,1,290.55,302c-8.81-13.37-17.52-26.79-26.31-40.17-.64-1-.59-1.41.43-2q6-3.63,11.9-7.42c.92-.59,1.3-.43,1.84.43q2.49,4,5.14,7.9c1.24,1.83,3.14,2.26,4.74,1.2a3.3,3.3,0,0,0,.74-4.83C281.49,245.54,274,234,266.34,222.44c-2.53-3.82-7-4.67-11-2.31a13.47,13.47,0,0,0-1.84,1.19c-.9.73-1.4.57-2-.42-2-3.18-3.91-6.35-6-9.41-1-1.4-.94-2.06.47-3.24,15.57-13,22.36-29.68,19.11-49.7s-14.88-34-33.89-41-36.71-3.45-52.4,9.41c-1.55,1.27-2,.8-2.74-.58-5.69-10-11.58-19.8-17.12-29.84-2.49-4.5-5.55-7.94-10.73-9.06h-3.52c-5.25,1.2-8.32,4.77-10.76,9.35-3.18,6-6.77,11.77-10.12,17.67-1.32,2.32-.35,4.71,2,5.15,2,.38,3.09-.74,4-2.33q5.49-9.61,11.05-19.17c3.14-5.43,8.2-5.44,11.34,0,6.4,11.06,12.76,22.15,19.22,33.17a2.86,2.86,0,0,1-.24,3.78c-9.32,12.5-12.53,26.47-9.86,41.82a78.37,78.37,0,0,0,2.61,9.45c-21.5,0-42.73,0-63.95,0a5.73,5.73,0,0,1-5.13-8.42c.28-.6.64-1.15,1-1.72l25.72-44.6c1.3-2.26,1-4.08-.88-5.11-1.68-1-3.5-.42-4.61,1.55-9.45,16.68-19.6,33-28.46,50v4.83c2.41,7.6,7.71,10.29,15.5,10.2,20.71-.26,41.43-.08,62.14-.12a2.87,2.87,0,0,1,2.94,1.63,45.51,45.51,0,0,0,7.36,9.51,52.6,52.6,0,0,0,61.44,10c1.45-.74,2.16-.66,3,.79,1.65,2.84,3.51,5.56,5.29,8.32,1.56,2.44,1.56,2.44-1,4.08-4.48,2.91-5.53,7.47-2.64,11.9q21.56,33,43.16,66a15.48,15.48,0,0,0,7.24,6.13c1,.4,2.14.35,2.95,1.17h.44c1.5-.48,3.05-.1,4.57-.23a10.81,10.81,0,0,0,7.71-3.1,13.56,13.56,0,0,0,4.86-9v-4.84C311.85,293.76,311.71,292,310.75,290.49ZM212.8,213.2a46.17,46.17,0,1,1,46.49-45.92A46.11,46.11,0,0,1,212.8,213.2Zm39.1,29.19c-.57.08-.64-.49-.85-.8-1.34-2-2.63-4-4-6-.79-1.16-.55-2,.62-2.72,3.57-2.26,7.12-4.56,10.67-6.86,1.1-.72,2-.73,2.77.48,1.37,2.16,2.78,4.29,4.2,6.41.38.56.51.93-.18,1.36-4.22,2.61-8.42,5.25-12.63,7.87A6.37,6.37,0,0,1,251.9,242.39Zm7.25,11.67c-1.19-2-2.52-3.91-3.84-5.94,4.43-2.75,8.78-5.43,13.08-8.18.91-.58,1.36-.43,1.88.45,1.14,1.94,3.4,3.92,3.25,5.72s-3.27,2.46-5.08,3.63c-2.46,1.59-5,3.09-7.41,4.68C260.21,255,259.73,255,259.15,254.06Z"/><path class="cls-2" d="M212.88,129.44a37.57,37.57,0,1,0,37.7,37.36A37.7,37.7,0,0,0,212.88,129.44Zm0,68.53A31,31,0,1,1,244,166.72,31,31,0,0,1,212.92,198Z"/><path class="cls-2" d="M213.11,182.57c-3.58,0-7.16,0-10.74,0-2.44,0-3.87-1.21-3.94-3.16s1.46-3.4,3.94-3.41c7.09,0,14.17,0,21.26,0,2.57,0,4,1.27,4,3.31s-1.45,3.25-4,3.27C220.12,182.59,216.61,182.57,213.11,182.57Z"/><path class="cls-2" d="M213,170.31c-3.5,0-7,0-10.51,0-2.59,0-4.07-1.23-4.11-3.24s1.48-3.32,4-3.33q10.62,0,21.25,0c2.58,0,4,1.28,4,3.35s-1.44,3.18-3.89,3.22C220.2,170.34,216.62,170.31,213,170.31Z"/><path class="cls-2" d="M206,151.49c1.39,0,2.78-.07,4.15,0a3.09,3.09,0,0,1,3.17,3.2c0,1.86-1,3.14-2.89,3.23-3,.14-6.11.14-9.15,0a2.91,2.91,0,0,1-2.85-3.26,3,3,0,0,1,3-3.14c1.52-.1,3.06,0,4.58,0Z"/></g></g></svg>