<svg xmlns="http://www.w3.org/2000/svg" viewBox="0 0 300 300"><defs><style>.cls-1{fill:#b8eee9;}.cls-2{fill:#fff;}</style></defs><title>coomunity_based</title><g id="Layer_2" data-name="Layer 2"><g id="Layer_1-2" data-name="Layer 1"><rect class="cls-1" width="300" height="300" rx="37.13"/><path class="cls-2" d="M147.8,37.5l.86.6a4.3,4.3,0,0,1,2,5.07,4.37,4.37,0,0,1-8.35,0,4.3,4.3,0,0,1,2-5.07l.86-.6Z"/><path class="cls-2" d="M262.09,255.41v-2.19a.73.73,0,0,0,.39.05v2.2C262.32,255.68,262.19,255.65,262.09,255.41Z"/><path class="cls-2" d="M262.26,255.3a5.83,5.83,0,0,0-.16-2.08c-1.91-14.26-9.43-24.57-22-31.27-1.29-.68-3.31-.88-3.81-1.89s1.35-2.32,1.8-3.69c.36-1.11.87-2.17,1.16-3.29.93-3.6.63-7.29.47-10.93a17.66,17.66,0,0,0-35.24-.08c-.3,6.3-.68,12.66,4,18A41.61,41.61,0,0,0,186,239.67,41.58,41.58,0,0,0,163.69,220a20.37,20.37,0,0,0,2.85-4.9c1.61-4,1.23-8.21,1.1-12.36a17.68,17.68,0,0,0-35-2.8c-.58,3-.27,6-.28,9a15.93,15.93,0,0,0,3,9.66c1,1.34.5,1.65-.75,2.17a40.29,40.29,0,0,0-19.74,17.33c-.26.45-.29,1.17-1.1,1.23a41.14,41.14,0,0,0-21.94-19.24c.82-1.5,1.68-2.94,2.39-4.44,2-4.15,1.5-8.6,1.37-13a17.67,17.67,0,0,0-34.9-3.32c-.78,3.32-.41,6.7-.4,10.06a15.49,15.49,0,0,0,2.91,9c.88,1.26.88,1.68-.68,2.34A40.08,40.08,0,0,0,40,244.1c-1.16,3-1.44,6.18-2.52,9.17v6.15a3.46,3.46,0,0,0,3.08,3.08H259.41a4,4,0,0,0,3.08-3.08v-1.75C262,256.92,262.37,256.09,262.26,255.3ZM69.08,202.7a8.88,8.88,0,0,1,17.73.05c.07,1.09,0,2.19,0,3.29s.06,2.19,0,3.29a8.88,8.88,0,0,1-17.74-.06A62.6,62.6,0,0,1,69.08,202.7Zm38.93,51q-30.41-.06-60.82-.05a2.25,2.25,0,0,1-.56-.19A31.58,31.58,0,0,1,62.1,230.75,33.48,33.48,0,0,1,71.87,227c1.37-.32,1.77,0,1.71,1.44-.12,2.85-.06,5.71,0,8.56,0,3,1.72,4.92,4.4,4.91s4.35-1.87,4.38-4.93c0-3.36,0-6.71,0-10.27,11.1,2,19.07,7.82,24.1,17.66a30.66,30.66,0,0,1,2.61,7.88C109.22,253.13,109.33,253.74,108,253.74Zm33.34-52.64a8.9,8.9,0,0,1,9.53-6.7,8.79,8.79,0,0,1,8,8.22,59.16,59.16,0,0,1,0,6.79,8.88,8.88,0,0,1-17.72,0c-.07-1.17,0-2.34,0-3.51H141A30.35,30.35,0,0,1,141.35,201.1Zm38.12,52.65c-9.81-.08-19.62,0-29.43,0s-19.61-.06-29.42,0c-1.92,0-2-.6-1.59-2.1,3.27-13.16,11.5-21.3,24.64-24.57,1.52-.38,2.05-.15,2,1.53-.13,2.85-.06,5.71,0,8.57s1.75,4.72,4.34,4.74,4.37-1.81,4.42-4.66.16-5.72,0-8.56c-.13-2,.65-1.94,2.12-1.58,13.16,3.27,21.29,11.51,24.55,24.65C181.39,253.32,181.14,253.76,179.47,253.75Zm33.94-52.65a8.9,8.9,0,0,1,9.53-6.7,8.79,8.79,0,0,1,8,8.22,59.16,59.16,0,0,1,0,6.79,8.88,8.88,0,0,1-17.71,0c-.08-1.17,0-2.34,0-3.51h-.12A30.44,30.44,0,0,1,213.41,201.1Zm38,52.66c-9.8-.11-19.61,0-29.42,0s-19.47-.05-29.2,0c-1.92,0-2.13-.5-1.69-2.21,3.32-13.16,11.59-21.25,24.72-24.48,1.35-.33,2-.21,1.88,1.44-.15,2.77-.06,5.56,0,8.34,0,3.21,1.7,5.11,4.45,5.08s4.3-1.9,4.33-5c0-2.78.11-5.57,0-8.34-.09-1.74.52-1.88,2-1.51Q248.15,232,253,251.67C253.42,253.23,253.29,253.78,251.42,253.76Z"/><path class="cls-2" d="M247.61,97c-7-6.91-15.58-10.15-25.38-10.23-5.76,0-11.52,0-17.22,0a3.16,3.16,0,0,1,.36-2.08,36.74,36.74,0,0,0-26.19-46.09c-1.66-.43-3.43-.32-5-1.08h-9.23l-.86.6a4.38,4.38,0,0,0,2.33,8.17c4.1,0,8.17,0,12.16,1.28,12.73,4,20.55,16,19.33,29.87-1.07,12.27-11.56,22.79-24.25,24.32-5.33.65-10.68.21-16,.29q-7.14.1-14.28,0a4.93,4.93,0,0,0-4.8,2.78c-1.77,3.16-3.62,6.27-5.56,9.61-1.79-3.1-3.55-6-5.11-8.92a5.94,5.94,0,0,0-5.73-3.52c-13.89-.33-25.8-11.11-27.08-24.32-1.43-14.79,7.47-27.41,21.65-30.71a35.71,35.71,0,0,1,8.51-.66c3.38,0,5.08-1,5.72-3.29.57-2.06-.34-3.76-2.93-5.49h-9.67c-.15.12-.3.34-.47.35C99.38,40,83.11,57.81,86.59,80c.23,1.46-.48,1.34-1.43,1.36-4.6.09-9.21-.24-13.8.52-18,3-31,19.21-30.3,37.94.66,17.77,15.31,33.11,33.11,34.58a2.62,2.62,0,0,1,2.35,1.54q3.62,6.39,7.31,12.73c2.2,3.74,6.06,3.73,8.28,0,2.33-4,4.68-7.93,6.88-12a3.45,3.45,0,0,1,3.55-2.12c7.17.12,14.35,0,21.52.07a36.69,36.69,0,0,0,21.72-6.39c1-.7,1.48-.59,2.29.27a36.32,36.32,0,0,0,27.23,11.63c7.54,0,15.08.05,22.62,0a2.81,2.81,0,0,1,2.88,1.71c2.25,4.09,4.62,8.12,7,12.16s6.17,4,8.51,0,4.6-7.8,6.74-11.79a4.38,4.38,0,0,1,3.72-2.43c15-2.15,25.38-10.42,30.2-24.64C261.82,120.67,258.38,107.71,247.61,97ZM126.87,145.62c-9.14.33-18.3.2-27.45.08-3.1,0-5.09,1.05-6.49,3.8-1.47,2.9-3.23,5.67-5,8.67-1.81-3.11-3.59-5.88-5.07-8.81-1.31-2.61-3.22-3.61-6.1-3.69a27.66,27.66,0,0,1-25.43-18.62c-6.11-17.4,6.39-36,24.78-36.88,4.09-.19,8.19,0,12.29-.11a2,2,0,0,1,2,1.31c6.33,11.21,15.83,17.72,28.68,19.16a2.94,2.94,0,0,1,2.51,1.72c2.35,4.2,4.78,8.37,7.23,12.52,2.29,3.88,6.09,3.85,8.38-.07,2.39-4.1,4.79-8.2,7.08-12.36a2.38,2.38,0,0,1,2.76-1.51,5.17,5.17,0,0,0,.88,0c4.59,0,4.59,0,5,4.66C154.49,130.86,142.33,145.07,126.87,145.62ZM226.15,151a5.34,5.34,0,0,1-1.51.21c-4.63-.73-6.94,1.92-8.7,5.66-1.07,2.28-2.49,4.39-3.9,6.84-1.59-2.74-3.25-5.16-4.45-7.79-1.62-3.53-4-4.81-8-4.68-8.33.27-16.68.16-25,.06a27.5,27.5,0,0,1-20-8.61c-.87-.89-1.2-1.46-.28-2.67a35.21,35.21,0,0,0,7.1-27c-.23-1.63,0-2.25,1.85-2.2,5.12.15,10.26.28,15.29-1a35.93,35.93,0,0,0,20.15-12.78,3.72,3.72,0,0,1,3.31-1.54c6.87.07,13.75,0,20.63,0A27.84,27.84,0,0,1,226.15,151Z"/><path class="cls-2" d="M146.42,78.48a4.33,4.33,0,0,1-4.32-4.29,4.39,4.39,0,1,1,8.77-.09A4.33,4.33,0,0,1,146.42,78.48Z"/><path class="cls-2" d="M125.19,78.49a4.27,4.27,0,0,1-4.28-4.3,4.35,4.35,0,0,1,4.4-4.43,4.46,4.46,0,0,1,4.34,4.33A4.4,4.4,0,0,1,125.19,78.49Z"/><path class="cls-2" d="M172.05,74.06a4.25,4.25,0,0,1-4.36,4.42,4.39,4.39,0,0,1-4.38-4.26,4.51,4.51,0,0,1,4.43-4.47A4.36,4.36,0,0,1,172.05,74.06Z"/></g></g></svg>